<svg width="56" height="56" viewBox="0 0 56 56" fill="none" xmlns="http://www.w3.org/2000/svg">
<path d="M38.08 39.9297C37.53 39.9297 37.08 39.4797 37.08 38.9297V30.9297C37.08 30.3797 37.53 29.9297 38.08 29.9297C38.63 29.9297 39.08 30.3797 39.08 30.9297V38.9297C39.08 39.4797 38.63 39.9297 38.08 39.9297Z" fill="#388EEB"/>
<path d="M39.765 53.9597C39.375 53.9597 39.005 53.7297 38.845 53.3497C38.63 52.8397 38.865 52.2547 39.375 52.0397C40.6 51.5197 41.39 50.3247 41.39 48.9897V43.7397C41.39 41.9147 39.905 40.4297 38.08 40.4297C36.255 40.4297 34.77 41.9147 34.77 43.7397V48.9897C34.77 50.3197 35.56 51.5197 36.785 52.0397C37.295 52.2547 37.53 52.8447 37.315 53.3497C37.1 53.8597 36.51 54.0947 36.005 53.8797C34.04 53.0447 32.77 51.1247 32.77 48.9897V43.7397C32.77 40.8097 35.155 38.4297 38.08 38.4297C41.005 38.4297 43.39 40.8147 43.39 43.7397V48.9897C43.39 51.1247 42.12 53.0447 40.155 53.8797C40.025 53.9347 39.895 53.9597 39.765 53.9597Z" fill="#388EEB"/>
<path d="M17.485 37.8047C16.935 37.8047 16.485 37.3547 16.485 36.8047V31.3047C16.485 30.7547 16.935 30.3047 17.485 30.3047C18.035 30.3047 18.485 30.7547 18.485 31.3047V36.8047C18.485 37.3547 18.035 37.8047 17.485 37.8047Z" fill="#388EEB"/>
<path d="M17.485 43.3047C15.555 43.3047 13.985 41.7347 13.985 39.8047C13.985 37.8747 15.555 36.3047 17.485 36.3047C19.415 36.3047 20.985 37.8747 20.985 39.8047C20.985 41.7347 19.415 43.3047 17.485 43.3047ZM17.485 38.3047C16.66 38.3047 15.985 38.9797 15.985 39.8047C15.985 40.6297 16.66 41.3047 17.485 41.3047C18.31 41.3047 18.985 40.6297 18.985 39.8047C18.985 38.9797 18.31 38.3047 17.485 38.3047Z" fill="#388EEB"/>
<path d="M51.07 55.4398C50.52 55.4398 50.07 54.9898 50.07 54.4398V42.1798C50.07 36.0448 45.075 31.0498 38.94 31.0498H17.13C10.995 31.0498 6 36.0448 6 42.1798V54.4398C6 54.9898 5.55 55.4398 5 55.4398C4.45 55.4398 4 54.9898 4 54.4398V42.1798C4 34.9398 9.89 29.0498 17.13 29.0498H38.94C46.18 29.0498 52.07 34.9398 52.07 42.1798V54.4398C52.07 54.9898 51.62 55.4398 51.07 55.4398Z" fill="#1E2124"/>
<path d="M28.035 27.3199C22.775 27.3199 18.495 23.0399 18.495 17.7799V13.0849C15.3 9.23987 17.145 2.08987 17.235 1.73987C17.34 1.33987 17.685 1.04487 18.1 0.99987C18.515 0.95987 18.91 1.17487 19.095 1.54987C19.765 2.88487 23.16 3.44987 24.7 3.50987H28.035C33.295 3.50987 37.575 7.78987 37.575 13.0499V17.7799C37.575 23.0399 33.295 27.3199 28.035 27.3199ZM20.495 14.6649V17.7799C20.495 21.9349 23.875 25.3199 28.035 25.3199C32.195 25.3199 35.575 21.9399 35.575 17.7799V13.0499C35.575 8.89487 32.195 5.50987 28.035 5.50987H24.66C24.17 5.48987 20.94 5.31487 18.835 4.00987C18.455 6.59987 18.255 11.3049 21.38 12.8699C21.875 13.1149 22.075 13.7199 21.825 14.2099C21.58 14.6999 20.985 14.8999 20.495 14.6649Z" fill="#1E2124"/>
<path d="M26.745 16.2598C26.745 15.6598 26.26 15.1748 25.66 15.1748C25.06 15.1748 24.575 15.6598 24.575 16.2598C24.575 16.8598 25.06 17.3448 25.66 17.3448C26.26 17.3448 26.745 16.8598 26.745 16.2598Z" fill="#1E2124"/>
<path d="M31.495 16.2598C31.495 15.6598 31.01 15.1748 30.41 15.1748C29.81 15.1748 29.325 15.6598 29.325 16.2598C29.325 16.8598 29.81 17.3448 30.41 17.3448C31.01 17.3448 31.495 16.8598 31.495 16.2598Z" fill="#1E2124"/>
<path d="M28.035 21.3447C26.755 21.3447 25.48 20.8597 24.505 19.8847C24.115 19.4947 24.115 18.8597 24.505 18.4697C24.895 18.0797 25.53 18.0797 25.92 18.4697C27.085 19.6347 28.98 19.6347 30.145 18.4697C30.535 18.0797 31.17 18.0797 31.56 18.4697C31.95 18.8597 31.95 19.4947 31.56 19.8847C30.59 20.8597 29.31 21.3447 28.03 21.3447H28.035Z" fill="#1E2124"/>
<path d="M29.12 39.4297C29.12 38.8297 28.635 38.3447 28.035 38.3447C27.435 38.3447 26.95 38.8297 26.95 39.4297C26.95 40.0297 27.435 40.5147 28.035 40.5147C28.635 40.5147 29.12 40.0297 29.12 39.4297Z" fill="#1E2124"/>
<path d="M29.12 45.3047C29.12 44.7047 28.635 44.2197 28.035 44.2197C27.435 44.2197 26.95 44.7047 26.95 45.3047C26.95 45.9047 27.435 46.3897 28.035 46.3897C28.635 46.3897 29.12 45.9047 29.12 45.3047Z" fill="#1E2124"/>
<path d="M29.12 51.1797C29.12 50.5797 28.635 50.0947 28.035 50.0947C27.435 50.0947 26.95 50.5797 26.95 51.1797C26.95 51.7797 27.435 52.2647 28.035 52.2647C28.635 52.2647 29.12 51.7797 29.12 51.1797Z" fill="#1E2124"/>
</svg>
