<svg width="56" height="56" viewBox="0 0 56 56" fill="none" xmlns="http://www.w3.org/2000/svg">
<path d="M7.66536 23.1762H1.40106C0.852439 23.1762 0.403564 22.7273 0.403564 22.1787C0.403564 21.63 0.852439 21.1812 1.40106 21.1812H7.66536C8.21399 21.1812 8.66286 21.63 8.66286 22.1787C8.66286 22.7273 8.21399 23.1762 7.66536 23.1762Z" fill="#388EEB"/>
<path d="M53.7149 23.1762H47.4506C46.902 23.1762 46.4531 22.7273 46.4531 22.1787C46.4531 21.63 46.902 21.1812 47.4506 21.1812H53.7149C54.2635 21.1812 54.7124 21.63 54.7124 22.1787C54.7124 22.7273 54.2635 23.1762 53.7149 23.1762Z" fill="#388EEB"/>
<path d="M41.7399 40.3082C41.1913 40.3082 40.7424 39.8594 40.7424 39.3107V22.9168C40.7424 15.645 34.8273 9.72986 27.5555 9.72986C20.2837 9.72986 14.3685 15.645 14.3685 22.9168V39.3107C14.3685 39.8594 13.9197 40.3082 13.371 40.3082C12.8224 40.3082 12.3735 39.8594 12.3735 39.3107V22.9168C12.3735 14.5478 19.1815 7.73486 27.5555 7.73486C35.9295 7.73486 42.7374 14.5428 42.7374 22.9168V39.3107C42.7374 39.8594 42.2886 40.3082 41.7399 40.3082Z" fill="#1E2124"/>
<path d="M45.6102 49.8843H9.51068C8.96206 49.8843 8.51318 49.4354 8.51318 48.8868V40.413C8.51318 39.8644 8.96206 39.4155 9.51068 39.4155H45.6102C46.1588 39.4155 46.6077 39.8644 46.6077 40.413V48.8868C46.6077 49.4354 46.1588 49.8843 45.6102 49.8843ZM10.5032 47.8893H44.6077V41.4105H10.5032V47.8893Z" fill="#1E2124"/>
<path d="M37.8746 23.1013C37.8746 17.4055 33.2562 12.7871 27.5605 12.7871C21.8648 12.7871 17.2463 17.4055 17.2463 23.1013C17.2463 28.797 21.8648 33.4154 27.5605 33.4154C33.2562 33.4154 37.8746 28.797 37.8746 23.1013Z" fill="#388EEB"/>
<path d="M4.9073 36.2534C4.56317 36.2534 4.229 36.0738 4.04446 35.7546C3.77015 35.2758 3.93474 34.6673 4.40855 34.393L9.82996 31.2609C10.3088 30.9866 10.9172 31.1462 11.1916 31.625C11.4659 32.1038 11.3013 32.7122 10.8275 32.9865L5.40605 36.1187C5.25144 36.2085 5.07688 36.2534 4.9073 36.2534Z" fill="#388EEB"/>
<path d="M44.7873 13.2313C44.4432 13.2313 44.109 13.0517 43.9245 12.7325C43.6502 12.2537 43.8147 11.6453 44.2886 11.371L49.71 8.2388C50.1888 7.96449 50.7972 8.12907 51.0716 8.60288C51.3459 9.08168 51.1813 9.69018 50.7075 9.96449L45.2861 13.0966C45.1314 13.1864 44.9569 13.2313 44.7873 13.2313Z" fill="#388EEB"/>
<path d="M50.2087 36.2541C50.0391 36.2541 49.8696 36.2092 49.71 36.1195L44.2885 32.9873C43.8097 32.713 43.6501 32.0995 43.9245 31.6257C44.1988 31.1469 44.8122 30.9823 45.286 31.2616L50.7075 34.3938C51.1863 34.6681 51.3459 35.2815 51.0715 35.7554C50.887 36.0746 50.5529 36.2541 50.2087 36.2541Z" fill="#388EEB"/>
<path d="M10.3287 13.2314C10.1591 13.2314 9.98955 13.1865 9.82995 13.0967L4.40854 9.9646C3.92974 9.69029 3.77014 9.07681 4.04445 8.60299C4.31877 8.12419 4.93223 7.9646 5.40604 8.23892L10.8275 11.3711C11.3063 11.6454 11.4659 12.2588 11.1915 12.7327C11.007 13.0519 10.6728 13.2314 10.3287 13.2314Z" fill="#388EEB"/>
</svg>
