<svg width="35" height="40" viewBox="0 0 35 40" fill="none" xmlns="http://www.w3.org/2000/svg">
<path d="M33.0997 10.8903H0.742432V34.4619H7.32811V39.3459L12.1972 34.4619H33.0997V10.8903Z" fill="white"/>
<path d="M7.32842 40.0911C7.23269 40.0911 7.13696 40.0712 7.04453 40.0347C6.76724 39.9188 6.58568 39.6471 6.58568 39.3456V35.2038H0.742746C0.33341 35.2038 0 34.8691 0 34.4583V10.8899C0 10.4791 0.33341 10.1444 0.742746 10.1444H33.1C33.5094 10.1444 33.8428 10.4791 33.8428 10.8899V34.4583C33.8428 34.8691 33.5094 35.2038 33.1 35.2038H12.5045L7.8533 39.8724C7.71135 40.0149 7.51989 40.0911 7.32842 40.0911ZM1.48549 33.7161H7.32842C7.73776 33.7161 8.07117 34.0507 8.07117 34.4616V37.5497L11.6727 33.9347C11.8113 33.7956 11.9995 33.7161 12.1975 33.7161H32.3573V11.6354H1.48549V33.7127V33.7161Z" fill="#1E2124"/>
<path d="M16.9216 30.5772C22.7557 30.5772 27.4851 25.8301 27.4851 19.9743C27.4851 14.1184 22.7557 9.37134 16.9216 9.37134C11.0876 9.37134 6.35815 14.1184 6.35815 19.9743C6.35815 25.8301 11.0876 30.5772 16.9216 30.5772Z" fill="#E0E6F5"/>
<path d="M15.3526 7.29648H8.18921C7.2319 7.29648 6.45284 8.07514 6.45284 9.03934C6.45284 10.0035 7.2286 10.7789 8.18921 10.7789H7.28471C6.3274 10.7789 5.54834 11.5575 5.54834 12.5184C5.54834 13.4793 6.3241 14.2613 7.28471 14.2613H8.18921C7.2319 14.2613 6.45284 15.0399 6.45284 16.0008C6.45284 16.9617 7.2286 17.7437 8.18921 17.7437H8.69098C7.73366 17.7437 6.95791 18.5223 6.95791 19.4832C6.95791 20.4441 7.73366 21.2228 8.69098 21.2228H22.8956V7.79681C22.8956 7.79681 19.3766 7.09105 17.967 2.84988C16.7588 -0.784941 13.943 1.03413 14.1444 2.75048C14.1444 2.75048 13.943 5.57682 15.3526 7.29317V7.29648Z" fill="white"/>
<path d="M15.9109 0.00361633C15.2309 0.00361633 14.5575 0.321705 14.0656 0.875046C13.5869 1.41513 13.346 2.10432 13.4021 2.76701C13.3823 3.14474 13.3394 4.93398 14.0458 6.54762H8.18965C6.823 6.54762 5.71053 7.66424 5.71053 9.03599C5.71053 9.51644 5.84588 9.96375 6.08026 10.3448C5.32101 10.7689 4.80273 11.584 4.80273 12.5184C4.80273 13.4528 5.3177 14.2679 6.08026 14.692C5.84588 15.073 5.71053 15.5204 5.71053 16.0008C5.71053 16.8159 6.10336 17.5415 6.70746 17.9955C6.39716 18.4097 6.2123 18.9265 6.2123 19.4832C6.2123 20.855 7.32477 21.9683 8.68812 21.9683H22.8927C23.302 21.9683 23.6355 21.6336 23.6355 21.2227V7.79677C23.6355 7.44224 23.3846 7.13409 23.038 7.06451C22.9158 7.038 19.9151 6.36207 18.6706 2.61459C17.8883 0.255438 16.4787 0.000305176 15.9076 0.000305176L15.9109 0.00361633ZM8.9324 10.7789C8.9324 10.368 8.59899 10.0333 8.18965 10.0333C7.64167 10.0333 7.19603 9.58602 7.19603 9.03931C7.19603 8.49259 7.64167 8.04197 8.18965 8.04197H15.353C15.6402 8.04197 15.901 7.8763 16.0231 7.61454C16.1453 7.35278 16.109 7.04463 15.9241 6.82263C14.7258 5.36473 14.8843 2.83327 14.8843 2.80677C14.8843 2.76038 14.8843 2.71399 14.881 2.6676C14.8513 2.40585 14.9602 2.10764 15.1715 1.86907C15.3794 1.63713 15.6534 1.49797 15.9076 1.49797C16.4325 1.49797 16.9243 2.07782 17.2611 3.09504C18.4428 6.65365 20.988 7.94588 22.15 8.36005V20.4805H8.69142C8.14344 20.4805 7.70109 20.0332 7.70109 19.4865C7.70109 18.9398 8.14674 18.4925 8.69142 18.4925C9.10076 18.4925 9.43417 18.1578 9.43417 17.747C9.43417 17.3361 9.10076 17.0014 8.69142 17.0014H8.18965C7.64167 17.0014 7.19603 16.5541 7.19603 16.0041C7.19603 15.4541 7.64167 15.0101 8.18965 15.0101C8.59899 15.0101 8.9324 14.6754 8.9324 14.2646C8.9324 13.8537 8.59899 13.519 8.18965 13.519H7.28515C6.73717 13.519 6.29153 13.0717 6.29153 12.5217C6.29153 11.9717 6.73717 11.5277 7.28515 11.5277H8.18965C8.59899 11.5277 8.9324 11.193 8.9324 10.7822V10.7789Z" fill="#1E2124"/>
<path d="M28.2931 21.2252H22.7935V6.48714H28.2931V21.2252Z" fill="white"/>
<path d="M28.2934 5.74171H22.7938C22.3844 5.74171 22.051 6.07637 22.051 6.48723V21.2253C22.051 21.6362 22.3844 21.9708 22.7938 21.9708H28.2934C28.4915 21.9708 28.6796 21.8913 28.8183 21.7521C28.9569 21.613 29.0361 21.4241 29.0361 21.2253V6.48723C29.0361 6.07637 28.7027 5.74171 28.2934 5.74171ZM23.5365 7.23275H27.5506V20.4798H23.5365V7.23275Z" fill="#1E2124"/>
<path d="M28.3965 21.1614V6.68483H22.8286V21.1614" fill="#256EF4"/>
<path d="M28.2934 5.73995H22.7938C22.3844 5.73995 22.051 6.0746 22.051 6.48547L22.051 20.6909C22.051 21.1017 22.3844 21.4364 22.7938 21.4364C23.2031 21.4364 23.5365 21.1017 23.5365 20.6909L23.5365 7.23098H27.5506L27.5506 20.6909C27.5506 21.1017 27.8841 21.4364 28.2934 21.4364C28.7027 21.4364 29.0361 21.1017 29.0361 20.6909L29.0361 6.48547C29.0361 6.0746 28.7027 5.73995 28.2934 5.73995Z" fill="#1E2124"/>
<path d="M26.5074 18.5612C26.5074 19.0979 26.075 19.532 25.5402 19.532C25.0054 19.532 24.573 19.0979 24.573 18.5612C24.573 18.0244 25.0054 17.5903 25.5402 17.5903C26.075 17.5903 26.5074 18.0244 26.5074 18.5612Z" fill="white"/>
</svg>
