<?xml version="1.0" encoding="utf-8"?>
<!-- Generator: Adobe Illustrator 26.0.1, SVG Export Plug-In . SVG Version: 6.00 Build 0)  -->
<svg version="1.1" id="Layer_1" xmlns="http://www.w3.org/2000/svg" xmlns:xlink="http://www.w3.org/1999/xlink" x="0px" y="0px"
	 viewBox="0 0 18.6 38" style="enable-background:new 0 0 18.6 38;" xml:space="preserve">
<style type="text/css">
	.st0{fill:#9E9E9E;}
	.st1{fill:#151515;}
</style>
<g transform="translate(-3.75 -2.157)">
	<path class="st0" d="M19.7,21.2H6.4c-1.5,0-2.6-1.2-2.7-2.6v-3.8h1.5v3.8c0,0.6,0.5,1.1,1.2,1.1h13.3c0.6,0,1.1-0.5,1.1-1.1v-3.8
		h1.5v3.8C22.3,20,21.1,21.2,19.7,21.2z"/>
	<g transform="translate(5.356 2.907)">
		<path class="st0" d="M6.7,0.2l1.5,0v14l-1.5,0V0.2z"/>
		<path class="st0" d="M-0.5,7.3l1.1-1.1l7,7l7-7l1.1,1.1L8,14.8c-0.3,0.3-0.8,0.3-1.1,0L-0.5,7.3z"/>
	</g>
</g>
<g transform="translate(-3.75 -2.157)">
	<path class="st1" d="M19.7,40.2H6.4c-1.5,0-2.6-1.2-2.7-2.6v-3.8h1.5v3.8c0,0.6,0.5,1.1,1.2,1.1h13.3c0.6,0,1.1-0.5,1.1-1.1v-3.8
		h1.5v3.8C22.3,39,21.1,40.2,19.7,40.2z"/>
	<g transform="translate(5.356 2.907)">
		<path class="st1" d="M6.7,19.2l1.5,0v14l-1.5,0V19.2z"/>
		<path class="st1" d="M-0.5,26.3l1.1-1.1l7,7l7-7l1.1,1.1L8,33.8c-0.3,0.3-0.8,0.3-1.1,0L-0.5,26.3z"/>
	</g>
</g>
</svg>
