<?xml version="1.0" encoding="utf-8"?>
<!-- Generator: Adobe Illustrator 16.0.0, SVG Export Plug-In . SVG Version: 6.00 Build 0)  -->
<!DOCTYPE svg PUBLIC "-//W3C//DTD SVG 1.1//EN" "http://www.w3.org/Graphics/SVG/1.1/DTD/svg11.dtd">
<svg version="1.1" id="레이어_1" xmlns="http://www.w3.org/2000/svg" xmlns:xlink="http://www.w3.org/1999/xlink" x="0px"
	 y="0px" width="34px" height="34px" viewBox="3 3 34 34" enable-background="new 3 3 34 34" xml:space="preserve">
<g>
	<g>
		<path d="M29.582,14.842c-0.229-0.921-0.908-1.647-1.77-1.894C26.254,12.5,20,12.5,20,12.5s-6.254,0-7.813,0.448
			c-0.86,0.247-1.539,0.973-1.769,1.894C10,16.514,10,20,10,20s0,3.486,0.418,5.158c0.229,0.922,0.908,1.646,1.769,1.895
			C13.747,27.5,20,27.5,20,27.5s6.254,0,7.813-0.447c0.86-0.246,1.539-0.973,1.771-1.895C30,23.486,30,20,30,20
			S30,16.514,29.582,14.842z M18,22.5v-5l5,2.5L18,22.5z"/>
	</g>
</g>
</svg>
