<?xml version="1.0" encoding="utf-8"?>
<!-- Generator: Adobe Illustrator 16.0.0, SVG Export Plug-In . SVG Version: 6.00 Build 0)  -->
<!DOCTYPE svg PUBLIC "-//W3C//DTD SVG 1.1//EN" "http://www.w3.org/Graphics/SVG/1.1/DTD/svg11.dtd">
<svg version="1.1" id="레이어_1" xmlns="http://www.w3.org/2000/svg" xmlns:xlink="http://www.w3.org/1999/xlink" x="0px"
	 y="0px" width="34px" height="34px" viewBox="1 1 34 34" enable-background="new 1 1 34 34" xml:space="preserve">
<path id="Initiator" d="M28,18.038C28,12.495,23.521,8,18,8C12.477,8,8,12.495,8,18.038c0,4.708,3.229,8.656,7.584,9.74v-6.674
	h-2.062v-3.066h2.062v-1.322c0-3.416,1.541-4.999,4.883-4.999c0.633,0,1.727,0.125,2.174,0.249v2.78
	c-0.236-0.025-0.646-0.037-1.156-0.037c-1.639,0-2.271,0.623-2.271,2.244v1.084h3.269l-0.563,3.067h-2.705V28
	C24.163,27.4,28,23.168,28,18.038L28,18.038z"/>
</svg>
