<svg width="114" height="32" viewBox="0 0 114 32" fill="none" xmlns="http://www.w3.org/2000/svg">
<path d="M9.96992 5.49639C13.0809 5.49641 15.6368 6.55465 17.3556 8.54823C18.8253 10.2506 19.4786 12.9093 19.4786 16.6339C19.4785 23.2501 17.0124 26.605 12.1502 26.6051C11.1704 26.6051 10.2356 26.4819 8.87218 25.8873V22.8977C8.94951 22.9099 9.03093 22.9091 9.11231 22.9091C11.0107 22.9091 12.3955 21.4535 12.7384 20.0835L12.7626 19.9805C13.0647 18.7582 13.2809 17.8716 13.2809 16.0012C13.2809 14.2623 13.0809 12.9253 12.9176 12.3141C12.4889 10.5708 11.1702 9.4872 9.47187 9.48715C9.04345 9.48715 8.6352 9.55298 8.25978 9.68409L7.83033 9.8734C7.72442 9.92662 7.62242 9.9878 7.51651 10.0614C6.28373 10.9268 6.10734 12.248 6.09097 12.7855V27.2213L0 31.5564V15.1614C0 11.8797 0.547065 9.75013 1.78003 8.26108C3.29873 6.42346 5.95645 5.52048 9.90004 5.50401H9.96992V5.49639ZM44.4079 5.53705C50.6785 5.53732 54.2749 9.65634 54.2749 16.8347C54.2748 20.9484 53.6425 23.3973 52.2179 24.7756C50.8217 26.1292 48.5064 26.7042 44.4689 26.7042C40.178 26.7042 35.058 25.5426 35.058 20.0212C35.058 18.5609 35.4913 17.3593 36.3527 16.4446C37.6673 15.05 40.0472 14.2822 43.056 14.2822C43.6398 14.2822 44.2486 14.3111 44.8691 14.3686V16.4891C44.6855 16.4768 44.5056 16.4726 44.3139 16.4726C42.0686 16.4726 40.782 17.7692 40.7818 20.025C40.7818 20.8167 41.0146 23.3968 44.0394 23.397C45.7991 23.397 47.6935 22.3878 47.6935 20.1686V12.5962C47.6934 12.4989 47.6606 10.4094 45.1588 9.51256L45.1016 9.49097C44.1422 9.1505 43.1494 9.10218 42.6431 9.10218C40.8307 9.10222 39.0019 9.36012 36.9079 9.91787V6.5179C39.0308 5.84523 41.3501 5.54086 44.4079 5.54086V5.53705ZM30.4358 26.2938H24.0958V4.95895L30.4358 0.447266V26.2938ZM68.491 5.53705C71.6059 5.53708 74.0028 6.14403 75.6073 7.33359C77.3176 8.60105 78.1457 10.5291 78.1458 13.2238V26.2773H71.9608V13.3674C71.9606 11.0583 70.6953 9.67657 68.491 9.67646C66.2865 9.67646 65.02 11.0213 65.0199 13.3674V26.2735H58.8971V13.22C58.8972 7.97771 61.9466 5.53705 68.491 5.53705Z" fill="#61676B"/>
<path d="M98.4612 0.387695C107.043 0.387695 114 7.3775 114 16C114 24.6223 107.043 31.6123 98.4612 31.6123C89.8798 31.6121 82.9233 24.6222 82.9231 16C82.9231 7.37765 89.8797 0.387941 98.4612 0.387695ZM91.3655 5.89648L95.1868 8.61621V23.3828L91.3655 26.1025H105.557L101.736 23.3828V8.61621L105.557 5.89648H91.3655Z" fill="#0095FF"/>
</svg>
