<svg width="56" height="56" viewBox="0 0 56 56" fill="none" xmlns="http://www.w3.org/2000/svg">
<path d="M54.1814 54.6973H1.8725C1.32387 54.6973 0.875 54.2485 0.875 53.6998V12.2138C0.875 11.6652 1.32387 11.2163 1.8725 11.2163H54.1814C54.73 11.2163 55.1789 11.6652 55.1789 12.2138V53.6998C55.1789 54.2485 54.73 54.6973 54.1814 54.6973ZM2.86501 52.7023H53.1789V13.2113H2.86501V52.7023Z" fill="#1E2124"/>
<path d="M53.5031 24.0341H2.54578C1.99715 24.0341 1.54828 23.5852 1.54828 23.0366C1.54828 22.4879 1.99715 22.0391 2.54578 22.0391H53.5031C54.0517 22.0391 54.5006 22.4879 54.5006 23.0366C54.5006 23.5852 54.0517 24.0341 53.5031 24.0341Z" fill="#1E2124"/>
<path d="M41.5531 11.8596C41.0045 11.8596 40.5556 11.4108 40.5556 10.8621C40.5556 6.93698 37.3636 3.745 33.4334 3.745H22.6106C18.6854 3.745 15.4934 6.93698 15.4934 10.8621C15.4934 11.4108 15.0445 11.8596 14.4959 11.8596C13.9473 11.8596 13.4984 11.4108 13.4984 10.8621C13.4984 5.83474 17.5882 1.75 22.6106 1.75H33.4334C38.4608 1.75 42.5506 5.83973 42.5506 10.8621C42.5506 11.4108 42.1017 11.8596 41.5531 11.8596Z" fill="#1E2124"/>
<path d="M30.396 29.1616H25.6579V47.2214H30.396V29.1616Z" fill="#388EEB"/>
<path d="M37.0543 35.8203H18.9946V40.5584H37.0543V35.8203Z" fill="#388EEB"/>
</svg>
