<svg width="56" height="56" viewBox="0 0 56 56" fill="none" xmlns="http://www.w3.org/2000/svg">
<path d="M34.505 3.5C32.46 3.5 30.8 5.16 30.8 7.205V12.365H38.215V7.205C38.215 5.155 36.555 3.5 34.505 3.5Z" fill="#388EEB"/>
<path d="M54.44 48.6652H2C1.45 48.6652 1 48.2152 1 47.6652V11.9902C1 11.4402 1.45 10.9902 2 10.9902H41.115C41.42 10.9902 41.71 11.1302 41.9 11.3702L55.225 28.1952C55.365 28.3702 55.44 28.5902 55.44 28.8152V47.6652C55.44 48.2152 54.99 48.6652 54.44 48.6652ZM3 46.6652H53.44V29.1602L40.63 12.9852H3V46.6602V46.6652Z" fill="#1E2124"/>
<path d="M53.365 31.4802H41.115C40.565 31.4802 40.115 31.0302 40.115 30.4802V18.0052C40.115 17.7402 40.22 17.4852 40.41 17.3002L42.99 14.7202C43.38 14.3302 44.015 14.3302 44.405 14.7202C44.795 15.1102 44.795 15.7452 44.405 16.1352L42.12 18.4202V29.4802H53.37C53.92 29.4802 54.37 29.9302 54.37 30.4802C54.37 31.0302 53.92 31.4802 53.37 31.4802H53.365Z" fill="#1E2124"/>
<path d="M18.225 47.6651C18.225 45.3501 16.35 43.4751 14.035 43.4751C11.72 43.4751 9.845 45.3501 9.845 47.6651C9.845 49.9801 11.72 51.8551 14.035 51.8551C16.35 51.8551 18.225 49.9801 18.225 47.6651Z" fill="#388EEB"/>
<path d="M14.035 52.8551C11.175 52.8551 8.845 50.5251 8.845 47.6651C8.845 44.8051 11.175 42.4751 14.035 42.4751C16.895 42.4751 19.225 44.8051 19.225 47.6651C19.225 50.5251 16.895 52.8551 14.035 52.8551ZM14.035 44.4751C12.275 44.4751 10.845 45.9051 10.845 47.6651C10.845 49.4251 12.275 50.8551 14.035 50.8551C15.795 50.8551 17.225 49.4251 17.225 47.6651C17.225 45.9051 15.795 44.4751 14.035 44.4751Z" fill="#388EEB"/>
<path d="M46.595 47.6651C46.595 45.3501 44.72 43.4751 42.405 43.4751C40.09 43.4751 38.215 45.3501 38.215 47.6651C38.215 49.9801 40.09 51.8551 42.405 51.8551C44.72 51.8551 46.595 49.9801 46.595 47.6651Z" fill="#388EEB"/>
<path d="M42.405 52.8551C39.545 52.8551 37.215 50.5251 37.215 47.6651C37.215 44.8051 39.545 42.4751 42.405 42.4751C45.265 42.4751 47.595 44.8051 47.595 47.6651C47.595 50.5251 45.265 52.8551 42.405 52.8551ZM42.405 44.4751C40.645 44.4751 39.215 45.9051 39.215 47.6651C39.215 49.4251 40.645 50.8551 42.405 50.8551C44.165 50.8551 45.595 49.4251 45.595 47.6651C45.595 45.9051 44.165 44.4751 42.405 44.4751Z" fill="#388EEB"/>
<path d="M23.545 20.1899H19.28V36.4399H23.545V20.1899Z" fill="#388EEB"/>
<path d="M23.545 37.4399H19.28C18.73 37.4399 18.28 36.9899 18.28 36.4399V20.1899C18.28 19.6399 18.73 19.1899 19.28 19.1899H23.545C24.095 19.1899 24.545 19.6399 24.545 20.1899V36.4399C24.545 36.9899 24.095 37.4399 23.545 37.4399ZM20.28 35.4399H22.545V21.1899H20.28V35.4399Z" fill="#388EEB"/>
<path d="M29.535 26.1802H13.285V30.4452H29.535V26.1802Z" fill="#388EEB"/>
<path d="M29.54 31.4452H13.285C12.735 31.4452 12.285 30.9952 12.285 30.4452V26.1802C12.285 25.6302 12.735 25.1802 13.285 25.1802H29.535C30.085 25.1802 30.535 25.6302 30.535 26.1802V30.4452C30.535 30.9952 30.085 31.4452 29.535 31.4452H29.54ZM14.285 29.4452H28.535V27.1802H14.285V29.4452Z" fill="#388EEB"/>
</svg>
