<svg width="56" height="56" viewBox="0 0 56 56" fill="none" xmlns="http://www.w3.org/2000/svg">
<path d="M17.598 33.2786L6.66541 26.356V39.4282H49.3933V33.2786H17.598Z" fill="#388EEB"/>
<path d="M5.92235 54.0014C3.13932 54.0014 0.875 51.7371 0.875 48.9541C0.875 46.1711 3.13932 43.9067 5.92235 43.9067C8.70537 43.9067 10.9697 46.1711 10.9697 48.9541C10.9697 51.7371 8.70537 54.0014 5.92235 54.0014ZM5.92235 45.9017C4.24156 45.9017 2.87 47.2733 2.87 48.9541C2.87 50.6349 4.24156 52.0064 5.92235 52.0064C7.60314 52.0064 8.9747 50.6349 8.9747 48.9541C8.9747 47.2733 7.60314 45.9017 5.92235 45.9017Z" fill="#1E2124"/>
<path d="M5.9223 45.2235C5.37368 45.2235 4.9248 44.7747 4.9248 44.226V16.2162C4.9248 15.6676 5.37368 15.2188 5.9223 15.2188C6.47093 15.2188 6.9198 15.6676 6.9198 16.2162V44.226C6.9198 44.7747 6.47093 45.2235 5.9223 45.2235Z" fill="#1E2124"/>
<path d="M50.1366 54.0014C47.3536 54.0014 45.0892 51.7371 45.0892 48.9541C45.0892 46.1711 47.3536 43.9067 50.1366 43.9067C52.9196 43.9067 55.1839 46.1711 55.1839 48.9541C55.1839 51.7371 52.9196 54.0014 50.1366 54.0014ZM50.1366 45.9017C48.4558 45.9017 47.0842 47.2733 47.0842 48.9541C47.0842 50.6349 48.4558 52.0064 50.1366 52.0064C51.8174 52.0064 53.1889 50.6349 53.1889 48.9541C53.1889 47.2733 51.8174 45.9017 50.1366 45.9017Z" fill="#1E2124"/>
<path d="M50.1365 45.2235C49.5879 45.2235 49.139 44.7746 49.139 44.226V24.9892C49.139 24.4406 49.5879 23.9917 50.1365 23.9917C50.6852 23.9917 51.134 24.4406 51.134 24.9892V44.226C51.134 44.7746 50.6852 45.2235 50.1365 45.2235Z" fill="#1E2124"/>
<path d="M48.9544 41.1737H7.10431C6.55569 41.1737 6.10681 40.7248 6.10681 40.1762C6.10681 39.6276 6.55569 39.1787 7.10431 39.1787H48.9544C49.5031 39.1787 49.9519 39.6276 49.9519 40.1762C49.9519 40.7248 49.5031 41.1737 48.9544 41.1737Z" fill="#1E2124"/>
<path d="M19.4883 30.5305C18.9896 31.2437 18.002 31.4183 17.2888 30.9145L9.94223 25.7574C9.22901 25.2537 9.05445 24.2712 9.55819 23.558C10.0569 22.8447 11.0445 22.6702 11.7577 23.1739L19.1043 28.331C19.8175 28.8347 19.992 29.8173 19.4883 30.5305Z" fill="#388EEB"/>
<path d="M45.7126 14.8244C45.7126 8.08629 40.2513 2.625 33.5131 2.625C26.775 2.625 21.3137 8.08629 21.3137 14.8244C21.3137 21.5625 26.775 27.0238 33.5131 27.0238C40.2513 27.0238 45.7126 21.5625 45.7126 14.8244Z" fill="#388EEB"/>
<path d="M39.375 13.184H35.5561V9.35986H31.5539V13.184H27.735V17.1862H31.5539V21.0051H35.5561V17.1862H39.375V13.184Z" fill="white"/>
</svg>
