<svg width="56" height="56" viewBox="0 0 56 56" fill="none" xmlns="http://www.w3.org/2000/svg">
<path d="M39.815 55.4399H16.195C15.645 55.4399 15.195 54.9899 15.195 54.4399V18.6699C15.195 18.1199 15.645 17.6699 16.195 17.6699H39.81C40.36 17.6699 40.81 18.1199 40.81 18.6699V54.4399C40.81 54.9899 40.36 55.4399 39.81 55.4399H39.815ZM17.195 53.4399H38.81V19.6699H17.195V53.4399Z" fill="#1E2124"/>
<path d="M37.46 19.67H18.55C18 19.67 17.55 19.22 17.55 18.67V2C17.55 1.45 18 1 18.55 1H37.46C38.01 1 38.46 1.45 38.46 2V18.67C38.46 19.22 38.01 19.67 37.46 19.67ZM19.55 17.67H36.46V3H19.55V17.67Z" fill="#1E2124"/>
<path d="M33.56 8.60019H29.915V4.9502H26.095V8.60019H22.45V12.4202H26.095V16.0652H29.915V12.4202H33.56V8.60019Z" fill="#388EEB"/>
<path d="M33.03 55.4402H22.98C22.43 55.4402 21.98 54.9902 21.98 54.4402V39.2202C21.98 38.6702 22.43 38.2202 22.98 38.2202H33.03C33.58 38.2202 34.03 38.6702 34.03 39.2202V54.4402C34.03 54.9902 33.58 55.4402 33.03 55.4402ZM23.98 53.4402H32.03V40.2202H23.98V53.4402Z" fill="#1E2124"/>
<path d="M15.675 55.4402H3C2.45 55.4402 2 54.9902 2 54.4402V25.0952C2 24.5452 2.45 24.0952 3 24.0952H15.155C15.705 24.0952 16.155 24.5452 16.155 25.0952C16.155 25.6452 15.705 26.0952 15.155 26.0952H4V53.4402H15.675C16.225 53.4402 16.675 53.8902 16.675 54.4402C16.675 54.9902 16.225 55.4402 15.675 55.4402Z" fill="#1E2124"/>
<path d="M53.01 55.4402H40.335C39.785 55.4402 39.335 54.9902 39.335 54.4402C39.335 53.8902 39.785 53.4402 40.335 53.4402H52.01V26.0952H40.855C40.305 26.0952 39.855 25.6452 39.855 25.0952C39.855 24.5452 40.305 24.0952 40.855 24.0952H53.01C53.56 24.0952 54.01 24.5452 54.01 25.0952V54.4402C54.01 54.9902 53.56 55.4402 53.01 55.4402Z" fill="#1E2124"/>
<path d="M15.005 49.3853H8.17C7.62 49.3853 7.17 48.9353 7.17 48.3853C7.17 47.8353 7.62 47.3853 8.17 47.3853H15.005C15.555 47.3853 16.005 47.8353 16.005 48.3853C16.005 48.9353 15.555 49.3853 15.005 49.3853Z" fill="#1E2124"/>
<path d="M15.005 44.0552H8.17C7.62 44.0552 7.17 43.6052 7.17 43.0552C7.17 42.5052 7.62 42.0552 8.17 42.0552H15.005C15.555 42.0552 16.005 42.5052 16.005 43.0552C16.005 43.6052 15.555 44.0552 15.005 44.0552Z" fill="#1E2124"/>
<path d="M15.005 38.7202H8.17C7.62 38.7202 7.17 38.2702 7.17 37.7202C7.17 37.1702 7.62 36.7202 8.17 36.7202H15.005C15.555 36.7202 16.005 37.1702 16.005 37.7202C16.005 38.2702 15.555 38.7202 15.005 38.7202Z" fill="#1E2124"/>
<path d="M15.005 33.3901H8.17C7.62 33.3901 7.17 32.9401 7.17 32.3901C7.17 31.8401 7.62 31.3901 8.17 31.3901H15.005C15.555 31.3901 16.005 31.8401 16.005 32.3901C16.005 32.9401 15.555 33.3901 15.005 33.3901Z" fill="#1E2124"/>
<path d="M47.84 49.3853H41.005C40.455 49.3853 40.005 48.9353 40.005 48.3853C40.005 47.8353 40.455 47.3853 41.005 47.3853H47.84C48.39 47.3853 48.84 47.8353 48.84 48.3853C48.84 48.9353 48.39 49.3853 47.84 49.3853Z" fill="#1E2124"/>
<path d="M47.84 44.0552H41.005C40.455 44.0552 40.005 43.6052 40.005 43.0552C40.005 42.5052 40.455 42.0552 41.005 42.0552H47.84C48.39 42.0552 48.84 42.5052 48.84 43.0552C48.84 43.6052 48.39 44.0552 47.84 44.0552Z" fill="#1E2124"/>
<path d="M47.84 38.7202H41.005C40.455 38.7202 40.005 38.2702 40.005 37.7202C40.005 37.1702 40.455 36.7202 41.005 36.7202H47.84C48.39 36.7202 48.84 37.1702 48.84 37.7202C48.84 38.2702 48.39 38.7202 47.84 38.7202Z" fill="#1E2124"/>
<path d="M47.84 33.3901H41.005C40.455 33.3901 40.005 32.9401 40.005 32.3901C40.005 31.8401 40.455 31.3901 41.005 31.3901H47.84C48.39 31.3901 48.84 31.8401 48.84 32.3901C48.84 32.9401 48.39 33.3901 47.84 33.3901Z" fill="#1E2124"/>
</svg>
