<svg width="56" height="56" viewBox="0 0 56 56" fill="none" xmlns="http://www.w3.org/2000/svg">
<path d="M3.11848 55.179C2.85414 55.179 2.59978 55.0743 2.41524 54.8847C2.19579 54.6653 2.09106 54.3511 2.13096 54.0468L4.01623 40.2265C4.04616 40.012 4.14591 39.8125 4.30052 39.6579L38.5098 5.44363C38.8838 5.06957 39.5472 5.06957 39.9212 5.44363L51.8563 17.3787C52.2454 17.7677 52.2454 18.4012 51.8563 18.7902L17.6421 52.9995C17.4875 53.1541 17.288 53.2538 17.0735 53.2837L3.25314 55.169C3.20826 55.174 3.16337 55.179 3.11848 55.179ZM5.94639 40.8299L4.28556 53.0194L16.475 51.3586L49.7416 18.082L39.218 7.55833L5.94639 40.8299Z" fill="#1E2124"/>
<path d="M49.9956 16.6707C49.7413 16.6707 49.4869 16.5709 49.2924 16.3764C48.9034 15.9874 48.9034 15.354 49.2924 14.9649L52.7737 11.4837L45.8161 4.5261L42.3348 8.00737C41.9458 8.3964 41.3124 8.3964 40.9234 8.00737C40.5343 7.61835 40.5343 6.98494 40.9234 6.59591L45.1079 2.4114C45.4969 2.02237 46.1303 2.02237 46.5193 2.4114L54.8884 10.7804C55.2774 11.1694 55.2774 11.8029 54.8884 12.1919L50.7038 16.3764C50.5093 16.5709 50.255 16.6707 50.0006 16.6707H49.9956Z" fill="#1E2124"/>
<path d="M16.9281 52.4608C16.6738 52.4608 16.4194 52.361 16.2249 52.1665L5.13271 41.0743C4.74369 40.6853 4.74369 40.0519 5.13271 39.6629C5.52174 39.2738 6.15515 39.2738 6.54417 39.6629L17.6364 50.7551C18.0254 51.1441 18.0254 51.7775 17.6364 52.1665C17.4419 52.361 17.1875 52.4608 16.9331 52.4608H16.9281Z" fill="#1E2124"/>
<path d="M36.0553 41.4385C35.8009 41.4385 35.5466 41.3388 35.352 41.1442C34.963 40.7552 34.963 40.1218 35.352 39.7328L48.4592 26.6256L32.4194 10.5958C32.0304 10.2068 32.0304 9.57337 32.4194 9.18435C32.8084 8.79532 33.4418 8.79532 33.8309 9.18435L50.5689 25.9224C50.9579 26.3114 50.9579 26.9448 50.5689 27.3339L36.7585 41.1442C36.564 41.3388 36.3096 41.4385 36.0553 41.4385Z" fill="#1E2124"/>
<path d="M9.66546 29.4883H1.87C1.32137 29.4883 0.872498 29.0394 0.872498 28.4908V1.8725C0.872498 1.32388 1.32137 0.875 1.87 0.875H28.4833C29.0319 0.875 29.4808 1.32388 29.4808 1.8725V9.66796C29.4808 10.2166 29.0319 10.6655 28.4833 10.6655C27.9347 10.6655 27.4858 10.2166 27.4858 9.66796V2.87H2.8675V27.4933H9.66546C10.2141 27.4933 10.663 27.9422 10.663 28.4908C10.663 29.0394 10.2141 29.4883 9.66546 29.4883Z" fill="#1E2124"/>
<path d="M11.851 23.9223L5.56177 17.638L8.14529 15.0545L11.851 18.7652L22.5592 8.06201L25.1377 10.6405L11.851 23.9223Z" fill="#388EEB"/>
</svg>
