<svg width="40" height="40" viewBox="0 0 40 40" fill="none" xmlns="http://www.w3.org/2000/svg">
<g clip-path="url(#clip0_2471_4633)">
<path d="M28.7799 12.7356C24.2391 8.19181 16.8722 8.19181 12.3314 12.7356C7.79058 17.2794 7.79058 24.6474 12.3314 29.1949C16.8722 33.7387 24.2391 33.7387 28.7799 29.1949C33.3207 24.6512 33.3207 17.2832 28.7799 12.7356Z" fill="white"/>
<path d="M20.5556 33.4577C17.2211 33.4577 14.0877 32.1595 11.7282 29.7984C6.86112 24.9282 6.86112 17.0022 11.7282 12.132C14.0877 9.77088 17.2211 8.47266 20.5556 8.47266C23.89 8.47266 27.0234 9.77088 29.383 12.132C31.7425 14.4893 33.0399 17.6285 33.0399 20.9652C33.0399 24.3019 31.7425 27.4373 29.383 29.7984C27.0234 32.1595 23.89 33.4577 20.5556 33.4577ZM20.5556 10.1808C17.6763 10.1808 14.9716 11.3045 12.9345 13.3391C8.73131 17.545 8.73131 24.3854 12.9345 28.5913C14.9716 30.6297 17.6763 31.7496 20.5556 31.7496C23.4348 31.7496 26.1396 30.6297 28.1767 28.5913C32.3798 24.3854 32.3798 17.545 28.1767 13.3391C26.1396 11.3007 23.4348 10.1808 20.5556 10.1808Z" fill="#1E2124"/>
<path d="M26.3445 15.1764C23.1466 11.9764 17.9647 11.9764 14.7706 15.1764C11.5765 18.3764 11.5765 23.5579 14.7706 26.7579C17.9647 29.9579 23.1466 29.9579 26.3445 26.7579C29.5424 23.5579 29.5424 18.3764 26.3445 15.1764Z" fill="white"/>
<path d="M20.5556 30.011C18.143 30.011 15.8707 29.0696 14.1636 27.3614C10.6395 23.835 10.6395 18.0993 14.1636 14.5728C15.8707 12.8646 18.1392 11.9232 20.5556 11.9232C22.9721 11.9232 25.2406 12.8646 26.9476 14.5728C30.4718 18.0993 30.4718 23.835 26.9476 27.3614C25.2406 29.0696 22.9721 30.011 20.5556 30.011ZM20.5556 13.6314C18.5982 13.6314 16.7584 14.3944 15.3737 15.7799C12.5172 18.6383 12.5172 23.2922 15.3737 26.1543C16.7584 27.5398 18.5982 28.3028 20.5556 28.3028C22.5131 28.3028 24.3529 27.5398 25.7413 26.1543C28.5978 23.296 28.5978 18.6421 25.7413 15.7799C24.3567 14.3944 22.5168 13.6314 20.5556 13.6314Z" fill="#256EF4"/>
<path d="M32.0546 29.2708L28.8572 32.4703L35.5578 39.1754L38.7552 35.9758L32.0546 29.2708Z" fill="white"/>
<path d="M35.555 40.0324C35.3274 40.0324 35.1112 39.9413 34.9518 39.7819L28.2526 33.0782C28.0932 32.9188 28.0022 32.7024 28.0022 32.4746C28.0022 32.2469 28.0932 32.0305 28.2526 31.8711L31.4505 28.6711C31.7843 28.337 32.323 28.337 32.6568 28.6711L39.3561 35.3748C39.5154 35.5342 39.6064 35.7506 39.6064 35.9783C39.6064 36.2061 39.5154 36.4224 39.3561 36.5819L36.1582 39.7819C35.9988 39.9413 35.7826 40.0324 35.555 40.0324ZM30.0621 32.4708L35.555 37.9674L37.5466 35.9745L32.0536 30.478L30.0621 32.4708Z" fill="#1E2124"/>
<path d="M31.4922 35.8113C31.2722 35.8113 31.056 35.7278 30.889 35.5608C30.5552 35.2267 30.5552 34.6877 30.889 34.3536L33.9352 31.3055C34.269 30.9714 34.8077 30.9714 35.1415 31.3055C35.4754 31.6395 35.4754 32.1785 35.1415 32.5126L32.0954 35.5608C31.9285 35.7278 31.7084 35.8113 31.4922 35.8113Z" fill="#1E2124"/>
<path d="M30.301 31.5711C30.081 31.5711 29.8647 31.4876 29.6978 31.3206L28.4801 30.1021C28.1463 29.768 28.1463 29.229 28.4801 28.8949C28.8139 28.5609 29.3526 28.5609 29.6864 28.8949L30.9041 30.1135C31.238 30.4475 31.238 30.9865 30.9041 31.3206C30.7372 31.4876 30.5172 31.5711 30.301 31.5711Z" fill="#1E2124"/>
<path d="M6.22005 31.4002C5.11615 30.2956 3.32563 30.2956 2.22172 31.4002C1.11782 32.5049 1.11782 34.2966 2.22172 35.4012C3.32563 36.5058 5.11615 36.5058 6.22005 35.4012C7.32395 34.2966 7.32395 32.5049 6.22005 31.4002Z" fill="white"/>
<path d="M4.22093 37.0828C3.23842 37.0828 2.31281 36.6994 1.61861 36.0048C0.924401 35.3101 0.54126 34.3839 0.54126 33.4007C0.54126 32.4176 0.924401 31.4913 1.61861 30.7967C2.31281 30.102 3.23842 29.7186 4.22093 29.7186C5.20344 29.7186 6.12905 30.102 6.82326 30.7967C8.25719 32.2316 8.25719 34.5699 6.82326 36.0048C6.12905 36.6994 5.20344 37.0828 4.22093 37.0828ZM4.22093 31.4268C3.69364 31.4268 3.20049 31.6318 2.82493 32.0038C2.45317 32.3758 2.24832 32.8731 2.24832 33.4007C2.24832 33.9284 2.45317 34.4256 2.82493 34.7976C3.19669 35.1696 3.69364 35.3746 4.22093 35.3746C4.74822 35.3746 5.24517 35.1696 5.61693 34.7976C6.38701 34.0271 6.38701 32.7744 5.61693 32.0038C5.24517 31.6318 4.74822 31.4268 4.22093 31.4268Z" fill="#1E2124"/>
<path d="M9.01974 2.98377C7.62753 1.27558 5.12004 1.02125 3.41298 2.41437C1.70591 3.8075 1.45175 6.31663 2.84396 8.02482C4.23616 9.73301 6.74365 9.98734 8.45072 8.59422C10.1578 7.20489 10.4119 4.69196 9.01974 2.98377Z" fill="white"/>
<path d="M5.93561 10.344C4.47512 10.344 3.10568 9.69494 2.18386 8.55994C1.36826 7.5578 0.988916 6.29754 1.12169 5.01071C1.25067 3.72387 1.87659 2.5661 2.87807 1.74997C3.73919 1.04771 4.82412 0.660522 5.93182 0.660522C7.3923 0.660522 8.76175 1.30963 9.68356 2.44083C10.4992 3.44297 10.8785 4.70323 10.7457 5.99007C10.6168 7.2769 9.99083 8.43467 8.98936 9.25081C8.12824 9.95306 7.0433 10.3403 5.93561 10.3403V10.344ZM5.93182 2.36871C5.20347 2.36871 4.52064 2.61165 3.95541 3.07476C3.30673 3.6024 2.90462 4.354 2.81737 5.18532C2.73391 6.01664 2.9767 6.83277 3.50399 7.48188C4.09957 8.21451 4.98724 8.63586 5.93182 8.63586C6.66016 8.63586 7.34299 8.39292 7.90822 7.92981C8.5569 7.40217 8.95901 6.65057 9.04626 5.81925C9.12971 4.98793 8.88693 4.1718 8.35964 3.52269C7.76406 2.79006 6.87639 2.36871 5.93182 2.36871Z" fill="#1E2124"/>
<path d="M17.1037 17.5868C16.8913 17.5868 16.6788 17.5071 16.5119 17.3476L8.02972 9.20906C7.6883 8.8826 7.67692 8.33978 8.00316 8.00194C8.3294 7.6603 8.86808 7.64891 9.20949 7.97537L17.6917 16.1139C18.0331 16.4404 18.0445 16.9832 17.7183 17.3211C17.5513 17.4957 17.3275 17.583 17.1037 17.583V17.5868Z" fill="#1E2124"/>
<path d="M6.79294 32.6264C6.53499 32.6264 6.28082 32.5125 6.11391 32.2924C5.8294 31.9166 5.89768 31.3813 6.27324 31.0966L16.0945 23.5806C16.4701 23.2921 17.005 23.3642 17.2895 23.74C17.574 24.1158 17.5057 24.6511 17.1302 24.9358L7.30886 32.4518C7.15332 32.5695 6.97124 32.6264 6.78915 32.6264H6.79294Z" fill="#1E2124"/>
<path d="M24.209 17.3096C22.1909 15.2902 18.9209 15.2902 16.9028 17.3096C14.8846 19.3291 14.8846 22.6012 16.9028 24.6207C18.9209 26.6401 22.1909 26.6401 24.209 24.6207C26.2271 22.6012 26.2271 19.3291 24.209 17.3096Z" fill="white"/>
<path d="M20.5557 26.9895C18.9473 26.9895 17.4375 26.3631 16.2995 25.2243C13.9513 22.8746 13.9513 19.0559 16.2995 16.7062C17.4375 15.5674 18.9473 14.941 20.5557 14.941C22.1642 14.941 23.674 15.5674 24.812 16.7062C27.1564 19.0559 27.1564 22.8746 24.812 25.2243C23.674 26.3631 22.1642 26.9895 20.5557 26.9895ZM20.5557 16.653C19.4025 16.653 18.3214 17.1009 17.5058 17.9171C15.8253 19.5987 15.8253 22.3356 17.5058 24.0172C18.3214 24.8333 19.4025 25.2813 20.5557 25.2813C21.7089 25.2813 22.7901 24.8333 23.6057 24.0172C25.2862 22.3356 25.2862 19.5987 23.6057 17.9171C22.7901 17.1009 21.7089 16.653 20.5557 16.653Z" fill="#1E2124"/>
<path d="M38.7529 1.70819H24.3377C23.8673 1.70819 23.4841 1.32479 23.4841 0.854094C23.4841 0.383393 23.8673 0 24.3377 0H38.7529C39.2233 0 39.6064 0.383393 39.6064 0.854094C39.6064 1.32479 39.2233 1.70819 38.7529 1.70819Z" fill="#1E2124"/>
<path d="M38.7529 6.89727H24.3377C23.8673 6.89727 23.4841 6.51388 23.4841 6.04318C23.4841 5.57248 23.8673 5.18909 24.3377 5.18909H38.7529C39.2233 5.18909 39.6064 5.57248 39.6064 6.04318C39.6064 6.51388 39.2233 6.89727 38.7529 6.89727Z" fill="#1E2124"/>
<path d="M38.753 12.0826H33.188C32.7176 12.0826 32.3345 11.6992 32.3345 11.2285C32.3345 10.7578 32.7176 10.3744 33.188 10.3744H38.753C39.2234 10.3744 39.6066 10.7578 39.6066 11.2285C39.6066 11.6992 39.2234 12.0826 38.753 12.0826Z" fill="#1E2124"/>
</g>
<defs>
<clipPath id="clip0_2471_4633">
<rect width="40" height="40" fill="white"/>
</clipPath>
</defs>
</svg>
