<?xml version="1.0" encoding="utf-8"?>
<!-- Generator: Adobe Illustrator 16.0.0, SVG Export Plug-In . SVG Version: 6.00 Build 0)  -->
<!DOCTYPE svg PUBLIC "-//W3C//DTD SVG 1.1//EN" "http://www.w3.org/Graphics/SVG/1.1/DTD/svg11.dtd">
<svg version="1.1" id="레이어_2" xmlns="http://www.w3.org/2000/svg" xmlns:xlink="http://www.w3.org/1999/xlink" x="0px"
	 y="0px" width="20px" height="20px" viewBox="0 0 20 20" enable-background="new 0 0 20 20" xml:space="preserve">
<g id="Rectangle_2419">
	<defs>
		<filter id="Adobe_OpacityMaskFilter" filterUnits="userSpaceOnUse" x="0.833" y="0.68" width="9.29" height="18.577">
			<feColorMatrix  type="matrix" values="1 0 0 0 0  0 1 0 0 0  0 0 1 0 0  0 0 0 1 0"/>
		</filter>
	</defs>
	<mask maskUnits="userSpaceOnUse" x="0.833" y="0.68" width="9.29" height="18.577" id="path-1-inside-1_3426_196668_2_">
		<path fill="#FFFFFF" filter="url(#Adobe_OpacityMaskFilter)" d="M10.123,17.93H3.487c-0.733,0-1.327-0.594-1.327-1.326V3.334
			c0-0.733,0.594-1.327,1.327-1.327h6.635L10.123,17.93L10.123,17.93z"/>
	</mask>
	<path mask="url(#path-1-inside-1_3426_196668_2_)" fill="#2D2D2D" d="M10.123,19.257H3.487c-1.465,0-2.654-1.188-2.654-2.653h2.654
		h6.635L10.123,19.257L10.123,19.257z M0.833,3.334c0-1.465,1.188-2.654,2.654-2.654h6.635v2.654H3.487H0.833z M10.123,2.008V17.93
		V2.008z M3.487,19.257c-1.465,0-2.654-1.188-2.654-2.653V3.334c0-1.465,1.188-2.654,2.654-2.654v2.654v13.27V19.257z"/>
</g>
<path fill="none" stroke="#2D2D2D" stroke-width="1.4" d="M6.75,10H18"/>
<path fill="none" stroke="#2D2D2D" stroke-width="1.2" d="M14.5,6.5L18,10l-3.5,3.5"/>
</svg>
