<svg xmlns="http://www.w3.org/2000/svg" width="18.75" height="20.611" viewBox="0 0 18.75 20.611"><g transform="translate(-3.5 -2)"><path d="M6.361,15.5H19.389a2.864,2.864,0,0,1,2.861,2.861v6.514a2.864,2.864,0,0,1-2.861,2.861H6.361A2.864,2.864,0,0,1,3.5,24.875V18.361A2.864,2.864,0,0,1,6.361,15.5ZM19.389,25.736a.862.862,0,0,0,.861-.861V18.361a.862.862,0,0,0-.861-.861H6.361a.862.862,0,0,0-.861.861v6.514a.862.862,0,0,0,.861.861Z" transform="translate(0 -5.125)" fill="#333"/><path d="M19.806,12.375a1,1,0,0,1-1-1V7.653a3.653,3.653,0,1,0-7.306,0v3.722a1,1,0,1,1-2,0V7.653a5.653,5.653,0,1,1,11.306,0v3.722A1,1,0,0,1,19.806,12.375Z" transform="translate(-2.278 0)" fill="#333"/></g></svg>