<?xml version="1.0" encoding="utf-8"?>
<!-- Generator: Adobe Illustrator 16.0.0, SVG Export Plug-In . SVG Version: 6.00 Build 0)  -->
<!DOCTYPE svg PUBLIC "-//W3C//DTD SVG 1.1//EN" "http://www.w3.org/Graphics/SVG/1.1/DTD/svg11.dtd">
<svg version="1.1" id="레이어_2_1_" xmlns="http://www.w3.org/2000/svg" xmlns:xlink="http://www.w3.org/1999/xlink" x="0px"
	 y="0px" width="34px" height="34px" viewBox="0 0 34 34" enable-background="new 0 0 34 34" xml:space="preserve">
<g id="레이어_2">
	<path fill="#003964" d="M22.474,16.496c-1.851-1.3-4.218-0.766-5.472,1.184c-1.029,1.627-2.604,1.831-3.216,1.831
		c-1.977,0-3.343-1.429-3.732-2.932c-0.015-0.013-0.015-0.026-0.015-0.026c-0.015-0.03-0.015-0.045-0.015-0.059
		C9.857,15.873,9.83,15.57,9.83,14.921c0-3.565,3.538-7.521,8.632-7.521s8.215,4.1,8.981,6.381
		c-0.016-0.044-0.025-0.088-0.041-0.129C25.925,9.191,21.816,6,17,6C10.93,6,6,11.068,6,17.331c0,5.6,3.912,10.394,9.356,10.394
		c4.331,0,7.24-2.512,8.563-5.964C24.66,19.872,24.145,17.663,22.474,16.496"/>
	<path fill="#ED1A3B" d="M27.514,13.997c-0.655-2.223-3.662-6.596-9.051-6.596c-5.096,0-8.647,3.956-8.647,7.52
		c0,0.65,0.042,0.952,0.209,1.574c-0.069-0.275-0.11-0.547-0.11-0.807c0-3.709,3.606-6.28,7.295-6.28
		c5.014,0,9.078,4.187,9.078,9.356c0,4.04-2.27,7.547-5.54,9.236C24.98,26.415,28,22.242,28,17.334
		C28.002,16.162,27.848,15.154,27.514,13.997"/>
</g>
</svg>
