<?xml version="1.0" encoding="utf-8"?>
<!-- Generator: Adobe Illustrator 16.0.0, SVG Export Plug-In . SVG Version: 6.00 Build 0)  -->
<!DOCTYPE svg PUBLIC "-//W3C//DTD SVG 1.1//EN" "http://www.w3.org/Graphics/SVG/1.1/DTD/svg11.dtd">
<svg version="1.1" id="레이어_1" xmlns="http://www.w3.org/2000/svg" xmlns:xlink="http://www.w3.org/1999/xlink" x="0px"
	 y="0px" width="34px" height="34px" viewBox="3 3 34 34" enable-background="new 3 3 34 34" xml:space="preserve">
<g id="Union">
	<path d="M14.366,18.642c-0.38,0-0.688,0.299-0.688,0.667s0.308,0.669,0.688,0.669s0.688-0.299,0.688-0.669
		S14.746,18.642,14.366,18.642z"/>
	<path d="M21.169,18.572c-0.409,0-0.742,0.322-0.742,0.72s0.333,0.72,0.742,0.72s0.741-0.322,0.741-0.72
		S21.578,18.572,21.169,18.572z"/>
	<path d="M24.999,19.292c0-0.388,0.325-0.704,0.725-0.704s0.726,0.315,0.726,0.704c0,0.388-0.326,0.703-0.726,0.703
		S24.999,19.68,24.999,19.292z"/>
	<path d="M12.678,12h14.65c1.477,0,2.676,1.163,2.676,2.597v8.437c0,1.434-1.199,2.596-2.676,2.596H22.2l-1.76,4.024
		c0,0-0.12,0.349-0.414,0.349c-0.292,0-0.414-0.349-0.414-0.349l-1.76-4.024h-5.174c-1.478,0-2.676-1.162-2.676-2.596v-8.437
		C10.002,13.163,11.2,12,12.678,12z M14.633,21.044c0,0,1.643-0.044,1.651-1.586h-0.001c0,0,0.222-1.803-1.55-1.963
		c0,0-0.813-0.008-1.095,0.458v-1.832c0,0-1.122,0.014-1.197,0.002v-0.002c-0.005,0.001,0,0.002,0,0.002v4.791h1.197v-0.279
		C13.639,20.635,13.998,21.044,14.633,21.044z M18.391,20.922v-3.279c0,0,0.134-1.603-1.736-1.677v1.145
		c0,0,0.565,0.123,0.565,0.565v3.246H18.391z M19.204,19.293c0,0.968,0.879,1.754,1.964,1.754c1.084,0,1.963-0.786,1.963-1.754
		c0-0.968-0.879-1.753-1.963-1.753C20.083,17.54,19.204,18.325,19.204,19.293z M25.857,22.713c1.744,0,1.727-1.666,1.727-1.666
		v-3.46h-1.188v0.351c-0.389-0.507-1.02-0.441-1.02-0.441c-1.602,0.114-1.635,1.545-1.635,1.545v0.523
		c0,1.381,1.457,1.482,1.457,1.482c1.029,0,1.172-0.444,1.172-0.444c0.008,1.097-0.725,1.03-0.725,1.03h-0.32v1.08H25.857z"/>
</g>
</svg>
