<svg width="476" height="90" viewBox="0 0 476 90" fill="none" xmlns="http://www.w3.org/2000/svg">
<path d="M44.5951 8.38794L6.18384 43.5228V74.5954C18.5509 87.0456 30.8656 84.3551 37.8351 81.0315C33.2761 77.6552 26.883 72.538 21.9571 67.4208C16.4548 61.6705 14.7255 54.0738 17.4504 47.4794C19.8086 41.8874 24.7868 38.4055 30.4463 38.4055H30.4988C33.9049 38.4055 38.7784 39.6189 43.8615 44.9999C44.5427 44.2613 45.2239 43.5755 45.9052 42.9952C47.4773 41.4653 51.5647 38.0362 57.329 35.926C61.5736 34.3961 67.2855 33.3938 73.7835 35.082L44.5951 8.38794Z" fill="#F8B616"/>
<path d="M64.6658 49.6945C63.3033 46.4765 60.4735 44.4718 57.277 44.4718C54.8664 44.4718 52.3511 45.6324 49.8882 47.7954C49.7834 47.9009 49.731 47.9536 49.731 47.9536C48.5781 48.956 47.4776 50.2221 46.4296 51.6465L43.9667 54.97L41.5037 51.6992C38.0451 47.1096 34.1673 44.6301 30.6039 44.6301C27.4074 44.6301 24.63 46.6875 23.2675 49.9583C22.5863 51.5937 20.857 57.2913 26.5165 63.1471C34.1673 71.0603 41.1369 75.7027 44.1239 77.5492C47.1108 75.7027 54.0804 71.0076 61.6264 63.0416C67.2335 57.133 65.4518 51.4355 64.7706 49.8001" fill="#EA609E"/>
<path d="M57.3287 35.9261C51.5644 38.0363 47.4769 41.4654 45.9049 42.9953C45.2236 43.5756 44.5424 44.2614 43.8612 45C38.7781 39.619 33.9046 38.4056 30.4984 38.4056H30.446C24.7341 38.4056 19.7559 41.9402 17.4501 47.5322C14.7252 54.1266 16.4021 61.7233 21.9568 67.4736C26.8826 72.5909 33.2758 77.7081 37.8348 81.0844C30.8653 84.408 18.5506 87.0985 6.18353 74.6483V43.5756L44.5424 8.38804L73.7308 35.0821C67.2328 33.3939 61.5209 34.3962 57.2763 35.9261M61.5209 62.9367C53.9749 70.9027 47.0053 75.6506 44.0184 77.4443C41.0314 75.6506 34.0094 70.9555 26.411 63.095C20.7515 57.2392 22.4808 51.4889 23.162 49.9062C24.5245 46.6354 27.3543 44.6307 30.4984 44.578C34.0618 44.578 37.9396 47.1102 41.3982 51.6471L43.8612 54.9179L46.3241 51.5944C47.4245 50.17 48.525 48.9039 49.6255 47.9015C49.6255 47.9015 49.7303 47.8488 49.7827 47.7433C52.2456 45.5803 54.7609 44.4725 57.1715 44.4197C60.3156 44.4197 63.1454 46.4244 64.5079 49.6424C65.1891 51.2251 66.9708 56.9754 61.3637 62.8839M44.5424 0L0 40.7268V90H6.18353V82.8253C13.2055 88.3118 20.1227 90 25.9918 90C28.6643 90 31.0749 89.6307 33.2234 89.1559C37.468 88.1536 41.0314 86.4127 43.5467 84.9355C46.2193 83.4056 56.7522 77.6553 65.9751 67.2098C71.425 61.4596 73.1019 53.8101 70.3246 47.2157C69.1193 44.3142 67.128 42.0457 64.7699 40.4631C69.9578 39.9355 76.1937 41.2544 82.9012 46.6354L83.0061 46.4771V87.6788H89.1896V40.7268L44.5424 0Z" fill="black"/>
<path d="M302.155 44.5782C311.168 38.6696 314.26 34.0272 314.574 30.1761V28.8572C314.207 24.9006 311.43 22.8432 309.019 22.5794C308.6 22.5794 308.233 22.5794 307.919 22.5794C305.089 22.5794 303.779 23.6872 302.207 25.4281C300.687 23.6872 299.325 22.5794 296.547 22.5794C296.181 22.5794 295.814 22.5794 295.447 22.5794C293.037 22.7904 290.207 24.8478 289.892 28.8572V30.1761C290.207 33.9744 293.299 38.6696 302.259 44.5782" fill="#EA609E"/>
<path d="M397.686 56.1848C398.105 56.343 398 56.3958 398.21 57.0288C398.367 57.6092 398.891 58.2422 398.472 58.6643C398.367 58.8753 397.738 59.0863 397.529 59.2446L397.109 59.9831C397.109 59.9831 396.585 59.8249 396.271 59.8776C395.747 59.8776 395.275 60.1414 394.908 59.8776C394.751 59.7721 394.594 59.0863 394.489 58.928C394.384 58.8225 394.804 58.6115 394.751 58.4532C394.751 58.2422 394.332 57.9784 394.437 57.7674C394.542 57.5564 394.908 57.2926 395.066 57.1344C395.38 56.8178 395.537 56.1848 396.009 56.1848L396.795 55.71L397.633 56.1848H397.686ZM401.878 54.2856C401.511 53.336 401.197 53.336 400.568 52.914C400.149 52.6502 399.467 52.5447 398.943 52.6502C398.419 52.7029 397.895 52.7557 397.319 52.4919C397.109 52.7029 396.9 52.7029 396.638 52.4919C396.009 51.8061 395.694 51.5423 394.961 51.5951C394.489 51.5951 393.808 51.8061 393.651 52.4919C393.389 52.7029 392.707 52.7029 392.707 52.914C392.288 53.125 392.236 53.8108 391.764 54.2856C391.345 54.7604 391.293 55.1824 390.821 55.6572C390.402 56.0793 390.821 56.7651 390.402 57.1871C390.402 57.6092 390.611 58.295 390.402 58.7698C390.192 59.4028 390.297 60.4579 390.873 60.9855L391.555 61.6713C391.555 61.6713 391.817 62.4626 392.288 62.5154C392.288 62.9902 392.498 62.9902 392.707 63.2539C392.917 63.4122 393.336 63.4122 393.598 63.7287C394.018 64.2035 394.489 63.887 394.908 63.7287C395.223 63.5177 395.642 63.5177 396.009 63.7287C396.428 63.5705 396.9 63.7287 397.162 63.5177C397.424 63.3594 397.843 63.3594 398.053 63.2539C398.367 62.8319 398.734 62.8319 399.205 62.4099C399.205 62.4099 399.345 62.2516 399.625 61.9351C399.625 61.9351 400.044 61.8296 400.306 61.4075C400.411 61.1262 400.55 60.9151 400.725 60.7745C400.9 60.6338 401.04 60.4755 401.144 60.2997C401.144 60.2997 401.249 59.2446 401.511 59.2446C401.93 59.2446 401.93 58.506 402.192 58.3477C402.612 57.8729 402.192 56.9761 402.612 56.5541C402.716 56.0265 402.507 55.3934 402.192 54.9714C402.192 54.4966 401.826 54.5494 401.773 54.3383M412.411 70.5341C411.782 70.9034 411.677 70.4286 411.048 70.7979C410.42 70.9562 410.367 70.5341 409.896 70.7979H409.476C409.476 70.7979 408.9 70.5869 408.743 70.3759C408.743 69.9538 407.537 69.7956 407.747 68.8987L407.433 68.4767C407.433 68.4767 407.433 67.8436 407.328 67.6326L407.066 67.1578C406.909 66.894 406.385 66.3665 406.647 66.1027V65.6807C406.542 65.2586 406.594 64.8893 406.437 64.6783C406.227 64.4673 406.437 64.4673 406.332 64.2563L406.227 63.8342C406.227 63.8342 406.123 63.2012 405.965 63.0429L405.179 62.6209C405.179 62.6209 404.184 62.4099 403.817 62.1988H403.24C403.24 62.1988 402.612 62.3571 402.35 62.6209C402.14 62.7791 401.93 63.0429 401.878 63.4122C401.564 63.8342 401.511 63.7815 401.302 64.2035C401.302 64.6256 400.987 65.2059 400.83 65.5752C400.568 65.7862 400.83 66.3665 400.568 66.9995C400.306 67.6854 400.935 67.7381 400.673 68.2129C400.83 68.6349 400.777 69.0042 400.987 69.2152C401.249 69.5318 400.882 70.0066 401.249 70.4286C401.616 70.7979 401.039 71.5365 401.354 71.9058C401.511 72.064 401.878 72.064 402.088 72.3278L402.769 73.1191C403.031 73.6994 403.345 74.1215 403.764 74.3325C403.974 74.4907 404.289 74.4907 404.498 74.7545C404.813 75.1766 405.808 75.2293 405.965 75.5986H406.751C406.751 75.5986 407.537 75.9679 407.695 75.9679C407.904 75.7569 408.533 75.7569 408.743 75.9679C409.843 76.3899 409.686 75.8624 410.944 75.8096C411.363 75.9679 411.572 75.8096 412.201 75.8096C412.568 75.4403 413.092 75.9151 413.511 75.5458C413.721 75.3348 414.14 75.3348 414.402 75.1238C414.769 75.1238 415.45 75.2293 415.712 75.0183C415.922 74.8073 416.236 74.4907 416.446 74.2797H417.022C417.022 74.2797 417.442 74.0687 417.599 73.8577C417.913 73.8577 417.966 73.5939 418.175 73.4356C418.385 73.2246 418.647 73.3301 418.909 72.7498C418.909 72.7498 419.066 72.6092 419.38 72.3278C419.38 72.3278 419.957 72.1168 420.271 71.6947C420.411 71.4134 420.551 71.2199 420.691 71.1144C420.691 71.1144 420.795 70.2176 421.11 70.0066C421.319 69.7956 421.319 69.479 421.372 69.2152C421.215 68.7932 421.215 68.9515 420.743 68.3184C420.533 68.1074 420.114 68.1074 420.009 67.8964C419.643 67.6854 419.223 68.0019 418.804 68.2129C418.699 68.3184 418.175 68.7405 417.756 68.6349C417.599 68.5822 417.127 69.3208 417.022 69.1097C416.708 68.7405 415.345 69.5318 415.031 69.8483C414.717 70.0066 414.455 69.9538 413.878 70.1121C413.354 70.5341 413.092 70.1121 412.621 70.4286H412.411V70.5341ZM394.489 43.3125C393.86 43.5763 393.494 43.3125 392.917 42.996C392.026 42.4157 391.921 42.6267 390.926 42.6267L390.349 42.4685C389.93 42.6267 389.354 42.6267 389.144 42.785C388.987 42.785 388.987 42.9433 388.672 43.1015C388.515 43.2598 387.991 43.1015 387.834 43.4181C387.467 44.1566 387.467 44.3676 387.415 44.5787V44.7897C387.153 45.2117 387.31 45.2645 387.415 45.4755C387.572 45.6865 387.415 45.8975 387.52 46.1613C387.677 46.3723 387.624 46.6361 387.834 46.6361C387.991 46.8999 388.41 46.9526 388.515 47.2164C388.515 47.3747 388.62 47.6912 388.777 47.6912C388.987 47.9022 389.144 48.0077 389.092 48.2188C389.196 48.377 389.616 48.4825 389.773 48.7463C390.087 49.2739 390.716 49.1684 391.083 49.4321C391.397 49.2739 392.917 49.5376 393.179 49.8542C393.598 50.0124 394.018 50.4872 394.332 50.2762C394.751 49.9597 395.485 50.8038 396.271 50.3817C396.585 50.2235 396.952 50.2762 397.162 50.1707L397.791 50.329C398.262 50.0124 398.734 50.54 399.153 50.1707C399.625 49.6431 400.253 49.8542 400.882 49.6959H401.249L402.245 49.5376C402.716 49.4321 403.083 49.5376 403.24 49.3794C403.502 49.2211 403.922 49.2739 404.079 49.1684C404.393 49.0101 404.55 48.8518 404.603 48.6408L405.075 48.5353L405.703 48.2715C406.385 48.166 406.332 47.3747 406.909 47.2692C407.118 47.1109 407.38 47.0054 407.38 46.7944V46.6361C407.695 46.4778 407.747 46.0558 407.59 45.8448V45.4227C407.38 44.948 407.485 44.1566 406.804 43.7873L406.018 43.5763C405.651 43.3126 405.284 43.207 404.813 43.3653H404.655C404.288 43.3653 403.869 43.3653 403.607 43.5236C403.136 43.8929 402.821 43.3653 402.402 43.6818C401.93 44.0511 401.249 43.5236 400.725 43.7873H399.677C399.677 43.4708 399.677 43.3125 399.834 43.0488C399.939 42.785 399.991 42.3102 400.253 42.0464C400.044 41.7827 400.044 40.9386 400.253 40.6748C400.463 40.411 400.253 40.1472 400.253 39.8835C400.253 39.8835 400.358 39.3559 400.253 39.0921C399.887 38.1953 400.253 37.9843 400.044 37.7733C399.834 37.5095 399.834 37.0347 399.625 36.8237C399.467 36.2434 399.101 36.5072 398.839 36.3489C398.472 36.1379 398.053 36.2434 397.476 36.5072C397.267 36.7182 397.057 36.2434 396.847 36.5072C396.638 36.7182 396.638 37.193 396.48 37.4567C396.271 37.6678 396.271 38.1953 396.114 38.4591C395.904 38.6701 395.956 39.4087 395.956 39.6197V40.411C395.747 40.8858 395.747 41.1496 395.537 41.5716C395.537 41.8354 395.694 42.363 395.537 42.8378C395.432 42.996 395.38 43.1543 395.38 43.3653C395.066 43.3653 394.751 43.3653 394.489 43.3653M411.52 59.7721C412.044 60.2997 411.52 60.6162 411.887 61.3548C411.887 61.513 412.044 61.513 412.306 61.7768L413.092 62.5681C413.092 62.5681 413.669 63.1484 413.931 63.1484C414.297 63.5705 414.507 63.5177 415.083 63.3067C415.241 63.0429 415.87 62.6736 416.289 62.6736C416.446 62.6736 416.446 62.2516 416.656 62.2516C416.656 62.2516 417.232 61.8295 417.442 61.6713C417.442 61.6713 417.564 61.5306 417.808 61.2492C417.808 61.2492 417.966 61.0382 418.228 60.0886C418.385 59.8776 418.385 59.4556 418.594 59.2973C418.752 58.8753 418.752 58.1367 418.961 58.1367V57.2926C418.961 57.2926 419.328 56.8706 419.328 56.2903C419.118 55.499 419.643 55.4462 419.38 54.6021C419.276 54.3383 419.485 53.6525 419.747 53.4415C419.538 52.8612 419.905 52.4392 420.167 52.0699C420.324 51.8589 420.743 51.8589 420.953 51.6478C421.11 51.4368 421.529 51.4368 421.739 51.2258H422.367C422.787 51.0148 423.363 51.2258 423.782 50.8038C423.94 50.5927 424.359 50.5927 424.568 49.9597C424.726 49.7487 424.988 49.5376 424.988 49.1684C425.145 48.5353 424.988 48.1133 424.568 47.5329C424.359 47.3219 424.149 47.3219 423.94 47.1109H423.363C422.944 46.8999 422.734 46.8999 422.577 47.1109C422.367 47.2692 421.948 47.2692 421.791 47.5329C421.424 47.955 420.638 47.0582 420.219 47.5329C420.219 47.5329 420.079 47.5329 419.8 47.5329C419.433 47.3747 419.695 46.6889 419.38 46.4251C419.066 45.6338 419.538 45.3172 418.804 44.7369C418.647 44.7369 418.647 44.5259 418.647 44.3149C418.437 44.1039 418.437 43.6818 418.28 43.5236C418.07 43.1015 418.07 42.7322 417.651 42.574L417.18 41.6244C417.18 41.6244 416.865 40.8331 416.708 40.6748C416.498 40.2528 416.341 40.0417 415.922 39.8835L415.136 39.0921C415.136 39.0921 414.926 38.8811 414.664 38.7229C414.455 38.4591 414.088 38.4591 413.197 38.2481C412.778 38.6701 412.411 38.2481 411.992 38.6701C411.992 38.6701 411.852 38.8108 411.572 39.0921C411.572 39.0921 411.363 39.6725 411.206 39.8835C410.996 40.6748 410.996 40.8858 410.839 41.2551C410.996 41.6771 410.996 42.3102 410.996 42.6795C411.31 42.6795 411.363 43.6291 411.572 44.0511C411.73 44.4732 411.572 45.1062 411.992 45.4755C412.411 45.8975 411.992 46.6889 412.411 47.1109C412.568 47.6912 412.568 48.1133 412.411 48.4825C412.568 49.1156 412.568 49.2739 412.411 49.5376C412.201 49.6959 412.201 50.1179 412.411 50.329C412.778 50.751 412.411 51.173 412.411 51.3313C412.568 51.7533 412.568 52.1754 412.411 52.3864V53.1777C411.992 53.5998 412.411 54.1801 411.992 54.8131C411.572 55.6045 411.992 56.4485 411.572 57.0288V58.4532C411.572 58.4532 411.363 59.5083 411.572 59.7193M372.323 64.5201C372.794 64.6256 373.58 64.5201 374 64.2563C374.367 63.8342 374.891 64.4673 375.205 64.7311C375.519 64.8893 376.515 65.1531 376.201 65.6279C376.043 65.8917 376.043 66.3137 376.043 66.894C376.043 67.2633 376.41 67.6854 376.41 68.0546C376.41 68.4239 375.677 68.5822 375.886 69.0042C376.043 69.4263 375.415 70.1648 375.205 70.7451C375.1 71.2199 374.419 70.8507 374.157 70.9034C374 71.0089 373.476 70.4814 373.318 70.3759C373.056 70.2176 372.428 70.1121 372.27 69.9538C372.008 69.6373 372.061 69.0042 371.904 68.6349C371.694 68.1074 371.799 67.7909 371.694 67.1578C371.537 66.6303 371.589 66.261 371.799 65.9972C372.061 65.5752 372.166 64.8893 372.375 64.4673M383.956 44.8952C383.956 44.8952 383.432 44.8952 383.327 44.8952C383.327 45.0007 383.013 44.8952 382.856 45.0007C382.699 45.0007 382.541 45.159 382.384 45.0007C382.227 45.0007 381.231 45.159 381.022 44.8424C380.76 44.6842 380.236 44.5259 380.393 44.1039C380.393 43.5236 380.393 43.3125 380.393 42.785C380.393 42.363 380.131 42.2047 380.026 41.7827C380.026 41.5189 380.026 41.0968 379.816 40.8331C379.659 40.5165 379.712 40.3583 379.45 39.989C379.24 40.1472 378.926 39.7252 378.873 39.5142C378.664 39.6197 378.611 39.3559 378.349 39.1977C378.087 39.0394 378.244 38.7229 377.93 38.5118C377.615 38.3536 377.353 38.1426 377.039 37.9315C376.882 37.7205 376.41 37.826 376.148 37.7205C375.362 37.404 374.995 37.9315 374.943 38.2481C374.733 38.5118 374.262 38.8284 374.104 39.1977C373.947 39.6725 374 40.1472 373.738 40.622C373.58 40.9386 373.633 41.4134 373.528 41.7299C373.528 41.9409 373.895 42.5212 373.528 42.6795C373.528 42.8905 373.685 43.3126 373.528 43.6291C373.318 43.9456 373.056 44.4732 373.266 44.8952C373.423 45.37 373.528 46.0031 373.266 46.6361C372.952 47.1637 373.947 47.3219 373.58 47.8495C373.58 48.166 373.214 49.2211 373.58 49.4321C373.947 49.9069 373.423 50.4872 373.58 51.4896C373.371 52.2281 373.58 52.8612 373.685 52.8612C374.209 53.3888 373.318 54.0218 373.895 54.3383V54.5494C374.524 54.9186 373.633 55.8155 374.157 56.1848C374.681 56.5013 374.157 56.8706 374.733 57.2926L374.943 57.7147L375.519 58.1895L375.991 58.3477C376.27 58.6291 376.55 58.7873 376.829 58.8225C376.829 58.8225 377.877 58.717 378.087 58.6643C378.244 58.506 378.506 58.6643 378.559 58.3477C378.768 58.1367 379.502 58.3477 379.45 58.0839C379.921 57.6619 379.869 57.1344 380.288 56.5013C380.183 55.6572 380.288 55.7627 380.445 55.3934V54.9186C380.76 54.4439 380.445 54.0746 380.917 53.4943C381.022 53.2832 380.812 52.7557 381.022 52.2809C380.917 51.9644 381.022 52.1226 381.126 51.7533C381.126 51.7533 381.126 51.6127 381.126 51.3313C381.284 50.8565 381.126 50.8565 381.126 50.6982C381.126 50.2762 380.812 50.2235 380.864 49.6431C380.969 49.3266 380.864 49.2211 381.126 48.9573C381.284 48.7463 381.493 48.6408 381.755 48.588C381.86 48.4825 382.646 48.4825 382.646 48.4298C382.856 48.4298 383.013 48.588 383.118 48.2715C383.327 48.0605 383.956 48.4298 384.113 48.4298C384.323 48.6408 384.847 48.3243 385.004 47.955C385.109 47.955 385.843 47.6912 385.738 47.3747C385.581 47.2692 385.738 46.3723 385.581 46.2668C385.371 46.1613 385.319 45.4755 385.214 45.37C385.109 45.2117 384.847 45.1062 384.637 45.0535C384.271 45.0535 384.271 44.948 384.009 44.8424M366.82 45.8448C366.558 45.37 366.296 44.948 366.296 44.948C366.296 44.3677 365.196 44.948 364.672 43.5763C364.096 43.2598 363.571 43.207 362.995 42.996C362.628 42.574 362.052 42.3102 361.371 42.0464C360.951 42.0464 359.694 42.5212 359.222 42.5212C358.488 42.1519 357.702 42.6795 357.702 42.6795C357.44 42.5212 357.074 42.574 356.759 42.8378C356.654 42.996 356.288 42.6795 355.868 42.996C355.606 43.7873 354.977 43.3126 354.873 43.8401C354.401 43.9984 354.139 44.2094 354.034 44.4732L353.248 45.2117C352.462 44.8952 352.515 46.5834 351.886 46.8999C351.1 47.4274 350.89 47.6385 350.68 48.6936C350.261 50.2235 349.318 50.5927 350.104 51.3313C350.261 51.5423 350.261 52.6502 350.995 52.8612C351.152 52.8612 351.781 53.2305 352.2 53.2832C352.515 53.3888 352.514 53.2832 352.881 53.125C353.039 53.0195 353.405 53.125 353.72 53.125C354.034 52.914 354.139 53.6525 355.082 52.7557C355.449 52.7557 355.921 52.4392 355.973 52.1226C356.078 51.3841 356.759 51.9644 356.916 51.0675C357.178 50.9093 357.545 50.5927 358.017 50.4345C358.331 50.5927 358.226 49.3266 358.646 49.4321L359.222 48.5353C359.903 48.6408 360.427 48.3243 360.847 48.5353C361.161 48.3243 361.423 48.3243 361.528 48.6936C361.842 49.2211 362.052 49.2211 362.209 49.2739L362.366 49.8542C362.733 50.0124 362.628 50.2762 362.628 50.3817V51.0675C362.628 51.0675 362.366 52.4919 362.628 52.6502L361.999 53.5998C361.999 53.5998 361.633 54.0746 361.842 54.5494C361.79 55.0242 361.58 55.4462 361.318 55.71C361.318 55.921 361.318 56.132 361.318 56.2375C361.109 56.6068 361.056 56.3958 360.742 57.0288L360.323 58.1895C360.008 58.4532 360.427 58.6642 360.165 59.2973C360.532 59.4028 360.113 59.7194 360.375 60.2469C360.899 60.5107 361.109 60.9327 361.528 60.88L362.419 60.7217C362.995 61.1437 363.1 60.1414 363.571 60.1414C363.834 60.1414 364.462 59.0863 365.353 58.4005C365.72 58.1895 366.034 57.9257 366.349 57.5036C366.558 57.2399 366.454 56.6068 366.716 56.2903C366.611 56.132 367.449 55.2352 367.449 55.0769C367.607 54.6021 367.449 54.2856 367.607 53.7053C367.607 53.5998 368.34 51.9644 368.183 51.8589C368.34 51.4896 368.393 51.0148 368.183 50.5927C368.288 50.1179 368.34 49.8014 368.026 49.5904C367.659 49.4849 368.235 48.0077 367.764 47.744C367.554 47.2692 367.502 46.4778 366.873 45.8448M381.231 70.5341C381.388 70.1648 381.703 69.69 381.912 69.4263C382.017 69.1097 381.912 68.6877 382.017 68.1074C382.017 67.7909 382.332 67.5798 382.017 67.3161C382.594 66.683 382.227 66.2082 381.912 65.8389C381.912 65.6279 381.913 65.2586 381.65 64.8366C381.388 64.5201 381.231 64.2035 380.864 64.0453C380.76 63.7815 380.236 63.6232 380.183 63.3594C380.183 63.1484 379.764 62.9374 379.397 62.7791V62.5681C379.24 62.0933 378.506 62.2516 378.244 62.0933C377.93 61.8823 377.458 62.0933 377.091 61.8296C376.777 61.6185 376.358 61.8296 375.991 61.5658L375.519 61.724C374.943 61.5658 374.262 61.8295 373.685 61.724C372.952 61.9351 372.794 62.3571 371.956 62.2516C371.589 61.8296 371.327 61.1437 370.541 61.0382C370.227 60.88 369.65 61.3548 369.441 61.1437C369.074 60.7745 367.554 61.0382 367.24 61.4603C366.768 61.9878 366.349 61.9351 366.454 62.7264C366.296 63.0429 366.454 63.8342 366.296 64.098C366.087 64.3618 365.877 64.4145 365.93 64.6783C365.825 64.9421 365.563 65.2586 365.615 65.5224L365.772 65.7862C365.772 65.7862 365.144 66.5775 365.406 67.1578C365.301 67.5798 365.51 67.7381 365.51 68.4239C365.196 69.268 365.93 69.8483 365.615 70.4814C365.982 71.1144 366.192 71.853 366.192 72.5916C366.244 72.8026 366.558 73.0136 366.873 73.2774C367.187 73.4356 367.292 73.8577 367.607 74.016L367.711 74.5435C367.711 74.5435 368.55 74.5435 368.812 74.7545C369.441 75.1766 370.069 75.2821 370.541 75.3876C371.222 75.7041 372.061 75.0183 372.585 75.3876C373.214 75.4931 373.738 75.5986 374.104 75.0183C374.995 74.2797 376.515 75.4403 377.144 74.5435C377.511 74.1742 378.087 74.1742 378.559 73.9632C378.716 73.6467 378.873 73.5939 379.345 73.3829C379.764 72.9081 379.869 72.8553 380.393 72.6971C380.655 72.5388 380.707 72.2223 380.812 71.9058C380.969 71.5892 381.388 71.431 381.441 70.8507L381.284 70.6396L381.231 70.5341ZM343.868 69.479C344.078 69.2152 344.34 68.8987 344.182 68.6349V68.0546C344.182 68.0546 344.025 67.3688 343.763 67.2106C343.554 67.0523 343.292 66.7885 343.082 66.8413C342.82 66.8413 342.348 66.683 342.139 66.8413L341.51 66.9468C341.143 67.4743 340.567 67.5271 340.2 68.0546C339.833 68.5294 339.361 68.1601 338.942 68.6349L338.313 68.7405C338.313 68.7405 337.894 69.0042 337.685 69.268H337.527C337.108 69.5845 336.636 69.6373 336.479 69.8483C336.06 70.1121 335.693 69.9538 335.222 69.7428C335.064 69.9538 334.436 70.0593 334.174 69.6373C333.807 69.6373 333.65 69.057 333.545 68.846C333.388 68.5294 333.65 68.1601 333.492 67.9491C333.23 67.6326 333.387 67.4743 333.492 66.9468C333.65 66.472 333.597 65.7862 333.754 65.6279C334.069 65.2059 333.44 64.7311 333.754 64.2035C333.964 63.9925 333.912 63.5177 334.121 63.2539C334.278 63.0429 334.226 62.5681 334.488 62.3043L334.383 61.4075C334.383 61.4075 334.488 60.7217 334.278 60.5107V60.2997C334.278 60.2997 333.964 59.8776 333.754 59.7193L333.283 59.2973C333.283 59.2973 332.601 59.139 332.182 58.9808C331.763 59.2446 331.291 59.2973 331.134 59.7721C331.134 59.7721 331.082 59.8424 330.977 59.9831C330.977 59.9831 330.977 60.1941 330.82 60.4579L330.453 60.9327H330.296C329.824 61.2492 329.876 61.6713 329.719 61.9351C329.562 62.0933 329.405 62.1988 329.3 62.4626V62.6736C328.933 63.0429 328.986 63.2539 328.828 63.7815L328.671 64.3618C328.566 64.6783 328.304 64.6256 328.304 64.8366C327.938 65.3641 328.409 65.9972 328.042 66.261V66.7358C328.042 67.1578 327.99 67.5798 327.99 68.0019C327.99 68.3184 328.042 68.6349 328.095 68.9515C328.095 69.3735 328.252 69.9011 328.514 70.3231C328.514 70.3231 328.601 70.4638 328.776 70.7451C328.776 70.7451 329.038 71.1672 329.09 71.3782C329.09 71.8002 329.352 71.8002 329.614 72.0113C329.614 72.2223 329.824 72.1695 330.086 72.4333V72.6443C330.401 73.2774 330.663 73.4356 331.082 73.6467L331.553 74.0687C331.553 74.0687 331.815 74.4907 332.025 74.4907C332.235 74.4907 332.444 74.4907 332.497 74.649C332.706 74.649 333.492 74.7545 333.492 74.9655C333.912 75.1766 334.436 75.2821 335.117 75.0183C336.008 75.1238 336.165 75.3348 337.003 74.8073L337.632 74.7018C338.051 74.438 338.471 74.3852 338.628 74.1215H339.047C339.466 73.8049 340.305 73.4884 340.724 73.0136C340.881 72.7498 341.3 72.6971 341.51 72.4333C341.929 72.1695 342.139 71.9585 342.296 71.431L342.925 71.1672C342.925 71.1672 343.344 70.5869 343.711 70.4286L344.025 69.479H343.868ZM325.475 42.4157C324.898 42.1519 324.898 42.0464 324.217 42.0992C323.693 41.8354 323.117 41.8882 322.907 41.8354C322.75 41.8354 321.649 41.7299 321.02 42.0464C320.863 42.1519 320.182 41.8882 319.972 42.0464C319.553 42.574 318.715 42.2575 318.295 42.7322C317.771 43.1015 317.352 43.4181 317.247 43.5763C317.09 43.8929 316.566 43.7346 316.409 43.9456C316.304 44.3149 315.833 44.3677 315.728 44.6842C315.518 44.6842 315.518 44.8952 315.309 45.159C315.309 45.3172 315.204 45.7393 315.047 46.1086C314.784 46.2668 314.68 46.8999 314.68 47.2164C314.68 47.4802 314.942 48.0605 315.151 48.2715C315.309 48.377 315.728 49.0101 315.937 49.2211C316.357 49.2211 316.566 48.9046 316.985 49.0101C317.509 49.3266 317.929 49.0101 318.558 48.588C319.082 48.6936 319.239 48.166 319.763 47.955C320.182 47.744 320.811 47.6385 321.073 47.955C321.492 47.7967 321.649 47.2164 322.068 47.5857C322.173 47.744 322.488 47.9022 322.645 47.744C323.012 47.744 323.693 47.6385 323.798 47.9022C323.955 48.0605 324.636 48.1133 324.531 48.377C324.636 48.5353 324.951 49.0101 325.055 49.1684C325.16 49.3794 325.055 49.9597 325.055 50.4872L324.793 50.962C324.689 51.5423 324.898 52.2281 324.427 52.4919C324.427 52.8612 324.269 53.5998 324.165 53.758L323.745 54.8659C323.588 55.1824 323.588 55.5517 323.641 55.8682C323.326 56.2375 323.117 56.5013 323.012 57.0816C322.907 57.6619 322.383 58.1367 322.593 58.8225C322.593 59.2446 322.383 59.4556 322.75 59.7721C322.855 59.9831 322.75 60.2469 322.907 60.2469C323.012 60.6689 323.85 60.4052 323.955 60.88C324.531 61.4075 324.951 61.302 325.789 61.302C325.999 61.1437 326.208 61.1965 326.313 60.9327C326.523 60.7745 326.89 60.8272 327.204 60.4052L327.309 60.1941C327.309 60.1941 327.676 60.0886 327.78 59.9304C328.042 59.7721 328.304 59.5611 328.409 59.3501V59.2446C328.304 58.9808 328.462 58.5587 328.724 58.4532C329.562 57.7147 329.09 56.9233 329.981 56.0265C330.086 55.7627 330.296 55.2352 330.296 54.9186C330.139 54.7076 330.767 53.6525 330.663 53.4415C330.663 52.4919 330.505 52.1754 330.977 51.4368C330.872 50.962 331.291 50.4345 331.082 49.9597C330.977 49.7487 331.082 49.3794 330.977 49.0628C330.82 48.8518 330.767 47.955 330.82 47.7967C330.663 47.7967 330.663 47.1109 330.558 46.8999C330.401 46.4779 330.348 46.2141 330.034 46.0031C329.929 45.7393 329.719 45.5283 329.562 45.4755L329.195 44.6842C329.195 44.1039 328.462 44.2621 328.147 43.7873C327.833 43.4708 327.466 43.3653 327.361 43.207C326.628 42.8378 326.418 42.6795 326.051 42.4685L325.527 42.363L325.475 42.4157ZM344.864 43.1543C344.864 43.1543 344.707 42.7322 344.445 42.7322C344.287 42.3102 344.759 42.3102 344.445 42.0992C344.287 41.9409 344.287 41.5189 343.868 41.3079C343.868 41.1496 343.449 41.1496 343.187 40.8858C343.03 40.6748 343.187 40.5165 342.925 40.3055C342.715 40.1472 342.61 40.3055 342.348 40.0945H341.929C341.51 39.6725 340.881 40.0945 340.462 39.6725H339.99C339.99 39.6725 339.571 39.8835 339.309 40.0945C339.152 40.3055 338.68 40.3055 338.471 40.7276V41.1496C338.471 41.1496 338.313 41.5189 338.366 41.7299C338.523 42.0992 338.366 42.5212 338.366 42.9433C338.628 43.1543 338.628 44.4732 338.837 44.6842C338.837 44.8952 338.942 45.37 338.837 45.4755C338.628 45.8448 338.68 46.3196 338.837 46.6889C338.837 46.8999 338.942 47.2692 338.837 47.4802C338.733 47.744 337.685 47.8495 337.423 48.0077C337.056 48.4298 336.165 47.5857 335.693 48.0077C335.274 48.0077 334.278 48.0077 333.964 48.2188C333.807 48.0605 333.073 48.4825 332.863 48.6936C332.706 48.9046 332.759 49.4849 332.863 49.8014C333.021 50.0652 332.863 50.5927 333.283 50.9093C333.492 50.9093 334.593 51.3841 334.75 51.173L335.85 50.962C336.27 50.8038 336.951 51.4368 337.37 50.962C337.58 50.962 338.523 50.962 338.68 51.173C339.099 51.5951 338.68 51.7006 339.099 52.1226V52.5447C339.361 52.9667 339.257 53.1777 339.099 53.3888C338.942 53.547 338.942 54.8131 339.099 54.9186C339.099 54.9186 338.942 55.8155 338.942 56.0265C338.942 56.0265 338.942 56.5541 339.099 56.6596C339.309 56.7651 338.995 57.7147 339.257 57.7147C339.257 57.7147 339.099 57.9257 339.047 58.295C339.047 58.4532 339.152 59.139 339.047 59.3501C338.89 59.7721 339.309 60.4579 339.466 60.6162C340.147 61.0382 340.986 61.0382 341.667 61.4603C342.348 61.4603 342.768 61.302 343.396 61.4603C343.658 61.6713 344.078 61.2492 344.287 60.8272C344.549 60.9855 344.549 60.8272 344.706 60.6162C344.916 60.4579 344.916 59.5611 345.126 59.3501C345.335 59.1918 345.335 58.295 345.545 58.0839L345.964 57.1871C346.803 56.3958 345.755 56.2903 346.383 55.499V54.8131C346.593 54.2328 346.593 53.8108 346.383 53.1777V52.3337C346.75 51.3313 346.645 50.9093 346.383 50.3817C346.174 50.0124 346.226 49.2211 346.383 49.0628C346.174 48.8518 346.488 48.0605 346.017 47.7967C345.65 47.5857 345.912 47.3747 345.912 47.1637C345.493 46.5306 345.912 45.9503 345.493 45.3172C345.493 45.159 345.283 45.159 345.073 44.948V44.3149C345.073 44.3149 344.864 43.8929 344.654 43.6818V43.0488L344.864 43.1543Z" fill="white"/>
<path d="M301.108 73.6994C301.108 73.6994 300.846 74.2797 300.846 74.4379C300.846 74.9127 301.318 74.9655 301.318 75.1765C301.475 75.3348 301.632 75.7568 301.946 75.6513C302.313 75.5458 302.523 76.0206 302.732 75.8623C303.047 75.3875 303.623 75.3348 303.833 75.3348C304.305 75.3348 304.305 74.86 304.829 74.7545C305.195 74.5962 305.353 74.2797 305.615 74.2269C305.772 73.8576 306.139 73.6466 306.506 73.4884C307.134 73.1718 306.82 72.908 307.292 72.5388C307.554 72.3805 307.868 71.5892 307.973 71.3782C308.287 71.3782 308.392 70.5868 308.602 70.2175C308.497 70.112 308.811 69.69 308.916 69.4262C309.021 69.268 309.335 68.6876 309.073 68.2656C309.178 67.9491 309.388 67.5798 309.283 67.2633L309.073 66.9467C309.073 66.595 308.986 66.2785 308.811 65.9971L308.654 65.8389C308.654 65.5224 308.811 65.2058 308.549 64.731L308.34 64.6255C308.34 64.6255 307.92 64.1507 307.658 63.7814C307.554 63.5704 307.344 63.1484 307.03 63.1484C306.453 63.3066 306.296 62.6736 305.719 62.7791C305.143 62.9374 304.881 62.2515 304.409 62.5153C303.938 62.5153 303.571 62.1988 303.257 62.4098C302.89 62.5153 302.208 62.2515 302.156 62.5153C301.999 62.9901 301.737 62.9374 301.422 62.9374C301.108 62.9374 300.532 62.9374 300.374 63.2539C300.217 63.3066 300.165 64.0452 299.85 64.098C299.536 64.2035 299.064 64.8365 299.169 65.1531C299.064 65.4696 299.274 66.4719 299.064 66.5775C298.697 66.683 298.959 67.4743 299.326 67.6853C299.431 67.6853 299.588 68.1601 299.641 68.3711C299.641 68.7404 300.112 68.8987 300.794 68.7932C301.056 68.7932 301.527 69.1097 301.684 68.7932C301.894 68.6349 302.104 68.6877 302.366 68.6349C302.785 68.5294 302.837 68.4766 303.099 68.0546C303.204 67.8436 303.676 67.8436 303.833 67.8436C304.147 67.8436 304.2 68.1601 304.514 68.4239C304.619 68.6349 304.829 68.9514 304.514 69.1624C304.305 69.3207 304.514 69.7955 304.409 69.9538C304.409 70.4286 304.252 70.5341 303.938 70.6396C303.728 70.7979 303.519 71.1144 303.466 71.0616C303.466 71.4837 302.942 71.5364 302.732 71.8002C302.523 72.064 302.523 72.486 302.051 72.5915C301.842 72.5915 301.842 73.0663 301.58 73.0663C301.265 73.0663 301.318 73.5411 301.108 73.8049M284.968 50.751C284.968 50.751 284.444 50.962 284.129 50.962C283.658 50.962 283.134 50.962 282.767 51.173C281.876 51.384 280.985 51.173 280.094 51.173C279.675 51.6478 278.837 50.8565 278.418 51.2785L278.103 51.595C278.103 51.595 277.736 51.4895 277.527 51.7533L277.212 52.0698C276.531 52.2809 276.793 52.5446 277.003 52.9667C277.212 53.1777 277.212 53.8635 277.474 54.1273C277.894 54.1273 278.365 54.3383 278.784 54.3383C279.361 54.5493 279.99 54.8659 280.514 54.6021C281.143 54.3383 282.033 54.7076 282.767 54.6021C282.977 54.6021 283.396 54.2855 283.658 54.3911C283.867 54.4966 283.92 55.0241 284.968 54.8658C285.282 54.5493 285.911 54.7603 285.859 55.3406C286.278 55.7627 285.859 56.2375 286.278 56.7123C286.697 57.1343 286.383 57.2398 286.75 57.8201C286.959 58.0311 286.854 58.4004 286.75 58.717C286.488 59.35 286.75 59.4028 286.75 60.0886C286.889 60.4051 286.889 60.7744 286.75 61.1964C286.75 61.6712 286.488 61.6712 286.75 62.3043C286.854 62.6208 286.959 62.9901 287.169 63.2011C287.169 63.2011 287.239 63.3594 287.378 63.6759C287.378 63.6759 287.588 63.8869 287.588 64.098C287.588 65.2058 288.269 65.8916 289.37 65.8916C289.789 66.3664 290.575 66.2082 290.785 65.9971C290.994 65.7861 290.994 65.7861 291.204 65.7861C291.675 65.3113 291.885 65.3113 292.514 65.3113C292.514 65.1003 292.933 64.8893 293.195 64.8893C293.667 64.8893 293.562 64.3617 293.772 63.8869V63.2011C293.772 63.2011 293.981 62.5153 294.243 62.3043C294.453 62.0933 294.453 61.6185 294.662 61.4075C294.872 61.2492 294.924 60.9854 295.082 60.5106C295.291 59.9303 295.082 59.4028 295.553 58.928C295.658 58.4532 295.763 57.9256 295.553 57.5564C295.029 56.7123 295.553 55.5517 295.082 54.6021V53.9163C295.082 53.9163 294.872 53.4415 294.662 53.2304C294.453 53.0194 294.453 52.5446 294.243 52.3336C293.772 51.8588 294.243 51.2258 293.772 50.962C293.562 50.751 293.562 50.2762 293.09 50.0651C293.09 50.0651 293.02 49.9069 292.881 49.5904C292.881 49.5904 292.671 49.3793 292.462 49.1156V48.9045C292.462 48.9045 292.462 48.377 292.304 48.166C292.095 47.9549 291.833 48.0077 291.571 47.7439C291.361 47.5329 291.571 47.4802 291.413 47.2691C291.047 47.0581 290.994 47.0054 290.994 46.4778L290.575 46.3195C290.575 46.3195 290.103 46.1613 289.841 45.8975C289.632 45.6865 289.841 45.6337 289.684 45.4227C289.475 45.2117 289.213 45.2644 289.003 45.0007C289.003 45.0007 288.846 44.9303 288.531 44.7897C288.322 44.3676 287.85 44.3676 287.64 44.5786C287.274 44.5786 286.802 44.3149 286.33 44.5786C285.859 44.8424 285.44 44.7369 285.23 44.9479C285.23 44.9479 284.863 45.6865 284.811 45.8975C284.601 46.3723 284.391 46.7943 284.811 47.2691C285.23 47.9549 285.125 48.6935 284.916 49.2738C284.811 49.5904 285.02 50.4872 285.02 50.6982M273.335 54.0745C273.072 53.5997 272.548 53.1777 272.077 53.2304C271.92 52.9667 271.658 52.5446 271.134 52.5446C270.819 52.5446 270.452 52.2809 270.243 52.0171C269.876 51.8588 269.195 51.8588 268.723 52.1226C268.251 52.4919 267.727 52.4919 267.57 53.0194C266.575 53.7052 267.099 54.1273 266.837 54.4438C267.203 55.1824 266.837 55.7099 267.151 56.4485L266.994 57.1343C266.994 57.1343 267.203 57.6619 267.361 57.8729V58.0839C267.465 58.5587 267.361 59.0335 267.57 59.2973C267.57 59.5083 267.727 59.5083 267.937 59.8248L267.832 60.2996L268.199 60.7744C268.356 61.2492 268.566 61.513 268.933 61.8295C269.09 62.0405 269.037 62.5153 269.195 62.7791C269.352 63.0429 269.457 63.0429 269.614 63.3066C269.771 63.5704 269.771 63.7814 269.771 63.9925C269.981 64.098 269.928 64.52 270.138 64.7838C270.138 64.9948 270.295 65.0476 270.505 65.3113C270.505 65.5224 270.662 65.5751 270.872 65.7861C271.029 66.0499 271.029 66.3137 271.343 66.5247C271.658 66.683 271.343 66.894 271.553 67.105C271.71 67.3688 271.71 67.5798 271.92 67.8436C271.92 68.0546 272.077 68.1073 272.286 68.3184C272.496 68.5821 272.706 68.8459 272.915 68.8987L273.544 69.0042C274.278 68.6877 275.116 69.268 275.797 68.9514L276.479 69.0569C276.95 68.8987 277.055 68.4766 277.265 68.2656C277.265 68.0546 277.579 67.7908 277.632 67.5798C277.841 67.4215 278.051 67.4743 278.103 67.2105C278.365 67.0522 278.208 66.7885 278.47 66.6302C279.204 66.1027 279.466 65.6279 279.361 65.1003C279.204 64.5728 279.361 63.9925 279.361 63.8342C279.361 63.6232 279.204 63.3066 279.046 63.0429L278.68 62.5153C278.68 62.1988 278.68 61.935 278.365 61.513C278.26 61.1437 277.789 61.0909 277.684 60.4579C277.527 60.1941 277.684 59.7193 277.212 59.35C276.741 59.0335 276.845 58.6642 276.688 58.4532L276.321 57.9256C276.321 57.3981 275.902 57.0288 275.64 56.4485C275.535 56.0792 275.326 55.7627 274.907 55.6572C274.802 55.1296 274.33 55.1296 274.173 54.8658C274.016 54.6021 273.806 54.3383 273.597 54.3383C273.597 54.3383 273.387 54.3383 273.387 54.0745M258.033 55.2879C258.033 55.6572 257.666 56.0265 257.666 56.5013C257.666 56.976 257.98 57.3453 257.98 57.5564C258.19 57.7674 258.924 57.8201 259.133 58.0311C259.815 58.2422 259.919 58.2422 260.601 57.8201C260.81 57.6091 260.967 57.4508 261.282 57.3453C261.596 57.2398 261.701 56.8705 261.911 56.6068C262.278 56.2375 262.12 56.0792 262.435 55.7627C262.906 55.5517 263.221 55.3934 263.483 54.7076C263.692 54.4966 263.85 54.1273 264.059 53.9163C264.269 53.9163 264.478 53.4942 264.688 53.2832C264.898 53.2832 265.369 52.9139 265.369 52.5446C265.474 52.4391 265.579 52.1226 266.051 52.1226C266.26 52.1226 266.47 51.9116 266.732 51.6478C266.941 51.6478 266.837 51.3313 267.046 51.1202C267.256 50.9092 267.413 50.962 267.623 50.751C267.832 50.5399 268.618 50.0124 268.618 49.6959C268.618 48.9045 269.299 49.1156 269.404 48.4825C269.614 48.2715 269.981 47.4274 270.19 47.4274C270.61 46.6361 270.19 46.0558 270.19 45.4755C269.981 45.2644 269.352 44.1566 268.933 44.4204C268.723 44.4204 268.461 44.2093 268.042 44.4204C267.727 44.5786 267.361 44.6314 267.151 44.8424C266.941 45.0534 266.47 45.0534 266.26 45.5282C266.051 45.3172 266.051 45.5282 265.841 45.7392C265.631 45.9503 265.16 45.9503 264.95 46.214L264.531 46.6888C264.531 46.6888 263.85 46.8998 263.64 47.3746C263.64 47.3746 263.5 47.445 263.221 47.5857C263.221 47.5857 263.221 47.9549 262.959 48.166C262.749 48.377 262.54 48.2715 262.33 48.4825C262.173 48.588 262.015 49.1156 261.439 49.3793C261.229 49.5904 261.229 50.0651 261.02 50.2762C260.81 50.4872 260.548 50.4872 260.548 50.751C260.339 50.962 260.339 51.4368 260.129 51.6478C259.919 51.8588 259.657 52.1226 259.657 52.3336V52.5446C259.657 52.5446 258.976 53.1777 258.976 53.3887C259.081 53.758 258.452 53.969 258.505 54.2855L258.085 55.1824L258.033 55.2879ZM230.05 56.976C229.788 57.0816 229.631 57.5036 229.735 57.7146C229.84 58.0311 229.159 58.2949 228.792 58.2949C228.111 58.2949 228.058 59.0335 227.692 59.0335C227.587 59.0335 227.482 58.5587 227.377 58.5587C227.01 58.5587 226.696 58.5587 226.486 58.2949L226.277 57.7674C226.277 57.7674 225.7 57.3453 225.648 57.1871C225.543 56.8178 225.858 56.3957 225.858 55.921L225.596 55.6044C225.596 55.2351 225.962 54.9714 226.067 54.8131C226.067 54.7076 226.434 54.8131 226.539 54.8131C226.748 54.6548 227.168 54.8131 227.272 54.3383C227.43 53.9163 228.006 53.9163 228.32 54.0745C228.425 54.0745 229.002 53.969 229.159 54.0745C229.369 54.2328 229.421 54.9186 229.578 55.1824C229.735 55.3934 230.312 55.6572 230.364 55.921C230.469 56.1847 230.207 56.9233 229.997 57.0288M246.085 60.6161C245.666 61.0382 245.666 61.4075 246.085 61.8295C246.399 62.2515 246.504 62.6736 246.452 63.0956C246.452 63.4122 246.661 63.7287 246.871 63.9397C247.238 64.5728 246.714 65.3641 247.238 65.9444C247.238 66.1554 247.919 66.683 248.653 66.7357C249.072 66.7357 249.334 67.6325 250.015 67.1578C250.225 66.9995 250.644 66.9995 250.801 66.7357C251.011 66.5775 251.011 66.1554 251.221 65.9444C251.483 65.7334 251.902 65.7334 252.007 65.1531C252.216 64.9948 252.373 64.731 252.373 64.731C252.583 63.7287 252.793 63.7287 252.793 63.5177C253.212 63.0956 252.793 62.5153 253.212 61.4602C253.631 61.0909 253.683 60.7217 253.998 60.2469C254.207 60.0358 254.207 59.6665 254.365 59.2445C254.365 58.928 254.522 58.1367 254.784 57.8201C254.994 57.2398 255.203 57.0288 255.203 56.8178C254.994 56.3957 254.994 56.0265 254.784 55.7627V55.3934C254.365 54.5493 254.784 53.5997 254.365 52.5446C254.365 52.3336 254.207 51.9643 253.998 51.7533C253.474 51.2785 253.159 51.384 253.212 50.5399C253.579 50.2762 253.107 49.1683 252.793 48.9045C252.373 48.4825 252.373 47.7439 252.007 47.2691C251.221 46.6888 251.011 46.4778 250.801 46.0558C250.644 45.8975 250.382 45.8975 249.596 45.6337C249.439 45.4755 249.229 45.2117 248.81 45.2117C248.391 45.0007 248.024 45.0007 247.605 45.2117L246.819 45.6865C246.819 45.6865 246.399 46.1085 246.399 46.3195C246.609 46.7416 246.609 47.1109 246.399 47.3219C245.613 48.1132 246.609 48.9045 246.033 49.6959C245.875 49.9069 245.875 50.5927 246.033 50.8037C246.033 51.595 246.295 51.5423 246.033 52.3864C246.242 53.1777 246.033 54.0218 246.399 54.3911C246.242 55.0241 246.242 55.1824 246.033 55.6044C246.242 56.1847 246.242 57.0288 246.033 57.6619C246.033 57.9784 245.771 58.2949 246.033 58.6642C246.242 59.2973 246.033 60.0886 246.033 60.7217M237.177 52.2281C237.177 52.2281 237.334 52.9667 237.543 53.1777C237.543 53.3887 237.386 53.8635 237.386 54.0218C237.229 54.2328 237.019 54.2328 237.019 54.4438C236.548 54.6021 235.971 54.6021 235.552 54.4438C235.185 54.2855 234.766 54.4438 234.347 54.5493C234.452 54.18 234.504 54.0218 234.19 53.4415C234.032 53.0194 234.032 52.4391 233.404 52.2281C232.827 51.6478 232.88 51.3313 232.67 51.1202C232.513 50.962 231.674 50.9092 231.412 50.6455C231.045 50.2234 230.783 50.6455 230.417 50.1707C230.102 50.1707 229.578 49.9596 229.211 49.7486C228.949 49.7486 228.425 49.9069 228.216 49.7486C228.058 49.5904 227.482 49.9069 227.115 49.8541C226.853 49.8541 226.12 49.7486 225.858 50.2234C225.596 50.6982 225.176 50.3817 224.862 50.6982C224.705 50.9092 224.443 50.9092 224.443 51.3313C224.443 51.3313 224.32 51.384 224.076 51.4895C223.499 51.9643 223.814 51.8061 223.499 52.6501C223.29 52.8612 222.871 52.9667 222.871 53.1777C222.713 53.3887 222.713 53.8107 222.451 53.969C222.294 54.18 222.294 54.6021 222.032 55.0241C222.032 55.2879 222.032 55.7099 221.875 55.921C221.299 56.7123 221.875 57.7674 221.456 58.3477C221.456 58.5587 221.351 58.8225 221.456 59.139C221.561 59.35 221.718 59.4028 221.875 59.9303C222.085 59.9303 222.242 60.5106 222.242 60.5634C222.242 60.7216 222.818 61.1437 222.975 61.302C222.975 61.302 223.709 61.8823 223.919 61.935C224.128 62.3571 224.705 61.935 225.124 62.3571C225.91 62.7791 226.172 62.5153 226.958 62.3043C227.744 61.8823 227.796 62.5153 228.373 62.146C228.74 62.146 228.897 62.0405 229.159 61.724C229.369 61.513 229.945 61.724 230.155 61.4602C230.364 61.4602 230.259 61.1437 230.417 60.9327C230.626 60.7744 230.783 60.9327 230.941 60.6689C231.15 60.5106 231.569 60.2996 231.727 60.1413C231.727 59.8248 232.251 60.1413 232.408 59.8248C232.618 59.6666 232.513 59.2973 232.67 59.0335C232.88 58.8752 233.142 58.8752 233.351 58.6115C233.508 58.5059 233.508 57.8729 233.456 57.5036L233.823 57.3453C234.137 57.1871 234.609 57.5564 234.923 57.5564C235.29 57.5564 235.447 57.4508 235.657 57.3453C235.867 57.1871 236.286 57.6091 236.443 57.3453C236.757 57.2398 236.862 57.3453 237.072 57.3453C237.334 57.3453 237.439 57.6091 237.648 57.8201C237.648 58.0311 237.648 58.4532 237.543 58.6115C237.334 58.8225 237.439 59.1918 237.543 59.4555C237.753 60.2469 237.386 60.1941 237.386 61.1437C237.805 61.5657 237.386 61.935 237.753 62.3571C237.858 62.5329 237.98 62.6912 238.12 62.8318C238.12 63.8869 239.063 63.9397 239.639 64.1507C239.797 64.3617 240.006 64.5728 240.373 64.5728C241.002 64.7838 241.369 65.0476 241.788 64.5728C242.207 64.4673 242.207 64.0452 242.417 63.8342C242.679 63.6232 242.731 63.1484 242.888 62.6736C243.15 62.5153 243.15 62.0933 243.308 61.8823C243.727 61.513 243.413 60.6689 243.779 60.2996C244.356 58.8225 243.779 58.2422 244.041 56.7123C243.622 56.5013 244.041 55.9209 243.675 55.4462C243.675 55.0769 243.57 54.5493 243.36 54.2328C243.046 54.2328 243.36 53.1249 243.203 52.9667C243.098 52.8084 243.046 52.2809 242.836 52.0698C242.836 51.8061 242.836 51.595 242.469 51.2258C242.312 51.0147 242.364 50.5927 242.155 50.3817C242.155 50.2234 242.417 50.2234 241.84 49.5376C241.736 49.2211 241.212 49.01 241.107 48.7463C241.002 48.3242 240.321 48.0605 239.902 48.0605C239.744 48.0605 239.063 48.0605 238.906 48.2715C238.801 48.377 238.591 48.9045 238.225 49.01C237.91 49.1156 237.648 49.6959 237.439 49.8014C237.019 50.5927 237.177 50.5399 237.334 51.3313C237.334 51.5423 237.019 51.9643 237.019 52.1226M203.062 70.4286C203.062 70.4286 203.534 69.901 203.691 69.6372C203.796 69.7427 204.006 69.8483 204.163 69.8483C204.477 69.9538 204.634 70.3758 204.949 70.5341V70.7451C204.949 70.7451 205.368 71.0089 205.63 71.1671L205.735 71.3782C205.735 71.3782 206.154 71.8002 206.416 71.8529C206.835 71.8529 207.045 72.5915 207.359 72.5915C207.517 72.486 207.621 72.7498 207.779 72.908C207.953 72.9784 208.093 73.0839 208.198 73.2246C208.198 73.2246 208.669 73.6994 208.984 73.8049L209.141 74.2269C209.455 74.3324 209.665 74.7545 209.927 74.8072L210.084 74.9655C210.084 74.9655 210.504 75.282 210.766 75.3875C211.08 75.493 211.29 75.9151 211.552 75.9678C211.866 76.0733 212.023 76.2844 212.18 76.1261C212.285 76.3371 212.495 76.2844 212.757 76.3371C213.071 76.4426 213.386 76.4954 213.543 76.4426L213.753 76.2844C214.067 76.4426 214.329 76.4954 214.539 76.3899L214.958 76.1789C215.063 75.8623 215.22 75.7568 215.534 75.8623L215.953 75.6513C215.953 75.6513 216.425 75.1765 216.53 74.86C216.739 74.2797 215.901 73.6994 216.058 73.0663L215.901 72.6443C215.587 72.5388 215.429 72.1167 215.377 71.6419C215.272 71.4837 214.958 71.3254 214.696 71.2199C214.172 71.2199 214.172 70.6923 214.172 70.2175C214.067 70.0593 213.805 69.9538 213.438 69.7955L213.281 69.4262C212.966 69.268 212.757 68.9514 212.495 68.7932L212.18 68.2129C211.761 67.8963 211.552 67.527 211.237 67.4215L211.132 67.2105C210.713 66.894 210.399 66.8412 210.032 66.894C209.455 66.894 209.717 66.5247 209.036 66.4192L208.46 66.3137C208.145 66.2082 207.883 66.3137 207.831 66.0499C207.569 65.8916 207.255 65.8389 207.097 65.8916C207.097 65.8916 206.94 65.8916 206.783 65.7334C206.783 65.7334 206.626 65.7334 206.311 65.7334H205.944C205.944 65.7334 205.944 65.3113 206.102 65.3113C206.469 65.2058 206.783 65.2058 207.045 64.7838V64.5728C207.045 64.5728 207.412 64.3617 207.412 64.1507C207.412 64.1507 207.534 63.9749 207.779 63.6232C207.779 63.6232 207.936 63.2539 208.198 63.0429C208.303 62.8846 208.303 62.5153 208.617 62.3043C208.617 61.935 208.722 61.724 208.617 61.4075C208.46 61.0909 208.46 60.7217 208.198 60.4579C207.779 60.0358 207.202 60.3524 206.888 60.0358C206.783 60.0358 206.521 60.2996 206.364 60.4579C206.207 60.6161 205.787 60.6161 205.63 60.8799C205.42 61.0382 205.211 60.9854 205.054 61.0909C204.792 61.2492 205.054 61.4075 204.896 61.5657C204.634 61.7768 204.477 61.6712 204.268 61.7768C204.058 62.0405 204.163 62.5153 204.058 62.6736C203.901 62.8319 203.482 62.7791 203.482 62.9374C203.377 63.4122 203.115 63.6232 202.643 63.7287C202.433 63.9397 202.8 64.3617 202.643 64.5728C201.962 65.2058 202.014 65.2058 201.857 65.3641C201.543 65.8916 201.7 66.1027 201.176 66.5247C201.019 66.7357 201.019 67.105 200.861 67.316C200.599 67.4743 200.39 68.4766 200.39 68.4766C200.39 68.6349 199.866 69.1097 199.866 69.1097C199.604 69.5845 199.709 69.9538 199.447 70.4286C199.289 70.6923 199.08 71.3782 198.975 71.5364C198.765 71.9057 198.503 72.5915 198.765 73.1191C198.87 73.3301 198.765 74.0687 199.185 74.1742C199.342 74.1742 199.709 74.649 200.337 74.5962C200.547 74.4907 200.861 74.4907 201.123 74.3324L201.7 73.8049C202.119 73.4884 202.067 73.0136 202.381 72.5915C202.381 72.3805 202.696 71.4309 202.905 71.4309C203.062 71.4309 203.167 70.9034 203.167 70.4813M209.351 59.0862C209.665 58.9807 209.875 58.928 210.189 58.928C210.451 58.928 210.399 58.7697 210.713 58.5587L210.87 58.6642C211.132 58.6642 211.447 58.5587 211.761 58.4532C211.761 58.4532 212.076 58.5587 212.338 58.5587C212.652 58.4532 213.124 58.3477 213.386 58.1367C213.7 57.9784 214.277 57.9784 214.591 57.7674C214.696 57.6619 214.853 57.3981 215.115 57.3453C215.429 57.2398 215.534 56.9761 215.796 56.8178L216.425 56.554C216.739 56.3957 216.739 56.0265 217.106 55.921V55.4989C217.526 55.3934 217.578 55.0241 217.892 54.8658C218.416 54.5493 218.05 54.18 218.626 53.8635C218.888 53.758 218.993 53.336 218.836 53.1777V52.9139C218.836 52.9139 218.731 52.5974 218.469 52.3864C218.364 52.1226 218.207 52.1226 217.997 51.9116C217.421 51.4368 217.054 51.595 216.163 51.6478L215.429 51.5423C215.167 51.5423 214.905 51.6478 214.748 51.7533H214.539C213.962 51.6478 213.962 51.8588 213.648 52.0171C213.333 52.1226 213.124 52.0171 212.757 52.2281C212.547 52.3864 212.023 52.0698 211.656 52.2281C211.656 52.2281 211.814 51.7533 211.866 51.7533C212.128 51.6478 212.809 50.4344 212.809 50.2234C212.809 49.8541 213.281 49.0628 213.648 48.7463C213.805 48.4825 214.119 47.1109 214.119 46.8999C214.277 46.4251 214.486 45.6865 214.591 45.4755C214.958 44.5786 215.063 43.1542 214.801 42.1519C214.591 41.7826 214.643 40.7275 214.486 40.5693L213.805 40.1472L213.595 39.4086C213.49 39.0394 212.862 39.0394 212.128 38.6701C211.656 38.1953 210.87 38.3008 210.608 38.037C210.137 37.4567 209.351 37.8788 208.931 37.2457C208.198 36.8237 208.355 36.8764 207.674 36.8764C206.888 36.5071 206.364 36.9819 205.84 36.5599C205.473 36.2961 204.844 36.9292 204.425 36.6654C203.901 36.2961 203.429 36.0851 202.853 36.5071L201.962 36.2961C201.647 36.1906 200.966 36.2433 200.652 36.4544C200.128 36.6654 199.604 37.2457 199.185 37.5095C199.185 37.5095 198.608 38.4063 198.818 38.8283C199.08 39.3031 199.027 39.4614 199.027 39.9889C199.027 40.7275 199.971 41.2551 200.233 41.0968C200.599 40.8858 201.385 41.4661 201.909 41.2023C202.643 40.9385 202.748 41.2023 203.744 41.2023C204.268 41.2023 204.687 41.6771 205.735 41.5716C206.311 41.5716 206.207 41.6771 206.94 41.8354C207.726 42.0464 207.988 42.3629 208.774 42.6267C209.246 42.8905 208.984 43.8401 209.298 44.4204C209.508 44.9479 209.298 46.4251 209.141 46.7943C208.879 47.3746 209.036 48.7463 208.722 49.2211C208.46 49.5376 208.041 50.5399 208.303 50.9092C208.407 51.1202 208.041 51.9643 207.883 52.4391H207.779C207.255 52.4391 206.835 52.4391 206.364 52.1753C206.102 52.1753 205.84 52.3336 205.525 52.4391C205.525 52.4391 205.368 52.4391 205.054 52.4391L204.215 52.1226C204.215 52.1226 204.215 51.7533 204.215 51.7006C204.058 51.5423 204.477 50.3289 204.215 50.3817C204.215 50.1179 204.477 48.9045 204.215 48.6408C204.058 48.4297 204.11 47.8494 204.215 47.4274C204.215 47.2164 203.848 46.8998 203.901 46.0558C204.11 45.4227 203.482 45.37 203.115 44.8952C202.748 44.3149 202.224 45.0007 201.595 44.7897C201.228 45.2117 201.228 45.8975 201.176 45.8975C200.966 45.792 201.019 46.3195 201.071 46.5833C201.176 47.0581 200.809 47.2164 201.176 47.7439C201.176 48.0605 200.966 48.3242 201.071 48.6408C201.176 48.799 201.281 49.8014 200.966 49.8014C200.966 49.9596 200.704 50.751 200.966 51.0675C200.966 51.173 200.966 51.5423 201.071 51.9116C200.599 51.9116 200.075 51.9116 199.656 51.9116C199.237 51.7006 198.136 51.595 197.508 51.9116C197.246 52.1226 196.722 51.9116 196.512 52.2281L195.883 52.4919C195.569 52.6501 195.359 52.4919 195.307 52.7557C195.097 52.8612 194.887 52.7557 194.73 53.0194C194.416 53.1249 194.363 53.547 194.101 53.6525C193.944 53.9163 193.997 54.0745 193.944 54.2328C193.839 54.3911 194.101 54.6021 194.259 54.7603C194.73 55.0769 194.259 55.3406 194.835 55.6044L195.045 55.7099C195.045 55.7099 195.674 55.9737 195.883 56.1847C196.04 56.3957 196.302 56.554 196.564 56.8178C196.826 56.9761 197.036 56.9233 197.141 57.1343C197.455 57.2926 197.77 57.3453 197.927 57.6091C198.084 57.8201 198.294 57.6091 198.608 57.9784C198.765 58.0839 199.709 57.9256 200.023 58.0839C200.914 58.5059 200.914 57.8729 201.7 58.3477C201.857 58.6115 202.381 58.5587 202.643 58.4532C203.429 58.3477 203.901 58.4532 204.582 58.717C205.001 58.928 205.473 59.0862 206.049 58.8752C206.469 58.8752 206.731 58.9807 207.202 58.9807C207.517 59.0862 207.726 59.35 207.988 59.1918C208.355 59.0335 208.774 59.0862 209.036 58.928H209.298L209.351 59.0862Z" fill="white"/>
<path d="M166.799 62.6204C166.799 61.4598 165.489 61.2487 165.489 61.0377C165.332 60.6684 163.393 60.9322 163.236 61.1432C163.078 61.3543 162.554 61.5125 162.345 61.7763C162.188 62.0401 161.664 62.3038 161.559 62.6204C161.349 63.3062 161.297 64.0975 161.192 64.1503C160.878 64.8361 160.668 65.2054 160.93 65.7857L161.035 66.8408C161.035 66.8408 160.825 67.2628 161.035 67.4211C161.244 67.6321 161.297 68.0541 161.506 68.2124C161.821 68.5817 161.506 69.0037 161.664 69.4258C161.664 69.9006 162.659 70.5336 162.659 70.7974C163.183 71.1667 163.183 71.8525 163.498 71.958C163.498 71.958 163.498 72.1163 163.655 72.1163C164.179 72.6966 163.864 72.8021 164.965 73.1186H165.122C165.384 73.3296 165.803 73.2241 166.013 73.3296C166.485 73.6989 167.061 73.2241 167.533 73.5934H167.742C168.371 73.8572 168.79 73.5934 169.367 73.3824C169.943 73.1714 169.681 73.2769 170.258 73.2241C170.886 73.1186 171.62 73.4351 172.249 73.3824C172.721 73.1714 173.087 72.7493 173.559 72.6966C174.031 72.5911 174.397 71.958 174.817 72.1163C175.131 72.2218 175.76 72.1163 176.022 71.958L176.965 71.325C177.28 71.1667 177.751 71.1139 177.908 70.9029C178.17 70.5336 178.852 70.4809 179.009 69.9533L179.585 69.6895C179.585 69.6895 179.9 69.373 179.952 69.0565C180.057 68.8455 179.952 68.4234 179.952 68.2124C179.952 67.8431 179.743 67.6849 179.638 67.4211C179.376 67.3156 179.271 67.1045 179.166 66.9463C179.166 66.9463 179.166 66.788 178.799 66.6825C178.694 66.4715 178.537 66.5242 178.328 66.6825C178.066 66.577 177.908 66.6825 177.908 66.6825C177.751 66.6825 177.489 66.8408 177.332 66.6825C177.122 66.577 176.441 66.5242 176.284 66.6825C176.022 67.0518 175.812 67.1046 175.341 67.1046C174.974 66.788 175.183 67.4738 174.397 67.2628C173.611 67.1046 173.297 67.7376 172.93 67.8959C172.563 68.0014 172.563 67.8959 171.882 67.8959C171.358 67.8959 171.358 68.5817 170.939 68.3707C170.624 68.2124 170.415 67.8959 169.891 67.8959C169.052 67.8959 168.633 68.8455 167.899 68.0541C167.375 67.7376 167.218 66.9463 166.956 66.366C167.166 65.6802 167.166 65.2054 166.851 64.8361C166.589 64.2558 166.851 63.7282 166.694 62.5676M168.895 52.8607C169.262 52.5969 169.943 52.6497 170.467 52.8607C170.624 52.9662 171.253 52.6497 171.725 52.6497C172.197 52.4914 172.878 52.2804 173.559 52.6497C174.031 53.1772 173.769 53.9158 173.559 54.4434C173.297 54.6544 173.297 55.0237 173.297 55.1819C173.297 55.7622 173.035 55.9205 173.507 56.2898C173.507 56.2898 173.611 56.8701 173.611 57.0284C173.821 57.0284 173.611 57.7142 173.611 57.8724C173.349 58.2417 173.349 58.611 173.611 58.9275C173.821 59.2441 173.611 59.6661 173.611 59.8771C173.611 60.2464 173.821 60.2464 174.083 60.4047C174.555 60.774 174.083 61.1432 174.555 61.5125C174.555 61.5125 174.712 61.6356 175.026 61.8818C175.655 62.0401 175.603 62.3566 176.232 61.9873L177.07 61.8818C177.542 61.7235 177.28 61.3015 177.699 61.1432C177.856 60.985 177.856 60.6157 178.17 60.4047C178.642 59.9826 178.17 59.6661 178.642 59.2968C179.114 58.9275 178.799 58.5582 178.642 58.189V57.8197C179.114 57.4504 178.642 57.0811 179.114 56.7118C179.323 56.2898 179.585 55.9733 179.114 55.604C178.852 55.4457 178.852 55.1292 179.114 54.8654C179.585 54.4961 179.114 54.1268 179.585 53.7575C179.585 53.5465 179.69 53.23 179.585 53.019C179.428 52.7552 179.323 52.4914 179.585 52.1221C179.585 51.9111 179.481 51.7001 179.585 51.5418C179.69 51.3836 179.795 51.0143 179.585 50.8033C179.585 50.3285 179.795 49.9064 179.585 49.3789C179.585 49.2206 179.795 48.9041 179.585 48.6403C179.376 48.3765 179.323 48.1128 179.585 47.9017C179.795 47.7962 179.795 47.3742 179.585 47.1632C179.114 47.0049 179.376 46.6356 179.585 46.2663C179.69 46.1081 179.585 45.8971 179.585 45.7388C179.323 45.5805 179.323 45.2112 179.114 44.9475C178.852 44.7892 178.852 44.4727 178.642 44.2089V43.6813C178.38 43.3121 178.38 43.3648 178.17 43.2065V43.0483C178.17 43.0483 177.908 42.679 177.699 42.5207V42.3625C177.489 41.9932 177.018 41.9932 176.756 41.7822C176.546 41.6767 176.756 41.3601 176.651 41.2019C176.389 41.0436 176.284 41.2019 175.97 41.2019C175.603 41.0963 175.655 40.9908 175.445 40.7271C175.183 40.5688 174.712 40.5688 174.24 40.3578C174.083 40.3578 173.769 40.516 173.769 40.516C173.559 40.516 173.297 40.6743 173.297 40.6743C173.297 40.8853 173.087 41.0436 173.087 41.0436C172.668 41.4129 172.249 41.6767 172.197 42.1514C172.197 42.5735 172.301 42.679 172.197 42.9428C171.935 43.3121 171.725 43.2593 172.197 43.6286C172.668 43.9979 172.197 44.3672 172.668 44.6837C173.087 45.053 172.668 45.4223 173.087 45.7915V46.3191C173.297 46.6884 173.297 46.5829 173.559 47.1104C173.664 47.3214 173.559 47.3214 173.559 47.4797C173.297 47.849 173.297 47.7435 173.559 48.1128C173.559 48.3238 173.664 48.3238 173.559 48.5348C173.297 49.0623 172.406 48.5348 172.197 48.9041C171.725 49.2734 170.782 49.1151 170.1 48.9041C169.943 48.9041 169.157 49.1151 168.948 49.2734C168.214 49.4316 167.323 49.2734 166.747 49.0096C166.537 48.7986 165.856 49.1151 165.646 49.1151C165.175 49.2734 164.86 49.4844 164.755 50.0119C164.651 50.3812 164.755 50.7505 164.755 51.067C164.703 51.3836 164.493 51.6473 165.227 52.2276C165.437 52.3859 165.437 52.5969 165.699 52.5969C165.908 52.808 166.904 52.808 167.113 52.9662C167.69 53.1245 168.79 52.9662 169 52.808M155.899 47.5852C155.899 47.5852 155.899 47.4269 155.899 47.3214C156.58 47.4797 157.209 47.4269 157.891 47.5325C158.624 47.6907 159.41 47.3742 160.196 47.6907C160.511 47.3742 161.035 47.5852 161.244 47.5325C161.768 47.3214 162.24 47.3214 162.712 47.3742C162.974 47.3742 163.183 47.3742 163.183 47.3742L164.336 46.8994C164.336 46.8994 165.017 46.8994 165.017 46.4246C165.541 46.4246 165.908 46.2136 166.17 45.9498L166.327 45.6333C166.327 44.7364 166.904 44.3672 167.009 43.6286C167.009 43.2066 166.851 42.9955 166.589 42.7318C166.38 42.5207 166.275 42.257 166.275 41.9404C166.275 41.9404 165.961 41.6239 165.699 41.5184C165.437 41.3601 165.384 41.2019 165.279 40.9908L165.175 40.8326C164.808 40.4105 164.284 40.305 163.812 40.305C163.55 40.6216 163.026 39.9357 162.45 40.1995C162.135 39.9357 161.664 39.883 161.14 39.672C161.14 39.672 160.196 39.3554 159.777 39.5665C159.41 39.672 159.148 39.5665 158.624 39.5665C158.467 39.672 158.205 39.5665 158.205 39.5665C157.629 39.7775 157.314 39.672 157 39.3554C156.79 39.4609 156.738 39.3554 156.528 39.3554C156.266 39.1972 156.056 39.3554 155.847 39.3554C155.847 39.1972 155.585 39.2499 155.27 39.1444C155.061 39.0389 154.904 39.2499 154.746 39.3554C154.484 39.2499 154.222 39.1444 153.646 39.3554C153.227 39.5137 153.122 39.5665 152.807 39.5137C152.545 39.3554 152.283 39.672 152.021 39.7775C151.759 39.6192 151.445 39.6192 151.131 39.7775C150.764 39.883 150.345 40.094 149.873 40.0413C149.506 40.0413 149.087 40.305 148.72 40.516C148.563 40.516 148.51 41.0436 148.248 40.9381C148.248 41.4129 147.724 41.3601 147.777 41.5711C147.62 42.0987 147.41 41.8877 147.358 42.3625C147.358 42.9955 147.358 43.2593 147.829 43.7869C148.196 44.0506 148.877 44.0506 148.982 44.2616C149.244 44.3672 149.296 44.5254 149.611 44.6309C150.083 44.6309 149.925 44.9475 150.292 45.2112C150.554 45.3695 150.607 45.5278 151.078 45.5805L152.283 45.8971L152.493 46.0553L152.126 46.3718C152.126 46.3718 152.021 47.2159 151.602 47.5325C151.759 47.9545 150.921 48.1128 151.131 48.5348C151.026 48.7458 151.288 49.4316 151.026 49.6427C150.711 50.1174 150.921 50.6978 150.607 51.3308C150.449 51.8056 150.502 52.4914 150.502 52.9662C150.24 53.441 150.659 53.7048 150.607 53.8631C150.607 54.3378 150.764 54.3378 150.764 54.8126C151.078 55.2874 150.764 55.7622 150.973 56.1843C150.973 56.448 151.131 56.9228 151.34 57.1339C151.707 57.6087 152.126 58.2945 152.283 58.7693C152.598 59.1913 153.541 59.4023 153.856 59.6133C154.537 59.6133 155.585 60.0881 156.214 60.0881C156.895 60.0881 157.419 60.2992 157.995 60.2464C158.205 60.2464 158.781 60.2464 158.781 60.2464C159.515 59.7716 159.829 60.4047 160.249 60.2464C160.458 59.9826 161.716 59.8244 161.926 59.8244C162.502 58.8748 163.445 59.3496 163.917 58.5582C164.388 58.0835 164.546 58.0835 164.965 57.8197C165.279 57.6614 165.856 56.7118 165.699 56.5536C165.594 56.3425 165.699 56.0788 165.699 55.8677C165.699 55.604 165.279 55.2874 165.122 55.0764C164.913 54.9182 164.598 54.6016 164.179 54.7599C163.812 54.8654 163.707 55.0237 163.498 55.0764C163.131 54.8126 162.974 55.2874 162.816 55.2874C162.607 55.2874 161.926 55.8677 161.716 55.5512C161.297 55.5512 160.615 56.0788 160.144 56.0788C159.725 56.0788 159.463 56.5536 159.096 56.3425C158.886 56.8173 157.681 56.3425 157.314 56.3425C156.895 56.3425 156.476 55.8677 156.109 55.8677C156.109 55.8677 156.109 55.6567 155.899 55.604C155.48 55.604 155.113 55.1819 155.166 54.7599C155.008 54.2851 154.642 54.0741 154.851 53.3355C154.851 53.1245 154.851 52.9135 154.746 52.6497C154.851 51.9639 154.746 51.5946 154.956 50.7505C155.113 50.4867 155.113 50.3285 155.166 49.8009C155.166 49.5899 155.48 49.3261 155.48 49.0096C155.532 48.5876 155.585 48.1128 156.056 47.638M133.89 35.0295C133.89 35.0295 133.68 35.0295 133.156 35.3461C132.947 35.4516 132.947 35.7681 132.737 35.9791C132.737 36.2956 132.528 36.6122 132.528 36.9287C132.266 37.9311 132.056 38.1948 132.423 39.1972C132.58 39.3554 132.528 40.094 132.737 40.2523C133.052 40.8326 132.737 41.4129 132.999 42.1514C133.366 42.9428 132.999 43.8396 133.261 44.5782C133.261 44.7364 133.576 45.264 133.261 45.9498C132.894 46.6884 133.366 47.6907 133.523 47.9545C133.523 48.482 133.209 48.271 133.523 48.6931C133.785 49.1679 133.471 49.9592 133.838 50.4867C133.942 50.8033 133.838 51.3308 133.733 51.6473C133.733 51.8056 133.89 52.1221 134.1 52.2804C134.309 52.4387 134.204 52.5442 134.414 52.7552C134.624 52.9662 134.991 52.7552 135.148 52.8607C135.305 53.0717 135.515 53.1245 135.672 53.1245C136.039 52.9662 136.248 53.1245 136.615 52.9662C136.772 52.808 137.034 52.6497 137.349 52.7024C137.506 52.5442 137.925 52.5442 138.135 52.2276C138.135 52.0694 138.03 51.8584 138.187 51.7001C138.292 51.5418 138.554 51.3836 138.554 51.2253V50.7505C138.554 50.7505 138.764 50.223 138.973 50.0647C139.288 49.8537 138.973 49.2734 139.445 48.7986C139.707 48.3765 139.445 48.0073 139.864 47.7962C139.864 47.4797 139.759 47.0577 139.864 46.7939C139.969 46.6356 140.021 46.3191 139.864 45.475H140.178C140.755 45.2112 140.964 45.475 141.488 45.2112C141.75 45.2112 142.012 45.2112 142.222 45.3167C142.537 45.475 142.903 45.475 143.218 45.3167C143.427 45.1585 143.847 45.475 144.475 45.1585C144.685 44.8947 145.419 44.9475 145.366 44.4727C145.366 44.1034 145.628 43.9979 145.576 43.6813C145.576 43.4176 145.471 42.89 145.209 42.5735C144.842 42.2042 144.528 42.0987 144.161 42.0987C143.794 41.9932 143.689 41.9404 143.061 41.9404C142.537 42.0459 142.274 41.9404 141.855 42.0459C141.646 42.1514 141.279 41.8349 141.017 41.9404C140.702 42.0987 140.231 42.0987 139.759 42.0459C139.759 41.8877 139.759 41.6767 139.654 41.5184C139.497 41.3601 139.497 41.0963 139.13 40.8326C138.973 40.516 139.392 40.0412 139.026 39.5137C139.026 39.2499 138.868 39.0917 138.711 38.8806C138.554 38.7751 138.239 38.4586 138.344 38.0893C138.344 37.8255 137.977 37.6673 138.03 36.9815C138.03 36.7704 137.873 36.6122 137.506 36.5067C137.401 36.3484 137.244 36.1374 136.825 36.1374C136.825 36.1374 136.702 36.0143 136.458 35.7681C136.458 35.7681 136.301 35.4516 135.934 35.4516C135.934 35.0823 135.41 35.4516 135.043 35.0295C134.624 34.8713 134.257 34.8713 133.89 35.0295ZM113.453 41.5711C113.139 41.8349 112.667 42.1515 112.51 42.7318C112.614 43.101 112.352 43.6813 112.09 43.6286C111.828 43.6286 111.462 44.0506 111.2 44.2616C110.99 44.4727 110.99 44.8947 110.938 45.3167C111.042 45.5278 110.728 45.9498 110.361 46.2663C110.047 46.2663 109.785 46.7939 109.785 47.2687C109.575 47.7962 109.523 48.0073 109.156 48.2183C108.789 48.5348 108.527 48.9568 108.527 49.2734L108.213 50.0119V50.5922C108.213 50.5922 107.689 51.3836 107.846 51.6473C107.951 51.9111 108.16 52.1221 108.213 52.1749C108.527 52.1749 108.422 52.6497 108.475 52.7552C108.684 52.9662 109.418 53.019 109.523 53.1245C109.732 53.1245 109.837 53.019 110.099 53.1245C110.414 52.9662 110.728 53.019 110.99 52.7024C111.462 52.1221 111.828 52.3332 112.143 51.7529C112.405 51.5946 112.667 51.1198 112.667 50.856C112.929 50.0647 113.191 49.4316 113.715 49.0624C114.134 48.7986 114.291 47.9017 114.553 47.7962L114.815 47.3214C114.815 47.3214 115.13 47.1104 115.235 46.9521C115.235 47.0577 115.339 47.1632 115.392 47.2687C115.235 47.7435 115.601 48.1655 115.863 48.3238C116.021 48.3238 116.125 48.6931 116.125 48.7986C116.125 49.2206 116.335 49.8537 116.807 50.0119C116.964 50.645 117.278 50.645 117.121 51.2253L117.331 51.3836C117.855 51.7001 117.593 51.8584 118.169 52.4387C118.169 52.9135 118.431 52.808 118.588 53.1772C118.588 53.3355 119.112 53.8103 119.27 53.7575C119.27 53.9158 119.689 54.0741 119.741 54.2851C119.741 54.8654 120.318 54.9709 120.632 55.3929C120.789 55.6567 121.156 55.815 121.628 56.1843C121.575 56.2898 122.099 56.3425 122.99 56.8701C123.2 57.0811 123.881 56.9756 124.143 56.9756C124.405 57.0811 124.667 56.5536 125.453 56.7646C125.768 56.7646 125.977 56.2898 126.449 56.0788C126.816 55.815 127.235 55.3402 127.13 54.6016C126.973 54.0741 127.497 53.7575 127.497 53.2828C127.497 52.8607 127.497 52.3332 127.182 51.9639C127.182 51.6473 126.606 50.5395 126.396 50.3812C126.396 50.223 125.768 49.4844 125.296 49.4844C125.296 49.1151 124.982 48.7458 124.667 48.6931C124.667 48.6931 124.667 47.9017 124.091 47.7435C123.776 47.638 123.881 47.7435 123.514 47.1104C123.462 46.6356 122.885 46.6884 122.466 46.3191C122.309 45.4223 121.837 45.5278 121.418 45.5278C120.999 45.6333 120.632 44.7892 120.213 44.6837L119.217 43.9451C118.85 43.3648 118.169 43.6813 117.855 43.9451C117.75 43.9451 117.645 43.8396 117.488 43.8396C117.645 43.6286 117.802 43.4703 117.96 43.4703C118.169 43.4703 118.274 42.9428 118.431 42.7845C118.431 42.4152 118.641 41.9932 119.112 41.6767C119.06 41.1491 119.794 40.8326 119.794 40.516C119.794 40.1468 119.951 39.7775 119.898 39.4082C119.898 39.0389 119.532 38.4058 119.322 38.4586C118.798 38.4586 118.693 37.9838 118.064 37.9838C117.82 38.0893 117.593 38.1772 117.383 38.2476C117.383 38.2476 116.912 38.7751 116.545 38.9334C116.37 39.0037 116.125 39.162 115.811 39.4082C115.811 39.4082 115.339 39.7247 115.025 39.9885L114.763 40.3578C114.396 40.3578 114.134 40.5688 114.082 40.7798C113.925 40.7798 113.663 41.4656 113.348 41.5711M133.89 60.5102C133.052 60.6684 131.951 60.985 131.584 60.6684C131.06 60.5102 130.484 60.6684 130.169 60.774C130.012 60.8795 129.226 60.985 128.807 60.774C128.388 60.6684 127.759 60.985 127.497 61.0377C126.92 61.1432 126.449 61.6708 125.82 61.7763C125.453 61.9873 125.244 62.2511 124.877 62.5676C124.562 63.0424 124.615 63.0424 124.038 63.5172C123.776 63.8337 123.829 64.0975 123.776 64.2558C123.776 64.6778 123.462 65.0471 123.462 65.4691C123.462 66.0495 123.305 66.6825 123.462 67.1046C123.462 67.5266 123.619 67.8959 123.776 68.3179L124.196 69.162C124.196 69.584 124.353 69.7423 124.51 70.0061C124.667 70.4809 125.086 71.0084 125.506 71.2194C125.663 71.3777 125.663 71.536 125.82 71.747C125.82 71.9053 126.449 72.5911 126.554 72.8548L127.078 73.2241C127.182 73.7517 127.654 73.8572 127.969 74.121C128.073 74.2792 128.44 74.2792 128.44 74.2792C128.859 74.5958 129.331 74.754 129.698 75.1761C129.907 75.1761 130.117 75.1761 130.274 75.4926C130.798 75.8091 131.427 75.8619 131.951 76.3367C132.213 76.4422 132.528 76.1257 133.785 76.6532C134.414 76.2312 135.043 77.1808 135.619 76.917C136.143 76.7587 136.929 77.0752 137.244 77.0752C137.663 76.917 138.135 77.0752 138.449 77.0752C138.921 77.0752 139.392 76.6004 139.916 76.8115C139.916 76.6004 140.388 76.0201 140.545 75.9146C140.65 75.7564 141.174 75.8091 141.174 75.4926C141.174 75.2288 141.488 74.9123 141.698 74.9123C141.908 74.9123 141.855 74.3847 141.908 74.2265C142.065 73.8044 141.908 73.0659 141.75 72.6438C141.593 72.3801 141.174 72.169 140.964 71.9053C140.598 71.9053 140.126 71.1667 139.916 71.2722C139.812 71.3777 139.026 71.0612 138.973 70.8502C138.868 70.6919 138.501 70.3754 138.187 70.4281C137.453 70.3226 137.663 70.4281 137.034 70.4281C136.825 70.2171 136.301 70.3226 136.143 70.2698C135.986 69.9533 135.253 70.0588 134.938 70.1116C134.309 70.2171 134.152 69.8478 133.576 69.6368C133.418 69.2147 132.999 69.2148 132.632 68.8982C132.475 68.5817 131.584 68.6344 131.217 68.3707C130.641 68.2124 130.484 68.0014 129.96 67.8431C129.593 67.6849 129.436 66.6825 129.331 66.4715C129.226 65.9967 129.488 65.8384 129.698 65.5747C129.855 65.3636 130.431 65.4691 130.641 65.5747C131.217 65.7329 131.48 65.6802 131.742 65.5747C131.899 65.5747 132.685 65.7329 132.842 65.5747C133.104 65.3109 133.89 65.5747 134.204 65.2581C134.414 65.0999 135.2 65.2581 135.357 65.0471C135.357 65.0471 136.458 65.0471 136.563 65.0471C136.825 64.7306 137.453 64.8361 137.611 64.4668C137.715 64.3613 138.501 64.203 138.659 63.9393C138.659 63.6227 138.921 63.6227 139.078 63.3589C139.235 63.2007 139.392 62.8842 139.55 62.6204C139.55 62.1983 140.126 62.3039 140.178 61.8291C140.388 61.6708 140.388 61.196 140.65 61.0377L140.755 60.5102C140.755 60.5102 140.912 60.1409 140.912 60.0354C140.912 59.7189 140.545 58.9803 140.755 58.6638C140.755 58.3472 140.912 58.0834 140.493 57.7142C140.231 57.5559 140.336 57.1339 140.178 56.9228C140.074 56.9228 140.178 56.5008 139.969 56.2898C139.812 56.0788 139.602 55.7622 139.602 55.4457C139.288 55.2874 138.711 55.0237 138.606 54.7071C138.449 54.6016 138.135 54.6016 137.977 54.3906C137.82 54.3906 137.715 54.2851 137.715 54.2851C137.611 54.0741 136.825 54.0741 136.615 53.9686L135.619 54.0741C135.619 54.0741 134.728 54.0741 134.414 54.2851C134.309 54.5489 133.156 54.2851 132.999 54.4434C132.79 54.6016 132.266 54.4434 132.161 54.7071C131.899 54.7071 131.794 54.8126 131.584 54.8126C131.322 54.7071 131.113 55.2347 130.798 55.2347C130.379 55.2347 130.012 55.3402 129.907 55.7095C129.75 55.7095 129.645 56.1843 129.331 56.1843C129.069 56.1843 128.807 56.5008 128.65 56.8173C128.493 57.0811 128.388 57.4504 128.493 57.7142C128.807 57.8724 128.545 58.2417 128.755 58.4527C128.859 58.4527 129.121 58.611 129.279 58.9275C129.436 59.0858 130.065 59.0858 130.222 59.2441C130.693 59.4023 130.746 59.033 131.322 58.822C131.794 58.9803 131.742 58.7165 132.108 58.611C132.266 58.4 132.842 58.611 133.052 58.5055C133.209 58.3472 134.414 58.2945 134.466 58.2945C134.571 58.1362 135.357 58.2945 135.515 58.2945L136.039 58.7693C136.301 58.9275 136.196 59.4023 136.301 59.5078C136.458 59.6661 136.196 59.7716 136.196 60.0881C136.196 60.0881 135.619 60.5629 135.515 60.5102C135.148 60.4047 134.624 60.6157 134.152 60.6157" fill="white"/>
<path d="M447.572 37.9298C447.834 38.0353 447.834 38.2991 447.834 38.2991C447.677 38.5629 447.73 38.5101 447.834 38.7212L447.677 39.407C447.52 39.7235 447.153 39.829 446.891 40.1983C446.629 40.5676 446.262 40.6731 446.105 40.9369C446 41.2006 445.948 41.4644 445.686 41.6227L445.267 41.8865C444.847 42.3613 444.533 42.6778 444.271 43.2053C444.271 43.6801 443.747 43.6801 443.59 44.2077C443.433 44.5242 443.066 44.6297 442.961 44.9463C442.856 45.21 442.542 45.4738 442.385 45.6848C442.542 45.8431 442.175 46.4761 441.965 46.5289C441.808 46.8454 441.441 47.2675 441.336 47.5312C441.494 47.9005 441.179 48.5863 441.127 48.7446C440.97 48.9556 440.655 49.1666 440.498 49.4304C440.288 49.958 440.079 50.169 439.502 50.1162C439.502 50.1162 439.432 50.2569 439.293 50.5383C438.664 50.6965 438.14 50.6438 437.616 50.3273C437.301 50.1162 437.092 49.5887 437.301 49.0611C437.301 48.9029 437.144 48.6391 437.144 48.4808C436.987 48.3226 437.144 48.0588 437.301 47.795C437.301 47.5312 437.197 47.5312 437.301 47.162C437.459 47.0037 437.721 46.7399 437.825 46.4234C437.983 46.2124 437.93 45.5793 437.983 45.2628C438.14 44.8407 438.664 44.3132 438.821 43.9439C438.978 43.7856 439.031 43.3636 439.188 43.0998C439.398 42.5723 439.345 42.4668 439.712 41.9392L439.922 41.4117C439.922 41.4117 440.393 40.9896 440.498 40.6731L440.708 40.1455L441.127 39.9873C441.127 39.7763 441.546 39.196 441.703 39.1432L442.227 38.8794C442.227 38.8794 442.647 38.0881 442.856 37.9826L443.066 37.8771C443.066 37.8771 443.485 37.5078 443.799 37.1385C443.799 37.1385 443.922 37.0858 444.166 36.9802C444.166 36.9802 444.585 36.822 444.9 36.8747L445.057 36.7165C445.057 36.7165 445.476 36.822 445.791 36.8747C446.105 37.1913 446.524 36.611 446.996 37.0858C447.153 37.455 447.31 37.5078 447.468 37.8771L447.572 37.9298ZM450.717 61.7223L450.926 61.2475C450.926 60.9838 451.136 60.8255 450.926 60.6145C450.769 60.6145 450.926 60.0342 450.559 59.9287C450.193 59.6121 450.297 59.6649 449.983 59.5066C449.826 59.5066 449.564 59.5066 449.354 59.6121C449.249 59.6121 448.62 59.7704 448.411 59.9814C448.254 60.0869 447.625 59.9814 447.468 60.1397C447.153 60.3507 447.258 60.6145 446.734 60.509C446.21 60.72 446.158 61.142 445.686 61.0365C445.529 60.8783 444.847 61.0365 444.69 60.8255C444.481 60.6145 444.219 60.4035 444.061 60.4035C443.852 60.2452 444.061 59.8759 443.747 59.6649C443.59 59.4011 443.642 58.9791 443.747 58.7153C443.904 58.3988 444.166 57.9767 444.428 57.9767C444.743 57.9767 444.795 57.5019 444.9 57.5019C445.057 57.1326 445.371 56.9744 445.791 56.9216C446.105 56.9216 446.262 56.3413 446.524 56.4468C446.734 56.3413 446.786 56.2886 447.048 56.2358C447.206 55.972 447.73 56.0775 447.887 55.8665C447.992 55.7083 448.778 55.8665 448.83 55.55C449.092 55.339 449.459 55.4445 449.564 55.2862L450.612 55.4972C450.612 55.4972 451.083 55.6028 451.293 55.7083C451.293 55.7083 451.45 55.8665 451.607 55.8665C451.765 56.0248 452.079 55.972 452.289 56.0775C452.446 56.3941 452.603 56.6051 452.917 56.7634C452.917 57.0799 453.179 57.3964 453.389 57.5547C453.651 57.7657 453.599 58.1877 453.704 58.2405C453.913 58.3988 453.861 58.8208 454.123 59.0318C454.594 59.2956 454.49 59.6121 454.542 59.9814C454.385 60.2979 454.804 61.0365 454.856 61.3003C454.856 61.4586 454.856 61.6168 454.752 61.7751V62.4081C454.49 62.5664 454.594 63.0412 454.332 63.305C454.332 63.7798 453.704 63.727 453.756 64.1491C453.651 64.5183 453.546 64.7821 453.389 64.9404C453.284 65.2569 452.97 65.2569 453.022 65.5734C452.865 65.9427 452.551 65.5734 452.446 65.7317C452.289 66.101 451.712 66.101 451.45 66.4175C451.293 66.5758 450.717 66.5758 450.664 66.523C450.559 66.8396 450.245 66.7341 449.983 66.8923C449.721 67.2089 449.302 67.0506 449.092 67.3144C448.935 67.4726 448.096 67.4726 447.992 67.4726C447.31 67.0506 447.258 67.4726 446.682 67.4726C446.524 67.3671 446.315 67.3144 446.21 67.4726C446.053 67.7892 445.843 68.264 446.21 68.4222C446.367 68.5805 446.524 69.108 446.577 69.3718C446.577 69.8994 447.31 70.3214 447.939 70.4269C448.306 70.6379 449.249 70.5324 449.407 70.7962C449.773 71.1127 450.193 71.06 450.455 71.482C451.031 71.5875 451.241 71.904 451.869 71.7458C452.131 71.7458 452.917 71.9568 453.127 72.2206C453.284 72.3788 453.861 72.0623 454.07 72.3788C454.647 72.2733 454.437 72.2206 455.171 72.2206C455.485 72.0623 455.904 72.3788 456.009 72.5371C456.114 72.7481 456.795 72.9591 457.005 72.8009C457.215 72.6426 457.739 73.4339 458.158 73.3812C458.315 73.5922 458.839 73.7505 458.996 74.067C459.206 74.4363 459.415 75.2276 459.311 75.6496C459.311 75.8079 459.415 76.3882 459.206 76.3882C459.049 76.3882 458.734 76.7575 458.787 77.0213C458.787 77.3378 458.315 77.3906 458.158 77.5488C458.053 77.7071 457.581 77.8654 457.634 78.0764C457.005 77.9181 456.638 78.4984 456.166 78.4984C455.852 78.4984 455.38 78.4984 454.961 78.6567C454.647 78.6567 453.808 78.3929 453.337 78.6567C452.76 78.9732 452.027 78.0236 451.398 78.4984C450.088 78.1819 449.826 78.4984 449.511 78.3929C448.882 77.9709 448.201 77.9709 447.73 77.7071C447.572 77.3906 447.363 77.4433 447.101 77.4433C446.734 77.0213 446.21 76.9158 445.791 76.7047C445.791 76.7047 445.476 76.7047 445.319 76.5465C445.057 76.3355 444.481 76.23 444.323 75.7024L443.799 75.3859C443.642 75.1221 442.961 74.5418 442.909 74.3308L442.542 73.7505C442.07 73.5922 441.598 73.0647 441.389 72.6426C441.179 72.4316 440.97 72.2733 440.97 71.7985C440.812 71.5348 440.55 71.2182 440.446 70.9545C440.236 70.5324 440.026 70.2159 440.026 69.7411C439.817 69.3718 439.869 68.686 439.869 68.1057C439.869 67.6836 440.079 67.2088 440.026 66.7868C440.026 66.6285 440.026 66.3648 440.184 66.0482C440.76 65.5207 440.655 65.2569 440.917 64.6766C441.179 64.4128 441.389 64.0963 441.756 63.8325C442.332 63.6743 442.804 63.0412 443.328 62.8829C443.59 62.7774 444.166 62.3554 444.638 62.4609C445.057 62.5664 445.896 62.3026 446 62.2499C446.315 62.0389 446.891 61.8806 447.415 61.9334C447.782 62.2499 448.463 62.0389 449.249 61.7751C449.773 61.6696 450.297 61.4058 450.612 61.4586L450.717 61.7223ZM447.73 50.38C447.415 50.2217 446.786 49.7469 446.891 49.1666C446.996 48.9029 446.891 48.4808 446.524 48.3753C446 48.2171 446.315 47.162 445.738 47.0037C445.214 46.7399 445.581 46.0013 444.952 45.5793C444.952 45.1573 444.585 45.1045 444.847 44.5242C444.952 44.1549 445.005 44.2604 445.109 43.9439C445.267 43.6801 445.267 43.5219 445.529 43.2053C445.686 42.8888 446.42 42.7833 446.786 43.0471C447.048 43.1526 447.363 42.8888 447.52 42.9416C447.887 43.0471 447.73 43.1526 448.096 43.2581L448.778 43.4691C449.144 43.4691 449.197 43.6801 449.511 43.8384C449.983 43.9967 450.245 44.1549 450.402 44.7352C450.664 44.8407 450.821 45.1573 451.136 45.3155C451.398 45.4738 451.555 45.8431 451.869 45.9486C452.393 46.2124 452.236 47.0037 452.865 47.2675V47.4785C453.232 47.4785 453.337 47.9005 453.599 48.0588C453.966 48.3226 454.175 48.7446 454.07 49.3249C454.175 49.4832 454.228 49.6414 454.437 49.747C454.856 49.958 454.804 50.4328 454.699 50.9603L454.961 51.5934C454.961 51.5934 454.856 52.0154 454.752 52.3847C454.752 52.3847 454.123 52.8595 454.228 53.1233C453.599 53.9146 453.389 53.8091 452.498 53.9673C452.184 53.8091 451.974 53.9673 451.765 53.8091C451.765 53.8091 451.625 53.7036 451.345 53.4926C451.083 53.3343 450.821 53.4926 450.821 53.2815C450.245 53.0705 449.721 52.8595 449.511 52.4902C449.249 52.0154 448.935 52.0682 448.778 51.7516C448.62 51.5406 448.516 51.3296 448.254 51.1713C447.992 51.1713 447.834 50.591 447.782 50.4328L447.73 50.38ZM468.062 71.7458C468.062 71.7458 467.643 71.904 467.328 71.904C467.223 71.904 466.49 72.0623 466.385 72.0623C466.123 72.2206 466.071 71.9568 465.913 72.0623C465.651 72.0623 465.18 72.2733 465.127 72.2733C465.127 72.1678 464.237 72.2733 464.184 72.2733C463.817 72.0623 463.765 72.2733 463.346 72.1151L462.769 72.0096C462.769 72.0096 462.35 71.7458 462.036 71.904L461.616 72.0096C461.616 72.0096 461.092 72.1678 460.778 72.0096C460.621 71.904 460.411 71.7985 460.044 71.693C459.73 71.482 459.782 71.904 459.415 71.693L458.682 71.3765C458.682 71.3765 458.472 70.3214 458.21 70.3214C458.105 69.7411 458.21 69.3718 458.367 69.1608C458.21 69.0025 458.001 68.8443 458.001 68.7915C457.843 68.686 457.581 68.1584 457.529 68.0529C457.529 67.8947 457.372 67.4726 457.529 67.0506C457.634 66.8396 457.215 65.9955 457.162 65.8372C456.952 65.6262 457.005 64.7821 457.319 64.4656C457.477 64.3073 457.319 63.4105 457.319 63.2522C457.319 63.094 457.057 62.1971 457.057 62.0916C457.057 61.8806 457.057 61.353 457.057 61.2475C457.057 61.0893 457.215 60.509 457.057 59.7704C456.9 59.1373 457.057 58.3988 457.267 58.135C457.581 57.924 457.791 57.0799 458.105 57.1854C458.525 57.1854 458.629 56.8161 459.206 56.9744C459.73 56.7106 459.992 56.9744 460.359 57.1854C460.359 57.4492 460.935 57.6074 461.04 57.7657C461.407 58.0822 461.512 58.6098 461.512 58.8208C461.512 59.1901 461.302 59.5594 461.354 59.8759C461.459 59.8759 461.512 59.7704 461.512 59.7176C461.669 59.3484 461.983 59.6121 462.14 59.4539C462.455 59.0846 462.455 58.9263 462.822 58.9263C462.979 58.9263 463.136 58.8208 463.136 58.6098C463.293 58.4515 463.608 58.4515 463.765 58.2933H464.079C464.079 58.2933 464.446 58.2933 464.603 58.135C464.761 57.9767 465.023 57.9767 465.285 57.8185C465.442 57.6602 465.651 57.6074 465.966 57.6074C466.28 57.6074 466.437 57.3437 466.804 57.4492C466.961 57.4492 467.119 57.4492 467.433 57.6074C467.643 57.7657 467.852 57.5019 468.114 57.4492C468.324 57.4492 468.586 57.6602 468.796 57.6602C469.162 57.6602 469.058 57.6602 469.372 57.6602C469.529 57.8185 469.844 58.0295 470.158 58.0295C470.263 58.135 470.525 58.557 470.787 58.6098C470.944 58.7681 470.944 59.0318 471.206 59.1373C471.468 59.4011 471.573 59.6649 471.73 59.9287C472.097 60.1397 471.573 60.72 471.887 60.931C472.097 61.353 472.097 61.5641 471.887 61.9334C472.045 62.2499 472.202 62.4081 472.202 62.7247C472.202 62.8829 471.678 63.1467 471.94 63.5688C472.202 63.938 471.94 64.3073 472.045 64.4656C472.202 64.7294 471.887 65.2569 471.625 65.4679C471.625 65.7845 471.52 66.2593 471.101 66.4703C470.944 66.5758 470.996 67.1561 470.892 67.1561C470.21 67.6309 470.263 68.3695 469.739 68.2112C469.582 68.2112 469.32 68.2112 469.058 68.3695L469.529 68.5277C469.896 68.686 470.001 69.0553 470.21 69.5828C470.315 69.7938 470.682 70.2686 470.21 70.8489C469.896 71.0072 470.053 71.3237 469.791 71.693C469.424 71.8513 468.953 71.8513 468.796 71.904C468.691 71.904 468.429 71.904 468.062 71.904V71.7458ZM460.568 43.6801C460.149 42.9416 460.673 42.2557 460.201 41.8337C459.887 41.5172 459.835 41.4117 459.835 41.1479C459.625 40.8841 459.677 40.5148 459.468 40.4093C459.049 39.9873 459.468 39.3015 459.049 38.8794C458.682 38.3519 458.891 37.9826 459.153 37.5078C459.468 37.2968 459.468 36.9275 459.625 36.7692C459.625 36.5582 459.939 36.611 460.621 36.0307C460.883 35.6614 461.04 35.5559 461.512 35.3448C462.193 34.9756 462.769 35.3448 463.241 35.5031C463.817 35.6614 464.341 35.2393 464.865 35.9251C465.599 36.2944 466.018 36.6637 466.28 37.244C466.49 37.244 466.437 37.6661 467.066 38.1936C467.328 38.4046 467.276 38.7739 467.433 38.9322C467.695 39.0904 467.852 39.3542 467.852 39.5125C468.114 40.2511 468.009 40.4093 468.272 40.4093C468.534 40.7786 468.638 41.2006 468.638 41.5699C468.9 41.8865 469.005 42.6778 468.953 42.9943V43.1526C469.32 43.1526 469.739 43.2581 469.896 43.3108C470.315 43.4691 471.101 43.3108 471.258 43.2053C471.678 43.0471 472.673 42.8361 473.145 42.9416H473.669C474.455 42.9416 474.717 43.3108 474.927 43.5746C475.084 43.8384 475.346 44.2077 475.346 44.5242C475.66 44.788 475.503 45.421 475.189 45.4738C474.717 45.8958 474.193 46.5289 473.355 46.3179C473.145 46.3179 472.883 46.2124 472.464 46.3179C472.307 46.4234 471.992 46.3179 471.363 46.3179C470.944 46.3179 470.525 46.6344 470.053 46.7399C469.477 46.8454 469.215 46.8454 468.9 46.7399C468.9 46.9509 468.743 47.2147 468.691 47.373V48.2698C468.691 48.2698 468.429 49.2722 468.062 49.5359C467.747 49.7997 467.485 50.6965 467.485 51.1713C467.643 51.5406 467.276 51.8571 467.014 52.0682L466.542 52.8067C466.542 52.8067 466.333 53.3343 466.28 53.5453C466.071 53.7036 465.861 54.0201 465.547 54.2311C465.389 54.3366 464.813 55.2862 464.551 55.2862C464.079 55.6555 463.503 55.7083 463.241 55.972C463.136 55.972 461.826 55.8665 461.669 55.8665C461.354 55.972 460.935 55.8665 460.568 55.6028C459.939 55.2335 459.939 54.9697 459.73 54.7059C459.73 54.5477 459.835 54.3366 459.573 53.8618C459.311 53.2288 459.573 53.0705 459.887 52.8595C460.306 52.4375 459.782 52.0682 459.992 51.4351C460.201 50.8021 460.201 50.6965 460.201 50.2745C460.201 49.7997 460.621 49.6414 460.568 49.0611C460.568 48.9029 460.359 48.3226 460.411 47.795C460.411 47.584 460.568 47.2147 460.568 46.8454C460.411 46.6872 460.411 46.3179 460.725 46.1596C460.935 45.7376 460.988 45.3683 460.883 44.8407C460.883 44.5242 460.883 43.7856 460.516 43.7856L460.568 43.6801ZM466.961 67.2616C466.28 66.5758 466.804 65.9427 466.804 65.8372C466.961 65.7317 467.014 65.2042 466.909 64.9931C466.752 64.7294 466.909 64.4128 466.909 64.2546C466.752 63.938 466.909 63.7798 467.066 63.4632L467.223 63.094L467.066 62.6719C467.223 62.3026 466.909 62.1444 466.804 61.8806C466.804 61.7223 466.437 61.7223 466.437 61.5113C466.28 61.353 465.966 61.5113 465.756 61.5113C465.599 61.8806 465.285 61.6696 465.127 61.6696L464.656 61.8278C464.656 61.8278 464.341 61.9861 464.236 61.9861L463.922 62.0916L463.503 62.2499C463.136 62.6192 462.874 62.2499 462.769 62.6192C462.402 62.6192 462.193 62.8829 461.826 62.8829C461.721 62.8829 461.669 62.7774 461.564 62.7247V62.8829C461.564 63.3577 461.721 63.938 461.669 64.4656C461.826 64.8349 461.983 65.2569 461.826 65.89C461.826 66.2593 461.407 66.2593 461.407 66.6813C461.25 67.0506 461.407 67.1561 461.512 67.4199C461.407 67.6309 461.407 68.1057 461.354 68.475C461.774 68.475 462.14 68.475 462.507 68.3695H462.717C463.66 67.8419 464.341 68.7915 465.075 68.0002C465.547 68.264 465.861 68.264 466.123 68.3695C466.857 67.7364 467.223 68.5277 467.905 67.9474C468.062 67.9474 468.219 67.9474 468.376 67.9474C468.219 67.7892 467.957 67.5781 467.747 67.6309C467.328 67.7364 467.328 67.4726 466.909 67.2088L466.961 67.2616Z" fill="white"/>
</svg>
