<svg xmlns="http://www.w3.org/2000/svg" width="12.523" height="11.773" viewBox="0 0 12.523 11.773"><g transform="translate(0.75 0)"><path d="M14.3,26.924H5.725A1.977,1.977,0,0,1,3.75,24.95V22.5h1.5v2.45a.475.475,0,0,0,.475.475H14.3a.475.475,0,0,0,.475-.475V22.5h1.5v2.45A1.977,1.977,0,0,1,14.3,26.924Z" transform="translate(-4.5 -15.151)" fill="#333"/><path d="M13.562,18.812a.748.748,0,0,1-.53-.22L9.97,15.53,11.03,14.47,13.562,17l2.532-2.532,1.061,1.061-3.062,3.062A.748.748,0,0,1,13.562,18.812Z" transform="translate(-8.05 -10.713)" fill="#333"/><path d="M18.75,11.849h-1.5V4.5h1.5Z" transform="translate(-12.488 -4.5)" fill="#333"/></g></svg>