<?xml version="1.0" encoding="utf-8"?>
<!-- Generator: Adobe Illustrator 16.0.0, SVG Export Plug-In . SVG Version: 6.00 Build 0)  -->
<!DOCTYPE svg PUBLIC "-//W3C//DTD SVG 1.1//EN" "http://www.w3.org/Graphics/SVG/1.1/DTD/svg11.dtd">
<svg version="1.1" id="레이어_1" xmlns="http://www.w3.org/2000/svg" xmlns:xlink="http://www.w3.org/1999/xlink" x="0px"
	 y="0px" width="34px" height="34px" viewBox="1 1 34 34" enable-background="new 1 1 34 34" xml:space="preserve">
<path fill="#303336" d="M14.271,9.063c-0.957,0.045-1.611,0.198-2.183,0.422c-0.592,0.231-1.093,0.54-1.592,1.041
	s-0.806,1.003-1.035,1.596c-0.221,0.572-0.372,1.227-0.414,2.185S8.996,15.574,9,18.018c0.005,2.443,0.016,2.75,0.062,3.71
	c0.046,0.957,0.198,1.609,0.423,2.182c0.231,0.592,0.54,1.094,1.041,1.594c0.501,0.498,1.003,0.807,1.597,1.035
	c0.572,0.221,1.227,0.371,2.185,0.414c0.958,0.041,1.266,0.051,3.708,0.047c2.443-0.006,2.752-0.018,3.711-0.063
	c0.961-0.045,1.61-0.197,2.185-0.422c0.592-0.23,1.093-0.541,1.592-1.041c0.499-0.502,0.808-1.004,1.034-1.598
	c0.223-0.572,0.373-1.229,0.414-2.186c0.043-0.961,0.053-1.27,0.048-3.71c-0.005-2.443-0.017-2.75-0.063-3.709
	c-0.045-0.96-0.195-1.612-0.422-2.184c-0.229-0.591-0.541-1.092-1.041-1.592s-1.004-0.807-1.596-1.035
	c-0.572-0.222-1.229-0.373-2.186-0.414C20.732,9.005,20.424,8.995,17.98,9C15.538,9.006,15.231,9.018,14.271,9.063z M14.377,25.334
	c-0.878-0.039-1.354-0.186-1.672-0.307c-0.42-0.162-0.72-0.357-1.036-0.672s-0.511-0.613-0.675-1.033
	c-0.123-0.318-0.271-0.793-0.313-1.672c-0.045-0.947-0.054-1.232-0.06-3.634c-0.004-2.404,0.004-2.688,0.046-3.637
	c0.037-0.876,0.184-1.354,0.306-1.671c0.162-0.421,0.357-0.72,0.671-1.036s0.614-0.511,1.034-0.675
	c0.317-0.124,0.793-0.271,1.67-0.313c0.949-0.045,1.233-0.054,3.634-0.059c2.404-0.005,2.688,0.004,3.64,0.045
	c0.877,0.038,1.354,0.184,1.67,0.306c0.422,0.162,0.722,0.356,1.037,0.671c0.315,0.314,0.512,0.613,0.676,1.034
	c0.123,0.316,0.271,0.792,0.313,1.67c0.045,0.949,0.056,1.234,0.061,3.635c0.004,2.402-0.005,2.689-0.046,3.636
	c-0.039,0.877-0.185,1.354-0.308,1.672c-0.162,0.42-0.356,0.723-0.67,1.037c-0.314,0.314-0.614,0.51-1.035,0.674
	c-0.315,0.125-0.793,0.271-1.67,0.313c-0.948,0.045-1.231,0.055-3.635,0.061C15.609,25.385,15.326,25.375,14.377,25.334
	 M21.714,13.19c0,0.213,0.063,0.422,0.185,0.6c0.119,0.177,0.287,0.315,0.483,0.397c0.198,0.082,0.415,0.103,0.625,0.061
	c0.209-0.042,0.401-0.146,0.554-0.297c0.149-0.151,0.252-0.344,0.295-0.554c0.041-0.209,0.02-0.426-0.063-0.624
	c-0.083-0.197-0.222-0.366-0.399-0.484c-0.178-0.119-0.387-0.182-0.6-0.181c-0.287,0-0.561,0.115-0.764,0.318
	C21.827,12.628,21.714,12.903,21.714,13.19z M13.378,18.009c0.005,2.553,2.078,4.618,4.63,4.612
	c2.553-0.004,4.618-2.078,4.612-4.628c-0.004-2.553-2.078-4.618-4.63-4.613C15.438,13.384,13.373,15.458,13.378,18.009z
	 M14.999,18.006c-0.001-0.593,0.174-1.174,0.502-1.668s0.796-0.879,1.345-1.107c0.547-0.228,1.15-0.289,1.732-0.174
	c0.582,0.115,1.115,0.399,1.537,0.818c0.42,0.419,0.707,0.953,0.822,1.535c0.117,0.582,0.061,1.185-0.168,1.734
	c-0.226,0.549-0.607,1.018-1.102,1.35c-0.493,0.33-1.07,0.504-1.664,0.506c-0.395,0-0.783-0.076-1.148-0.227
	c-0.363-0.148-0.694-0.371-0.975-0.648c-0.279-0.275-0.501-0.605-0.652-0.973C15.079,18.789,15,18.401,14.999,18.006z"/>
</svg>
