<svg width="56" height="56" viewBox="0 0 56 56" fill="none" xmlns="http://www.w3.org/2000/svg">
<path d="M47.8057 55.5234H8.01044C7.46181 55.5234 7.01294 55.0745 7.01294 54.5259V14.2768C7.01294 13.7282 7.46181 13.2793 8.01044 13.2793H47.8057C48.3543 13.2793 48.8032 13.7282 48.8032 14.2768V54.5259C48.8032 55.0745 48.3543 55.5234 47.8057 55.5234ZM9.00794 53.5284H46.8082V15.2743H9.00794V53.5284Z" fill="#1E2124"/>
<path d="M36.4341 14.0627C35.8855 14.0627 35.4366 13.6139 35.4366 13.0652C35.4366 11.5291 34.1848 10.2772 32.6536 10.2772C31.1225 10.2772 29.8706 11.5291 29.8706 13.0652C29.8706 13.6139 29.4217 14.0627 28.8731 14.0627C28.3245 14.0627 27.8756 13.6139 27.8756 13.0652C27.8756 10.4268 30.0202 8.28223 32.6536 8.28223C35.287 8.28223 37.4316 10.4268 37.4316 13.0652C37.4316 13.6139 36.9828 14.0627 36.4341 14.0627Z" fill="#1E2124"/>
<path d="M33.711 15.2742C33.4566 15.2742 33.2023 15.1744 33.0078 14.9799L31.3419 13.3141C30.9529 12.925 30.9529 12.2916 31.3419 11.9026C31.731 11.5136 32.3644 11.5136 32.7534 11.9026L34.4192 13.5684C34.8083 13.9575 34.8083 14.5909 34.4192 14.9799C34.2247 15.1744 33.9704 15.2742 33.716 15.2742H33.711Z" fill="#1E2124"/>
<path d="M21.8807 12.2768C20.948 12.2768 20.0702 11.9127 19.4118 11.2544C18.7535 10.596 18.3894 9.71821 18.3894 8.78555C18.3894 7.85289 18.7535 6.97508 19.4118 6.31673L23.4767 2.25192C24.135 1.59357 25.0128 1.22949 25.9455 1.22949C26.8781 1.22949 27.7559 1.59357 28.4143 2.25192C29.0726 2.91027 29.4367 3.78808 29.4367 4.72074C29.4367 5.6534 29.0726 6.5312 28.4143 7.18955L24.3495 11.2544C23.6911 11.9127 22.8133 12.2768 21.8757 12.2768H21.8807ZM25.9455 3.21451C25.5465 3.21451 25.1674 3.36912 24.8831 3.65341L20.8183 7.71822C20.534 8.00251 20.3794 8.37657 20.3794 8.78056C20.3794 9.18455 20.534 9.55861 20.8183 9.83791C21.3819 10.4065 22.3744 10.4015 22.938 9.83791L27.0028 5.7731C27.2871 5.48881 27.4417 5.11475 27.4417 4.71076C27.4417 4.30677 27.2871 3.93271 27.0028 3.64842C26.7185 3.36413 26.3445 3.20953 25.9405 3.20953L25.9455 3.21451Z" fill="#1E2124"/>
<path d="M24.9829 8.81535C24.7285 8.81535 24.4742 8.7156 24.2797 8.52109L22.14 6.38145C21.751 5.99242 21.751 5.35902 22.14 4.96999C22.5291 4.58097 23.1625 4.58097 23.5515 4.96999L25.6911 7.10962C26.0802 7.49864 26.0802 8.13206 25.6911 8.52109C25.4966 8.7156 25.2422 8.81535 24.9879 8.81535H24.9829Z" fill="#1E2124"/>
<path d="M42.4016 27.1255H13.125V49.4246H42.4016V27.1255Z" fill="#388EEB"/>
<path d="M34.125 35.8105H29.8189V31.5005H25.3061V35.8105H21V40.3213H25.3061V44.6255H29.8189V40.3213H34.125V35.8105Z" fill="white"/>
<path d="M42.5489 50.2072H13.2723C12.7237 50.2072 12.2748 49.7583 12.2748 49.2097V26.9106C12.2748 26.362 12.7237 25.9131 13.2723 25.9131H42.5489C43.0975 25.9131 43.5464 26.362 43.5464 26.9106V49.2097C43.5464 49.7583 43.0975 50.2072 42.5489 50.2072ZM14.2648 48.2122H41.5464V27.9081H14.2648V48.2122Z" fill="#388EEB"/>
<path d="M36.883 19.8729H18.928C18.3794 19.8729 17.9305 19.4241 17.9305 18.8754C17.9305 18.3268 18.3794 17.8779 18.928 17.8779H36.883C37.4317 17.8779 37.8805 18.3268 37.8805 18.8754C37.8805 19.4241 37.4317 19.8729 36.883 19.8729Z" fill="#1E2124"/>
<path d="M36.883 23.5287H18.928C18.3794 23.5287 17.9305 23.0798 17.9305 22.5312C17.9305 21.9826 18.3794 21.5337 18.928 21.5337H36.883C37.4317 21.5337 37.8805 21.9826 37.8805 22.5312C37.8805 23.0798 37.4317 23.5287 36.883 23.5287Z" fill="#1E2124"/>
</svg>
