<svg width="56" height="56" viewBox="0 0 56 56" fill="none" xmlns="http://www.w3.org/2000/svg">
<path d="M43.123 40.3328H18.8089C18.3252 40.3328 17.9162 39.9886 17.8264 39.5148L11.7117 6.07361H4.80902C4.2604 6.07361 3.81152 5.62474 3.81152 5.07611C3.81152 4.52749 4.2604 4.07861 4.80902 4.07861H12.5446C13.0284 4.07861 13.4374 4.42276 13.5272 4.89657L19.6418 38.3378H43.123C43.6716 38.3378 44.1205 38.7866 44.1205 39.3353C44.1205 39.8839 43.6716 40.3328 43.123 40.3328Z" fill="#1E2124"/>
<path d="M54.5443 47.6995H45.7015C45.2377 47.6995 44.8337 47.3753 44.7289 46.9214L40.32 27.4453C38.0657 20.7421 33.5769 20.1136 33.133 20.0687H15.8663C15.3176 20.0687 14.8688 19.6199 14.8688 19.0712C14.8688 18.5226 15.3176 18.0737 15.8663 18.0737H33.1779C33.1779 18.0737 33.2228 18.0737 33.2427 18.0737C33.4971 18.0887 39.4671 18.5825 42.2252 26.8567C42.2352 26.8867 42.2452 26.9216 42.2502 26.9515L46.4945 45.6995H54.5394C55.088 45.6995 55.5369 46.1484 55.5369 46.697C55.5369 47.2456 55.088 47.6945 54.5394 47.6945L54.5443 47.6995Z" fill="#1E2124"/>
<path d="M39.0681 26.702H16.5994C16.0508 26.702 15.6019 26.2532 15.6019 25.7045C15.6019 25.1559 16.0508 24.707 16.5994 24.707H39.0681C39.6167 24.707 40.0656 25.1559 40.0656 25.7045C40.0656 26.2532 39.6167 26.702 39.0681 26.702Z" fill="#1E2124"/>
<path d="M15.4923 53.3302C22.8166 53.3302 28.7541 47.3927 28.7541 40.0684C28.7541 32.7441 22.8166 26.8066 15.4923 26.8066C8.16807 26.8066 2.23059 32.7441 2.23059 40.0684C2.23059 47.3927 8.16807 53.3302 15.4923 53.3302Z" fill="#388EEB"/>
<path d="M15.3125 49C20.3866 49 24.5 44.8866 24.5 39.8125C24.5 34.7384 20.3866 30.625 15.3125 30.625C10.2384 30.625 6.125 34.7384 6.125 39.8125C6.125 44.8866 10.2384 49 15.3125 49Z" fill="white"/>
<path d="M15.4923 54.3276C7.63198 54.3276 1.23303 47.9287 1.23303 40.0684C1.23303 32.2081 7.63198 25.8091 15.4923 25.8091C23.3526 25.8091 29.7516 32.2081 29.7516 40.0684C29.7516 47.9287 23.3526 54.3276 15.4923 54.3276ZM15.4923 27.8041C8.72923 27.8041 3.22803 33.3053 3.22803 40.0684C3.22803 46.8314 8.72923 52.3326 15.4923 52.3326C22.2553 52.3326 27.7566 46.8314 27.7566 40.0684C27.7566 33.3053 22.2553 27.8041 15.4923 27.8041Z" fill="#388EEB"/>
<path d="M42.0159 53.3303C44.7621 53.3303 46.9884 51.1041 46.9884 48.3578C46.9884 45.6116 44.7621 43.3853 42.0159 43.3853C39.2696 43.3853 37.0433 45.6116 37.0433 48.3578C37.0433 51.1041 39.2696 53.3303 42.0159 53.3303Z" fill="#388EEB"/>
<path d="M42.0158 54.3278C38.724 54.3278 36.0458 51.6495 36.0458 48.3577C36.0458 45.066 38.724 42.3877 42.0158 42.3877C45.3075 42.3877 47.9859 45.066 47.9859 48.3577C47.9859 51.6495 45.3075 54.3278 42.0158 54.3278ZM42.0158 44.3827C39.8213 44.3827 38.0408 46.1682 38.0408 48.3577C38.0408 50.5473 39.8263 52.3328 42.0158 52.3328C44.2053 52.3328 45.9909 50.5473 45.9909 48.3577C45.9909 46.1682 44.2053 44.3827 42.0158 44.3827Z" fill="#388EEB"/>
<path d="M15.4923 49.9737C10.031 49.9737 5.59216 45.5299 5.59216 40.0735C5.59216 34.6172 10.036 30.1733 15.4923 30.1733C20.9487 30.1733 25.3925 34.6172 25.3925 40.0735C25.3925 45.5299 20.9487 49.9737 15.4923 49.9737ZM15.4923 32.1633C11.1333 32.1633 7.58716 35.7095 7.58716 40.0686C7.58716 44.4276 11.1333 47.9737 15.4923 47.9737C19.8514 47.9737 23.3975 44.4276 23.3975 40.0686C23.3975 35.7095 19.8514 32.1633 15.4923 32.1633Z" fill="#1E2124"/>
<path d="M15.4923 43.6543C13.5172 43.6543 11.9113 42.0484 11.9113 40.0683C11.9113 38.0883 13.5172 36.4873 15.4923 36.4873C17.4673 36.4873 19.0783 38.0933 19.0783 40.0683C19.0783 42.0434 17.4723 43.6543 15.4923 43.6543ZM15.4923 38.4823C14.6145 38.4823 13.9063 39.1955 13.9063 40.0683C13.9063 40.9411 14.6195 41.6593 15.4923 41.6593C16.3651 41.6593 17.0833 40.9461 17.0833 40.0683C17.0833 39.1905 16.3701 38.4823 15.4923 38.4823Z" fill="#1E2124"/>
<path d="M42.0159 51.6897C40.1805 51.6897 38.6842 50.1934 38.6842 48.358C38.6842 46.5226 40.1805 45.0264 42.0159 45.0264C43.8513 45.0264 45.3475 46.5226 45.3475 48.358C45.3475 50.1934 43.8513 51.6897 42.0159 51.6897ZM42.0159 47.0264C41.2777 47.0264 40.6792 47.6249 40.6792 48.363C40.6792 49.1012 41.2777 49.6997 42.0159 49.6997C42.754 49.6997 43.3525 49.1012 43.3525 48.363C43.3525 47.6249 42.754 47.0264 42.0159 47.0264Z" fill="#1E2124"/>
</svg>
