<svg width="56" height="56" viewBox="0 0 56 56" fill="none" xmlns="http://www.w3.org/2000/svg">
<path d="M25.9337 9.45161C25.7442 9.45161 25.5497 9.39675 25.3801 9.28203C24.7517 8.86308 24.1083 8.93789 24.1033 8.93789C23.5597 9.03266 23.046 8.65859 22.9562 8.11994C22.8664 7.57631 23.2305 7.06259 23.7742 6.97282C23.9188 6.94788 25.2006 6.76833 26.4874 7.62618C26.9462 7.93042 27.0709 8.54887 26.7617 9.00772C26.5671 9.29699 26.2529 9.45161 25.9288 9.45161H25.9337Z" fill="#1E2124"/>
<path d="M29.4302 9.45161C29.106 9.45161 28.7918 9.29699 28.5973 9.00772C28.293 8.54887 28.4177 7.93042 28.8716 7.62618C30.1583 6.76833 31.4401 6.94788 31.5848 6.97282C32.1284 7.06259 32.4975 7.57631 32.4027 8.11994C32.3129 8.65859 31.8042 9.02268 31.2656 8.94288C31.2157 8.93789 30.6022 8.86807 29.9738 9.28702C29.8042 9.40173 29.6097 9.45659 29.4202 9.45659L29.4302 9.45161Z" fill="#1E2124"/>
<path d="M27.0111 33.5313C16.4276 33.5313 3.5 21.3469 3.5 7.1225C3.5 6.57387 3.94887 6.125 4.4975 6.125C5.04613 6.125 5.495 6.57387 5.495 7.1225C5.495 17.8855 15.6246 31.5363 27.0111 31.5363C37.3601 31.5363 49.8638 20.6486 49.8638 7.1225C49.8638 6.57387 50.3127 6.125 50.8613 6.125C51.4099 6.125 51.8588 6.57387 51.8588 7.1225C51.8588 13.711 48.9361 20.4641 43.8389 25.6511C38.9911 30.5837 32.6968 33.5313 27.0111 33.5313Z" fill="#1E2124"/>
<path d="M28.3228 23.1074H27.036C26.9911 23.1074 26.9462 23.1074 26.9014 23.0974C24.667 22.7931 19.2655 21.4216 17.3902 15.252C17.2755 14.883 17.3902 14.484 17.6745 14.2246C17.9588 13.9653 18.3677 13.8954 18.7268 14.0401C18.7368 14.0401 20.0535 14.5787 21.2605 14.5787C21.6695 14.5787 22.0036 14.5189 22.248 14.3942C23.0959 13.9703 24.0834 13.7358 25.0261 13.7358C25.9687 13.7358 26.9113 13.9802 27.6844 14.454C28.4575 13.9852 29.3602 13.7358 30.3427 13.7358C31.3253 13.7358 32.2729 13.9703 33.1208 14.3942C33.3651 14.5139 33.6993 14.5787 34.1083 14.5787C35.3053 14.5787 36.627 14.0501 36.6419 14.0401C36.996 13.8905 37.41 13.9653 37.6943 14.2246C37.9786 14.484 38.0883 14.883 37.9786 15.252C36.1033 21.4166 30.7018 22.7882 28.4674 23.0974C28.4226 23.1024 28.3777 23.1074 28.3328 23.1074H28.3228ZM27.1058 21.1124H28.253C30.248 20.8281 33.5198 19.8405 35.3203 16.464C34.9312 16.5288 34.5123 16.5737 34.0983 16.5737C33.3751 16.5737 32.7417 16.4391 32.218 16.1797C31.6395 15.8904 30.9712 15.7308 30.3328 15.7308C29.5397 15.7308 28.8664 15.9702 28.3378 16.4341C27.9587 16.7682 27.3951 16.7682 27.0161 16.4341C26.4874 15.9653 25.8141 15.7308 25.0211 15.7308C24.3827 15.7308 23.7144 15.8904 23.1358 16.1797C22.6121 16.444 21.9787 16.5737 21.2555 16.5737C20.8415 16.5737 20.4226 16.5288 20.0336 16.464C21.839 19.8405 25.1058 20.8281 27.1058 21.1124Z" fill="#1E2124"/>
<path d="M6.40275 44.2296C6.11348 44.2296 5.8242 44.1049 5.6247 43.8605C5.28057 43.4316 5.3454 42.8032 5.77432 42.459C12.1683 37.3019 10.5573 25.2172 10.5374 25.0975C10.4626 24.5539 10.8416 24.0502 11.3853 23.9704C11.9339 23.8955 12.4326 24.2746 12.5124 24.8182C12.5873 25.3619 14.293 38.1498 7.02619 44.0101C6.84165 44.1598 6.6222 44.2296 6.40275 44.2296Z" fill="#1E2124"/>
<path d="M48.961 44.2296C48.7416 44.2296 48.5221 44.1548 48.3376 44.0101C41.0708 38.1498 42.7715 25.3569 42.8513 24.8182C42.9262 24.2746 43.4349 23.8955 43.9785 23.9704C44.5222 24.0452 44.9062 24.5489 44.8264 25.0975C44.8114 25.2172 43.2104 37.3119 49.5895 42.459C50.0184 42.8032 50.0832 43.4316 49.7391 43.8605C49.5446 44.1049 49.2553 44.2296 48.961 44.2296Z" fill="#1E2124"/>
<path d="M22.16 46.1053C21.7721 46.4932 21.1373 46.4932 20.7494 46.1053L18.8308 44.1868L16.9123 46.1053C16.5244 46.4932 15.8896 46.4932 15.5016 46.1053C15.1137 45.7173 15.1137 45.0825 15.5016 44.6946L18.1255 42.0707C18.5134 41.6828 19.1482 41.6828 19.5362 42.0707L22.16 44.6946C22.548 45.0825 22.548 45.7173 22.16 46.1053Z" fill="#388EEB"/>
<path d="M19.5326 52.5203C19.3528 52.7002 19.1024 52.8095 18.8273 52.8095C18.2771 52.8095 17.8293 52.3616 17.8293 51.8115L17.8293 43.6437C17.8293 43.0935 18.2771 42.6456 18.8273 42.6456C19.3775 42.6456 19.8254 43.0935 19.8254 43.6436L19.8254 51.8115C19.8254 52.0865 19.716 52.3369 19.5362 52.5168L19.5326 52.5203Z" fill="#388EEB"/>
<path d="M30.8075 46.1053C30.4196 46.4932 29.7848 46.4932 29.3968 46.1053L27.4783 44.1868L25.5598 46.1053C25.1718 46.4932 24.537 46.4932 24.1491 46.1053C23.7612 45.7173 23.7612 45.0825 24.1491 44.6946L26.773 42.0707C27.1609 41.6828 27.7957 41.6828 28.1836 42.0707L30.8075 44.6946C31.1954 45.0825 31.1954 45.7173 30.8075 46.1053Z" fill="#388EEB"/>
<path d="M28.1801 52.5203C28.0002 52.7002 27.7499 52.8095 27.4748 52.8095C26.9246 52.8095 26.4767 52.3616 26.4767 51.8115L26.4767 43.6436C26.4767 43.0935 26.9246 42.6456 27.4748 42.6456C28.0249 42.6456 28.4728 43.0935 28.4728 43.6436L28.4728 51.8115C28.4728 52.0865 28.3635 52.3369 28.1836 52.5168L28.1801 52.5203Z" fill="#388EEB"/>
<path d="M39.455 46.1053C39.067 46.4932 38.4322 46.4932 38.0443 46.1053L36.1258 44.1868L34.2072 46.1053C33.8193 46.4932 33.1845 46.4932 32.7966 46.1053C32.4086 45.7173 32.4086 45.0825 32.7966 44.6946L35.4204 42.0707C35.8083 41.6828 36.4432 41.6828 36.8311 42.0707L39.455 44.6946C39.8429 45.0825 39.8429 45.7173 39.455 46.1053Z" fill="#388EEB"/>
<path d="M36.8276 52.5203C36.6477 52.7002 36.3973 52.8095 36.1222 52.8095C35.5721 52.8095 35.1242 52.3616 35.1242 51.8115L35.1242 43.6436C35.1242 43.0935 35.5721 42.6456 36.1222 42.6456C36.6724 42.6456 37.1203 43.0935 37.1203 43.6436L37.1203 51.8115C37.1203 52.0865 37.011 52.3369 36.8311 52.5168L36.8276 52.5203Z" fill="#388EEB"/>
</svg>
