<svg width="56" height="56" viewBox="0 0 56 56" fill="none" xmlns="http://www.w3.org/2000/svg">
<path d="M28.2812 22.5179C23.0593 22.5179 18.805 17.8596 18.805 12.134C18.805 6.40832 23.0543 1.75 28.2812 1.75C33.5081 1.75 37.7575 6.40832 37.7575 12.134C37.7575 17.8596 33.5081 22.5179 28.2812 22.5179ZM28.2812 3.745C24.1566 3.745 20.8 7.50557 20.8 12.134C20.8 16.7624 24.1566 20.5229 28.2812 20.5229C32.4059 20.5229 35.7625 16.7624 35.7625 12.134C35.7625 7.50557 32.4059 3.745 28.2812 3.745Z" fill="#1E2124"/>
<path d="M54.1864 54.9467C53.6378 54.9467 53.1889 54.4979 53.1889 53.9492V36.9967C53.1889 30.7424 48.1016 25.6552 41.8473 25.6552H14.7203C8.46596 25.6552 3.37372 30.7424 3.37372 36.9967V46.5428C3.37372 47.0914 2.92485 47.5403 2.37622 47.5403C1.8276 47.5403 1.37872 47.0914 1.37872 46.5428V36.9967C1.37872 29.6402 7.36372 23.6602 14.7203 23.6602H41.8473C49.2039 23.6602 55.1839 29.6452 55.1839 36.9967V53.9492C55.1839 54.4979 54.735 54.9467 54.1864 54.9467Z" fill="#1E2124"/>
<path d="M33.9221 54.9465C33.3735 54.9465 32.9246 54.4976 32.9246 53.949C32.9246 53.4003 33.3735 52.9515 33.9221 52.9515C36.6403 52.9515 38.8498 50.742 38.8498 48.0188C38.8498 45.2957 36.6403 43.0912 33.9221 43.0912H16.7103C16.1616 43.0912 15.7128 42.6423 15.7128 42.0937C15.7128 41.5451 16.1616 41.0962 16.7103 41.0962H33.9221C37.7426 41.0962 40.8448 44.2034 40.8448 48.0188C40.8448 51.8343 37.7376 54.9465 33.9221 54.9465Z" fill="#1E2124"/>
<path d="M40.6503 23.311C40.6503 23.311 29.0444 42.7573 28.5456 53.9343H9.77769C9.77769 53.9343 1.8725 54.6625 1.8725 45.9144C1.8725 45.9144 11.5034 31.0866 33.982 24.0392L40.6503 23.311Z" fill="#388EEB"/>
<path d="M9.33879 54.9466C5.24904 54.9466 0.875 52.5725 0.875 45.9142C0.875 45.7197 0.929862 45.5302 1.0346 45.3706C1.4336 44.7521 11.1243 30.1637 33.6778 23.0864C33.7376 23.0665 33.8025 23.0515 33.8673 23.0465L40.5356 22.3183C40.9097 22.2735 41.2787 22.453 41.4832 22.7722C41.6877 23.0914 41.6927 23.4954 41.4982 23.8246C41.3835 24.0191 30.012 43.1811 29.5382 53.984C29.5132 54.5176 29.0743 54.9366 28.5407 54.9366H9.80761C9.72781 54.9416 9.56323 54.9515 9.32881 54.9515L9.33879 54.9466ZM2.87499 46.2184C3.01464 52.2882 7.42359 52.9516 9.33879 52.9516C9.54327 52.9516 9.66796 52.9416 9.68791 52.9416C9.71784 52.9416 9.74776 52.9416 9.77769 52.9416H27.618C28.4908 43.4604 36.0369 29.4006 38.7999 24.5178L34.1865 25.0216C13.9223 31.4056 4.2266 44.3032 2.87499 46.2184Z" fill="#388EEB"/>
<path d="M44.1066 54.9468C43.5579 54.9468 43.1091 54.4979 43.1091 53.9493V39.8696C43.1091 39.3209 43.5579 38.8721 44.1066 38.8721C44.6552 38.8721 45.1041 39.3209 45.1041 39.8696V53.9493C45.1041 54.4979 44.6552 54.9468 44.1066 54.9468Z" fill="#1E2124"/>
<path d="M32.6903 43.0912H14.4859C13.9373 43.0912 13.4884 42.6423 13.4884 42.0937C13.4884 41.5451 13.9373 41.0962 14.4859 41.0962H32.6903C33.2389 41.0962 33.6878 41.5451 33.6878 42.0937C33.6878 42.6423 33.2389 43.0912 32.6903 43.0912Z" fill="#1E2124"/>
<path d="M21.9672 53.4804C21.6879 53.4804 21.4135 53.3657 21.214 53.1413C17.4884 48.882 17.9572 42.4531 17.9772 42.1788C18.022 41.6302 18.4959 41.2212 19.0495 41.2661C19.5981 41.311 20.0071 41.7898 19.9622 42.3384C19.9622 42.3982 19.5482 48.2137 22.7103 51.8296C23.0744 52.2436 23.0295 52.872 22.6155 53.2361C22.426 53.4007 22.1916 53.4804 21.9572 53.4804H21.9672Z" fill="#1E2124"/>
<path d="M24.7103 42.7573C24.5956 42.7573 24.4759 42.7374 24.3612 42.6925C23.8474 42.498 23.5831 41.9244 23.7776 41.4107C23.9023 41.0765 26.9148 33.1564 32.9845 27.0916C33.3736 26.7025 34.007 26.7025 34.396 27.0916C34.785 27.4806 34.785 28.114 34.396 28.503C28.6404 34.2586 25.6779 42.0341 25.6479 42.1139C25.4983 42.5129 25.1193 42.7623 24.7153 42.7623L24.7103 42.7573Z" fill="#1E2124"/>
</svg>
