<svg width="40" height="39" viewBox="0 0 40 39" fill="none" xmlns="http://www.w3.org/2000/svg">
<g clip-path="url(#clip0_2471_4601)">
<path d="M36.8394 8.20239H2.60938V34.45H36.8394V8.20239Z" fill="white"/>
<path d="M36.8392 35.3184H2.60917C2.13756 35.3184 1.75342 34.9286 1.75342 34.4499V8.20235C1.75342 7.72372 2.13756 7.33386 2.60917 7.33386H36.8392C37.3109 7.33386 37.695 7.72372 37.695 8.20235V34.4499C37.695 34.9286 37.3109 35.3184 36.8392 35.3184ZM3.46492 33.5814H35.9835V9.07083H3.46492V33.5814Z" fill="#1E2124"/>
<path d="M31.8948 0.86853H7.55347V34.45H31.8948V0.86853Z" fill="white"/>
<path d="M31.8949 35.3184H7.55351C7.08189 35.3184 6.69775 34.9286 6.69775 34.45V0.868486C6.69775 0.389854 7.08189 0 7.55351 0H31.8949C32.3665 0 32.7506 0.389854 32.7506 0.868486V34.45C32.7506 34.9286 32.3665 35.3184 31.8949 35.3184ZM8.40926 33.5815H31.0391V1.73697H8.40926V33.5815Z" fill="#1E2124"/>
<path d="M0.855713 33.2573C0.855713 35.8859 2.95516 38.0205 5.54904 38.0205H33.8991C36.4892 38.0205 38.5925 35.8898 38.5925 33.2573H0.855713Z" fill="white"/>
<path d="M33.8992 38.8889H5.54907C2.49119 38.8889 0 36.3645 0 33.2573C0 32.7786 0.384137 32.3888 0.855752 32.3888H38.5887C39.0603 32.3888 39.4444 32.7786 39.4444 33.2573C39.4444 36.3607 36.9571 38.8889 33.8954 38.8889H33.8992ZM1.80659 34.1258C2.19833 35.855 3.72347 37.152 5.54527 37.152H33.8954C35.7172 37.152 37.2461 35.8589 37.6341 34.1258H1.80659Z" fill="#1E2124"/>
<path d="M27.4257 5.1377H12.0222V8.17933H27.4257V5.1377Z" fill="white"/>
<path d="M27.4258 9.04777H12.0223C11.5506 9.04777 11.1665 8.65792 11.1665 8.17928V5.13765C11.1665 4.65902 11.5506 4.26917 12.0223 4.26917H27.4258C27.8974 4.26917 28.2815 4.65902 28.2815 5.13765V8.17928C28.2815 8.65792 27.8974 9.04777 27.4258 9.04777ZM12.878 7.3108H26.57V6.00614H12.878V7.3108Z" fill="#256EF4"/>
<path d="M16.8717 19.0605H12.4978C12.0262 19.0605 11.6421 18.6706 11.6421 18.192V12.2091C11.6421 11.7304 12.0262 11.3406 12.4978 11.3406H16.8717C17.3433 11.3406 17.7274 11.7304 17.7274 12.2091V18.192C17.7274 18.6706 17.3433 19.0605 16.8717 19.0605ZM13.3536 17.3235H16.0159V13.0775H13.3536V17.3235Z" fill="#1E2124"/>
<path d="M26.9506 14.3282H20.6751C20.2035 14.3282 19.8193 13.9383 19.8193 13.4597C19.8193 12.981 20.2035 12.5912 20.6751 12.5912H26.9506C27.4222 12.5912 27.8064 12.981 27.8064 13.4597C27.8064 13.9383 27.4222 14.3282 26.9506 14.3282Z" fill="#1E2124"/>
<path d="M26.9506 17.802H20.6751C20.2035 17.802 19.8193 17.4122 19.8193 16.9335C19.8193 16.4549 20.2035 16.0651 20.6751 16.0651H26.9506C27.4222 16.0651 27.8064 16.4549 27.8064 16.9335C27.8064 17.4122 27.4222 17.802 26.9506 17.802Z" fill="#1E2124"/>
<path d="M16.8717 29.2892H12.4978C12.0262 29.2892 11.6421 28.8994 11.6421 28.4207V22.4378C11.6421 21.9592 12.0262 21.5693 12.4978 21.5693H16.8717C17.3433 21.5693 17.7274 21.9592 17.7274 22.4378V28.4207C17.7274 28.8994 17.3433 29.2892 16.8717 29.2892ZM13.3536 27.5522H16.0159V23.3063H13.3536V27.5522Z" fill="#1E2124"/>
<path d="M26.9506 24.5569H20.6751C20.2035 24.5569 19.8193 24.1671 19.8193 23.6884C19.8193 23.2098 20.2035 22.8199 20.6751 22.8199H26.9506C27.4222 22.8199 27.8064 23.2098 27.8064 23.6884C27.8064 24.1671 27.4222 24.5569 26.9506 24.5569Z" fill="#1E2124"/>
<path d="M26.9506 28.0308H20.6751C20.2035 28.0308 19.8193 27.6409 19.8193 27.1623C19.8193 26.6837 20.2035 26.2938 20.6751 26.2938H26.9506C27.4222 26.2938 27.8064 26.6837 27.8064 27.1623C27.8064 27.6409 27.4222 28.0308 26.9506 28.0308Z" fill="#1E2124"/>
</g>
<defs>
<clipPath id="clip0_2471_4601">
<rect width="39.4444" height="38.8889" fill="white"/>
</clipPath>
</defs>
</svg>
