<?xml version="1.0" encoding="utf-8"?>
<!-- Generator: Adobe Illustrator 26.0.1, SVG Export Plug-In . SVG Version: 6.00 Build 0)  -->
<svg version="1.1" id="Layer_1" xmlns="http://www.w3.org/2000/svg" xmlns:xlink="http://www.w3.org/1999/xlink" x="0px" y="0px"
	 viewBox="0 0 19.8 48" style="enable-background:new 0 0 19.8 48;" xml:space="preserve">
<style type="text/css">
	.st0{fill:#DCDCDC;}
</style>
<path class="st0" d="M1.5,0c0.3,0,0.6,0.1,0.8,0.2l16.8,10.5c0.7,0.4,0.9,1.4,0.5,2.1c-0.1,0.2-0.3,0.4-0.5,0.5L2.3,23.8
	c-0.7,0.4-1.6,0.2-2.1-0.5C0.1,23.1,0,22.8,0,22.5v-21C0,0.7,0.7,0,1.5,0z M15.5,12L3,4.2v15.6L15.5,12z"/>
<path d="M1.5,24c0.3,0,0.6,0.1,0.8,0.2l16.8,10.5c0.7,0.4,0.9,1.4,0.5,2.1c-0.1,0.2-0.3,0.4-0.5,0.5L2.3,47.8
	c-0.7,0.4-1.6,0.2-2.1-0.5C0.1,47.1,0,46.8,0,46.5v-21C0,24.7,0.7,24,1.5,24z M15.5,36L3,28.2v15.6L15.5,36z"/>
</svg>
