<svg xmlns="http://www.w3.org/2000/svg" width="18.75" height="18.75" viewBox="0 0 18.75 18.75"><g transform="translate(0.75 0.75)"><path d="M19.833,29H6.417A2.67,2.67,0,0,1,3.75,26.333V22.5a.75.75,0,0,1,1.5,0v3.833A1.168,1.168,0,0,0,6.417,27.5H19.833A1.168,1.168,0,0,0,21,26.333V22.5a.75.75,0,0,1,1.5,0v3.833A2.67,2.67,0,0,1,19.833,29Z" transform="translate(-4.5 -11)"/><path d="M20.083,10.042a.748.748,0,0,1-.53-.22L15.292,5.561,11.03,9.822A.75.75,0,1,1,9.97,8.761L14.761,3.97a.75.75,0,0,1,1.061,0l4.792,4.792a.75.75,0,0,1-.53,1.28Z" transform="translate(-6.667 -4.5)"/><path d="M18,16.75a.75.75,0,0,1-.75-.75V4.5a.75.75,0,0,1,1.5,0V16A.75.75,0,0,1,18,16.75Z" transform="translate(-9.375 -4.5)"/></g></svg>