<svg xmlns="http://www.w3.org/2000/svg" width="21.5" height="20.75" viewBox="0 0 21.5 20.75"><g transform="translate(0.75)"><path d="M6.722,5.25H22.278A2.861,2.861,0,0,1,25.25,7.978V21.822a2.861,2.861,0,0,1-2.972,2.728H6.722A2.861,2.861,0,0,1,3.75,21.822V7.978A2.861,2.861,0,0,1,6.722,5.25Zm15.556,17.8a1.368,1.368,0,0,0,1.472-1.228V7.978A1.368,1.368,0,0,0,22.278,6.75H6.722A1.368,1.368,0,0,0,5.25,7.978V21.822A1.368,1.368,0,0,0,6.722,23.05Z" transform="translate(-4.5 -3.8)"/><path d="M24.75,7.4h-1.5V3h1.5Z" transform="translate(-9.556 -3)"/><path d="M12.75,7.4h-1.5V3h1.5Z" transform="translate(-6.444 -3)"/><path d="M24.5,15.75H4.5v-1.5h20Z" transform="translate(-4.5 -7)"/></g></svg>