<svg width="56" height="56" viewBox="0 0 56 56" fill="none" xmlns="http://www.w3.org/2000/svg">
<path d="M36.8299 21.5744C36.2813 21.5744 35.8324 21.1256 35.8324 20.5769V17.0059C35.8324 15.0009 34.2015 13.37 32.1965 13.37H16.4859C14.4809 13.37 12.85 15.0009 12.85 17.0059V20.5769C12.85 21.1256 12.4011 21.5744 11.8525 21.5744C11.3039 21.5744 10.855 21.1256 10.855 20.5769V17.0059C10.855 13.8987 13.3836 11.375 16.4859 11.375H32.1965C35.3037 11.375 37.8274 13.9037 37.8274 17.0059V20.5769C37.8274 21.1256 37.3785 21.5744 36.8299 21.5744Z" fill="#388EEB"/>
<path d="M42.8897 29.4944H5.55827C2.97474 29.4944 0.875 27.3947 0.875 24.8111C0.875 22.2276 2.97474 20.1279 5.55827 20.1279H40.9496L47.1839 13.8935C48.0667 13.0107 49.2438 12.522 50.4956 12.522C51.7475 12.522 52.9246 13.0107 53.8073 13.8935C54.6901 14.7763 55.1789 15.9533 55.1789 17.2052C55.1789 18.4571 54.6901 19.6341 53.8073 20.5169L46.2014 28.1229C45.3186 29.0056 44.1416 29.4944 42.8897 29.4944ZM5.55827 22.1229C4.07698 22.1229 2.87 23.3299 2.87 24.8111C2.87 26.2924 4.07698 27.4994 5.55827 27.4994H42.8897C43.5979 27.4994 44.2912 27.2101 44.7899 26.7114L52.3959 19.1054C52.9046 18.5967 53.1839 17.9234 53.1839 17.2052C53.1839 16.487 52.9046 15.8137 52.3959 15.305C51.8871 14.7963 51.2138 14.517 50.4956 14.517C49.7774 14.517 49.1041 14.7963 48.5954 15.305L42.0717 21.8286C41.8872 22.0182 41.6329 22.1229 41.3685 22.1229H5.56326H5.55827Z" fill="#1E2124"/>
<path d="M40.8149 42.8609C40.6902 42.8609 40.5605 42.836 40.4358 42.7861L8.17669 29.4196C7.66796 29.2101 7.42855 28.6265 7.63803 28.1178C7.8475 27.6091 8.43103 27.3697 8.93976 27.5792L41.1989 40.9457C41.7076 41.1552 41.947 41.7387 41.7376 42.2474C41.578 42.6315 41.2089 42.8659 40.8149 42.8659V42.8609Z" fill="#1E2124"/>
<path d="M42.6554 47.1655C44.691 47.1655 46.3411 45.5153 46.3411 43.4797C46.3411 41.4441 44.691 39.7939 42.6554 39.7939C40.6198 39.7939 38.9696 41.4441 38.9696 43.4797C38.9696 45.5153 40.6198 47.1655 42.6554 47.1655Z" fill="#388EEB"/>
<path d="M42.6553 48.1629C40.0718 48.1629 37.972 46.0632 37.972 43.4797C37.972 40.8961 40.0718 38.7964 42.6553 38.7964C45.2388 38.7964 47.3386 40.8961 47.3386 43.4797C47.3386 46.0632 45.2388 48.1629 42.6553 48.1629ZM42.6553 40.7864C41.174 40.7864 39.967 41.9934 39.967 43.4747C39.967 44.956 41.174 46.1629 42.6553 46.1629C44.1366 46.1629 45.3436 44.956 45.3436 43.4747C45.3436 41.9934 44.1366 40.7864 42.6553 40.7864Z" fill="#388EEB"/>
<path d="M42.6554 46.3171C41.0893 46.3171 39.8125 45.0403 39.8125 43.4742C39.8125 41.9082 41.0893 40.6313 42.6554 40.6313C44.2215 40.6313 45.4982 41.9082 45.4982 43.4742C45.4982 45.0403 44.2215 46.3171 42.6554 46.3171ZM42.6554 42.6313C42.1866 42.6313 41.8075 43.0104 41.8075 43.4792C41.8075 43.948 42.1866 44.3271 42.6554 44.3271C43.1242 44.3271 43.5032 43.948 43.5032 43.4792C43.5032 43.0104 43.1242 42.6313 42.6554 42.6313Z" fill="#1E2124"/>
<path d="M11.3189 42.861C10.9249 42.861 10.5558 42.6316 10.3962 42.2425C10.1867 41.7338 10.4261 41.1503 10.9348 40.9408L43.194 27.5743C43.7027 27.3648 44.2863 27.6042 44.4957 28.113C44.7052 28.6217 44.4658 29.2052 43.9571 29.4147L11.6979 42.7812C11.5733 42.8311 11.4436 42.856 11.3189 42.856V42.861Z" fill="#1E2124"/>
<path d="M9.47349 47.165C11.5091 47.165 13.1593 45.5148 13.1593 43.4792C13.1593 41.4436 11.5091 39.7935 9.47349 39.7935C7.4379 39.7935 5.78772 41.4436 5.78772 43.4792C5.78772 45.5148 7.4379 47.165 9.47349 47.165Z" fill="#388EEB"/>
<path d="M9.47343 48.1624C6.88991 48.1624 4.79016 46.0627 4.79016 43.4792C4.79016 40.8956 6.88991 38.7959 9.47343 38.7959C12.057 38.7959 14.1567 40.8956 14.1567 43.4792C14.1567 46.0627 12.057 48.1624 9.47343 48.1624ZM9.47343 40.7859C7.99214 40.7859 6.78516 41.9929 6.78516 43.4742C6.78516 44.9555 7.99214 46.1624 9.47343 46.1624C10.9547 46.1624 12.1617 44.9555 12.1617 43.4742C12.1617 41.9929 10.9547 40.7859 9.47343 40.7859Z" fill="#388EEB"/>
<path d="M9.4735 46.3171C7.90742 46.3171 6.63062 45.0403 6.63062 43.4742C6.63062 41.9082 7.90742 40.6313 9.4735 40.6313C11.0396 40.6313 12.3164 41.9082 12.3164 43.4742C12.3164 45.0403 11.0396 46.3171 9.4735 46.3171ZM9.4735 42.6313C9.00467 42.6313 8.62562 43.0104 8.62562 43.4792C8.62562 43.948 9.00467 44.3271 9.4735 44.3271C9.94232 44.3271 10.3214 43.948 10.3214 43.4792C10.3214 43.0104 9.94232 42.6313 9.4735 42.6313Z" fill="#1E2124"/>
</svg>
