<svg width="56" height="56" viewBox="0 0 56 56" fill="none" xmlns="http://www.w3.org/2000/svg">
<path d="M28.9898 38.758H20.9749C17.738 38.758 15.1096 36.1246 15.1096 32.8877V22.1247C15.1096 18.8878 17.743 16.2544 20.9749 16.2544C21.5235 16.2544 21.9724 16.7033 21.9724 17.2519C21.9724 17.8005 21.5235 18.2494 20.9749 18.2494C18.8403 18.2494 17.1046 19.985 17.1046 22.1247V32.8877C17.1046 35.0224 18.8403 36.763 20.9749 36.763H28.9898C31.1245 36.763 32.8601 35.0273 32.8601 32.8877V22.1247C32.8601 19.99 31.1245 18.2494 28.9898 18.2494C28.4412 18.2494 27.9923 17.8005 27.9923 17.2519C27.9923 16.7033 28.4412 16.2544 28.9898 16.2544C32.2267 16.2544 34.8551 18.8878 34.8551 22.1247V32.8877C34.8551 36.1246 32.2217 38.758 28.9898 38.758Z" fill="#388EEB"/>
<path d="M31.6381 18.1997H18.3315C17.7829 18.1997 17.334 17.7508 17.334 17.2022V13.0576C17.334 12.5089 17.7829 12.0601 18.3315 12.0601H31.6381C32.1868 12.0601 32.6356 12.5089 32.6356 13.0576V17.2022C32.6356 17.7508 32.1868 18.1997 31.6381 18.1997ZM19.329 16.2047H30.6406V14.0551H19.329V16.2047Z" fill="#388EEB"/>
<path d="M21.2492 15.8556C20.7006 15.8556 20.2517 15.4068 20.2517 14.8581V13.332C20.2517 12.7833 20.7006 12.3345 21.2492 12.3345C21.7978 12.3345 22.2467 12.7833 22.2467 13.332V14.8581C22.2467 15.4068 21.7978 15.8556 21.2492 15.8556Z" fill="#388EEB"/>
<path d="M24.9848 15.8556C24.4362 15.8556 23.9873 15.4068 23.9873 14.8581V13.332C23.9873 12.7833 24.4362 12.3345 24.9848 12.3345C25.5334 12.3345 25.9823 12.7833 25.9823 13.332V14.8581C25.9823 15.4068 25.5334 15.8556 24.9848 15.8556Z" fill="#388EEB"/>
<path d="M28.7205 15.8556C28.1719 15.8556 27.723 15.4068 27.723 14.8581V13.332C27.723 12.7833 28.1719 12.3345 28.7205 12.3345C29.2691 12.3345 29.718 12.7833 29.718 13.332V14.8581C29.718 15.4068 29.2691 15.8556 28.7205 15.8556Z" fill="#388EEB"/>
<path d="M26.5908 23.1523H23.3739V33.7159H26.5908V23.1523Z" fill="#388EEB"/>
<path d="M30.2666 26.8281H19.7031V30.0451H30.2666V26.8281Z" fill="#388EEB"/>
<path d="M24.9849 49.5812C18.5261 49.5812 12.4563 47.0675 7.89278 42.5039C-1.5336 33.0775 -1.5336 17.7459 7.89278 8.31956C12.4563 3.756 18.5261 1.2373 24.9849 1.2373C31.4437 1.2373 37.5086 3.75101 42.0771 8.31956C46.6407 12.8831 49.1593 18.9529 49.1593 25.4117C49.1593 31.8705 46.6457 37.9353 42.0771 42.5039C37.5135 47.0675 31.4437 49.5812 24.9849 49.5812ZM24.9849 3.2323C19.0598 3.2323 13.4937 5.54153 9.30423 9.72604C0.660897 18.3744 0.660897 32.4391 9.30423 41.0874C13.4937 45.2769 19.0598 47.5812 24.9849 47.5812C30.9101 47.5812 36.4761 45.2769 40.6656 41.0874C44.8551 36.8979 47.1594 31.3319 47.1594 25.4067C47.1594 19.4816 44.8551 13.9155 40.6656 9.72604C36.4761 5.53654 30.9101 3.2323 24.9849 3.2323Z" fill="#1E2124"/>
<path d="M48.8651 55.541C47.1943 55.541 45.6232 54.8927 44.4412 53.7106L37.0098 46.2743C36.6208 45.8852 36.6208 45.2518 37.0098 44.8628C37.3988 44.4738 38.0322 44.4738 38.4213 44.8628L45.8526 52.2992C46.6556 53.1021 47.7279 53.546 48.8651 53.546C50.0022 53.546 51.0695 53.1021 51.8775 52.2992C52.6805 51.4962 53.1244 50.4238 53.1244 49.2867C53.1244 48.1495 52.6805 47.0772 51.8775 46.2743L44.4412 38.8429C44.0521 38.4539 44.0521 37.8204 44.4412 37.4314C44.8302 37.0424 45.4636 37.0424 45.8526 37.4314L53.289 44.8628C54.471 46.0448 55.1194 47.6159 55.1194 49.2867C55.1194 50.9575 54.471 52.5286 53.289 53.7106C52.107 54.8927 50.5359 55.541 48.8651 55.541Z" fill="#1E2124"/>
<path d="M24.9849 44.6437C19.8478 44.6437 15.0199 42.6437 11.384 39.0128C3.88779 31.5166 3.88779 19.3122 11.384 11.816C15.0149 8.18505 19.8478 6.18506 24.9849 6.18506C30.122 6.18506 34.9499 8.18505 38.5858 11.816C46.082 19.3122 46.082 31.5166 38.5858 39.0128C34.9549 42.6437 30.122 44.6437 24.9849 44.6437ZM24.9849 8.17009C20.3814 8.17009 16.0523 9.96559 12.7955 13.2174C6.07729 19.9406 6.07729 30.8732 12.7955 37.5963C16.0523 40.8532 20.3814 42.6437 24.9849 42.6437C29.5884 42.6437 33.9175 40.8532 37.1744 37.5963C43.8925 30.8732 43.8925 19.9406 37.1744 13.2174C33.9175 9.9606 29.5884 8.17009 24.9849 8.17009Z" fill="#1E2124"/>
<path d="M40.2766 50.6736C40.0222 50.6736 39.7679 50.5739 39.5734 50.3793C39.1844 49.9903 39.1844 49.3569 39.5734 48.9679L48.5459 39.9954C48.9349 39.6064 49.5683 39.6064 49.9574 39.9954C50.3464 40.3844 50.3464 41.0178 49.9574 41.4068L40.9849 50.3793C40.7903 50.5739 40.536 50.6736 40.2816 50.6736H40.2766Z" fill="#1E2124"/>
</svg>
