<svg width="56" height="56" viewBox="0 0 56 56" fill="none" xmlns="http://www.w3.org/2000/svg">
<path d="M37.1738 22.2553C34.715 19.7964 30.73 19.7964 28.2711 22.2553L28.0267 22.4996L27.7823 22.2553C25.3235 19.7964 21.3385 19.7964 18.8797 22.2553C16.4208 24.7141 16.4208 28.6991 18.8797 31.1579L19.124 31.4023L28.0267 40.305L36.9294 31.4023L37.1738 31.1579C39.6326 28.6991 39.6326 24.7141 37.1738 22.2553Z" fill="#388EEB"/>
<path d="M28.0269 41.3027C27.7725 41.3027 27.5182 41.203 27.3237 41.0085L18.1766 31.8614C16.8 30.4848 16.0419 28.6544 16.0419 26.7043C16.0419 24.7542 16.8 22.9238 18.1766 21.5472C19.5531 20.1707 21.3835 19.4126 23.3337 19.4126C25.0693 19.4126 26.7152 20.0161 28.0269 21.1233C29.3386 20.0161 30.9845 19.4126 32.7201 19.4126C34.6702 19.4126 36.5007 20.1707 37.8772 21.5472C40.7201 24.3901 40.7201 29.0185 37.8772 31.8614L28.7301 41.0085C28.5356 41.203 28.2813 41.3027 28.0269 41.3027ZM23.3337 21.4126C21.9172 21.4126 20.5905 21.9662 19.588 22.9637C18.5856 23.9662 18.0369 25.2929 18.0369 26.7093C18.0369 28.1258 18.5905 29.4524 19.588 30.4549L28.0269 38.8938L36.4707 30.4499C38.5356 28.3851 38.5356 25.0235 36.4707 22.9587C35.4682 21.9562 34.1416 21.4076 32.7251 21.4076C31.3087 21.4076 29.977 21.9612 28.9795 22.9587L28.7351 23.2031C28.3461 23.5921 27.7127 23.5921 27.3237 23.2031L27.0793 22.9587C26.0768 21.9562 24.7501 21.4076 23.3337 21.4076V21.4126Z" fill="#388EEB"/>
<path d="M10.9347 46.8436C10.3861 46.8436 9.93724 46.3947 9.93724 45.8461C9.93724 43.8959 8.35122 42.3149 6.40609 42.3149C4.46097 42.3149 2.87494 43.9009 2.87494 45.8461C2.87494 46.3947 2.42607 46.8436 1.87744 46.8436C1.32882 46.8436 0.879944 46.3947 0.879944 45.8461V9.90114C0.879944 6.85378 3.35873 4.375 6.40609 4.375C9.45345 4.375 11.9322 6.85378 11.9322 9.90114V45.8461C11.9322 46.3947 11.4834 46.8436 10.9347 46.8436ZM6.40609 40.3199C7.74773 40.3199 8.97964 40.7987 9.93724 41.5967V9.90114C9.93724 7.95103 8.35122 6.37 6.40609 6.37C4.46097 6.37 2.87494 7.95602 2.87494 9.90114V41.5967C3.83254 40.7987 5.06446 40.3199 6.40609 40.3199Z" fill="#1E2124"/>
<path d="M49.6528 51.3721H6.40115C3.35379 51.3721 0.875 48.8933 0.875 45.846C0.875 42.7986 3.35379 40.3198 6.40115 40.3198C9.44851 40.3198 11.9273 42.7986 11.9273 45.846C11.9273 46.3946 11.4784 46.8435 10.9298 46.8435C10.3812 46.8435 9.9323 46.3946 9.9323 45.846C9.9323 43.8959 8.34627 42.3148 6.40115 42.3148C4.45602 42.3148 2.87 43.9008 2.87 45.846C2.87 47.7911 4.45602 49.3771 6.40115 49.3771H49.6528C50.2014 49.3771 50.6503 49.826 50.6503 50.3746C50.6503 50.9232 50.2014 51.3721 49.6528 51.3721Z" fill="#1E2124"/>
<path d="M54.1863 46.8436C53.6376 46.8436 53.1888 46.3947 53.1888 45.8461C53.1888 43.8959 51.6027 42.3149 49.6576 42.3149C47.7125 42.3149 46.1265 43.9009 46.1265 45.8461C46.1265 46.3947 45.6776 46.8436 45.129 46.8436C44.5803 46.8436 44.1315 46.3947 44.1315 45.8461V9.90114C44.1315 6.85378 46.6103 4.375 49.6576 4.375C52.705 4.375 55.1838 6.85378 55.1838 9.90114V45.8461C55.1838 46.3947 54.7349 46.8436 54.1863 46.8436ZM49.6526 40.3199C50.9943 40.3199 52.2262 40.7987 53.1838 41.5967V9.90114C53.1838 7.95103 51.5978 6.37 49.6526 6.37C47.7075 6.37 46.1215 7.95602 46.1215 9.90114V41.5967C47.0791 40.7987 48.311 40.3199 49.6526 40.3199Z" fill="#1E2124"/>
<path d="M49.6527 51.3721C49.1041 51.3721 48.6552 50.9232 48.6552 50.3746C48.6552 49.826 49.1041 49.3771 49.6527 49.3771C51.6028 49.3771 53.1839 47.7911 53.1839 45.846C53.1839 43.9008 51.5979 42.3148 49.6527 42.3148C47.7076 42.3148 46.1216 43.9008 46.1216 45.846C46.1216 46.3946 45.6727 46.8435 45.1241 46.8435C44.5755 46.8435 44.1266 46.3946 44.1266 45.846C44.1266 42.7986 46.6054 40.3198 49.6527 40.3198C52.7001 40.3198 55.1789 42.7986 55.1789 45.846C55.1789 48.8933 52.7001 51.3721 49.6527 51.3721Z" fill="#1E2124"/>
<path d="M45.1241 10.0209H11.2241C10.6754 10.0209 10.2266 9.572 10.2266 9.02338C10.2266 8.47475 10.6754 8.02588 11.2241 8.02588H45.1241C45.6727 8.02588 46.1216 8.47475 46.1216 9.02338C46.1216 9.572 45.6727 10.0209 45.1241 10.0209Z" fill="#1E2124"/>
<path d="M30.2713 34.3548C30.2215 34.3548 30.1716 34.3548 30.1217 34.3448C29.8424 34.3 29.598 34.1453 29.4434 33.9109L25.3736 27.8062L21.5681 30.6641C21.3936 30.7937 21.1841 30.8636 20.9696 30.8636H15.1492C14.6006 30.8636 14.1517 30.4147 14.1517 29.8661C14.1517 29.3174 14.6006 28.8686 15.1492 28.8686H20.6355L25.0195 25.5768C25.2389 25.4122 25.5182 25.3474 25.7876 25.3923C26.0569 25.4372 26.2963 25.5918 26.4509 25.8212L30.5008 31.896L33.977 29.093C34.1566 28.9484 34.376 28.8736 34.6055 28.8736H40.9196C41.4683 28.8736 41.9171 29.3224 41.9171 29.8711C41.9171 30.4197 41.4683 30.8686 40.9196 30.8686H34.9596L30.9097 34.1404C30.7302 34.285 30.5107 34.3598 30.2813 34.3598L30.2713 34.3548Z" fill="#1E2124"/>
</svg>
