<svg width="56" height="56" viewBox="0 0 56 56" fill="none" xmlns="http://www.w3.org/2000/svg">
<path d="M12.1977 31.0735C11.9496 31.0735 11.7016 30.9798 11.5141 30.7924L1.15614 20.4289C0.781287 20.054 0.781287 19.4421 1.15614 19.0673C1.53099 18.6924 2.14288 18.6924 2.51773 19.0673L12.8757 29.4253C13.2506 29.8001 13.2506 30.412 12.8757 30.7868C12.6883 30.9743 12.4402 31.068 12.1922 31.068L12.1977 31.0735Z" fill="#388EEB"/>
<path d="M44.5228 30.908C44.2747 30.908 44.0267 30.8143 43.8392 30.6269C43.4644 30.252 43.4644 29.6401 43.8392 29.2653L52.7199 20.3847C53.0947 20.0098 53.7066 20.0098 54.0815 20.3847C54.4563 20.7595 54.4563 21.3714 54.0815 21.7462L45.2008 30.6269C45.0134 30.8143 44.7653 30.908 44.5173 30.908H44.5228Z" fill="#1E2124"/>
<path d="M34.0438 51.74C33.0681 51.74 32.0979 51.3707 31.3593 50.632L28.0187 47.2914C27.6438 46.9166 27.6438 46.3047 28.0187 45.9298C28.3935 45.555 29.0054 45.555 29.3803 45.9298L32.7208 49.2704C33.4485 49.998 34.6392 49.998 35.3668 49.2704C36.0945 48.5427 36.0945 47.3576 35.3668 46.6244C35.1794 46.437 35.0857 46.1889 35.0857 45.9408C35.0857 45.6928 35.1794 45.4447 35.3668 45.2573C35.7417 44.8824 36.3536 44.8824 36.7339 45.2573C37.0867 45.6101 37.5553 45.803 38.0569 45.803C38.5586 45.803 39.0271 45.6101 39.3799 45.2573C40.1076 44.5296 40.1076 43.3445 39.3799 42.6113C39.1925 42.4239 39.0988 42.1758 39.0988 41.9277C39.0988 41.6797 39.1925 41.4316 39.3799 41.2442C39.7548 40.8693 40.3667 40.8693 40.747 41.2442C41.4526 41.9498 42.6874 41.9498 43.393 41.2442C43.7458 40.8914 43.9388 40.4228 43.9388 39.9212C43.9388 39.4196 43.7458 38.951 43.393 38.5982C43.2056 38.4108 43.1119 38.1627 43.1119 37.9146C43.1119 37.6666 43.2056 37.4185 43.393 37.2311C43.7679 36.8562 44.3798 36.8562 44.7601 37.2311C45.4657 37.9367 46.695 37.9367 47.4061 37.2311C47.7589 36.8783 47.9519 36.4097 47.9519 35.9081C47.9519 35.4065 47.7589 34.9379 47.4061 34.5851L34.4683 21.6417C34.0935 21.2669 34.0935 20.655 34.4683 20.2802C34.8432 19.9053 35.455 19.9053 35.8299 20.2802L48.7677 33.218C49.4844 33.9346 49.8813 34.8883 49.8813 35.9026C49.8813 36.9169 49.4844 37.8705 48.7677 38.5872C48.0015 39.3534 46.9376 39.7558 45.8682 39.6952C45.8682 39.7668 45.8737 39.8385 45.8737 39.9102C45.8737 40.9245 45.4768 41.8781 44.7601 42.5948C43.9939 43.361 42.9355 43.7634 41.8551 43.7028C41.9157 44.7446 41.5464 45.8085 40.7526 46.6023C40.0359 47.319 39.0823 47.7159 38.068 47.7159C37.9963 47.7159 37.9246 47.7159 37.853 47.7104C37.9136 48.7522 37.5443 49.8161 36.7505 50.6099C36.0118 51.3486 35.0361 51.7179 34.0659 51.7179L34.0438 51.74Z" fill="#388EEB"/>
<path d="M10.4944 39.7171C9.4801 39.7171 8.52644 39.3202 7.80981 38.6035C7.09319 37.8869 6.69629 36.9333 6.69629 35.919C6.69629 34.9047 7.09319 33.951 7.80981 33.2344L11.1504 29.8938C11.867 29.1772 12.8207 28.7803 13.835 28.7803C14.8493 28.7803 15.8029 29.1772 16.5196 29.8938C18.0024 31.3767 18.0024 33.7856 16.5196 35.2685L13.179 38.6091C12.4624 39.3257 11.5087 39.7226 10.4944 39.7226V39.7171ZM13.835 30.7096C13.3333 30.7096 12.8648 30.9026 12.512 31.2554L9.1714 34.596C8.8186 34.9488 8.62566 35.4173 8.62566 35.919C8.62566 36.4206 8.8186 36.8892 9.1714 37.242C9.877 37.9476 11.1118 37.9476 11.8174 37.242L15.158 33.9014C15.8856 33.1737 15.8856 31.9885 15.158 31.2554C14.8052 30.9026 14.3366 30.7096 13.835 30.7096Z" fill="#1E2124"/>
<path d="M14.5019 43.7244C13.4876 43.7244 12.534 43.3275 11.8173 42.6109C10.3345 41.128 10.3345 38.719 11.8173 37.2417L15.1579 33.9011C15.8745 33.1845 16.8282 32.7876 17.8425 32.7876C18.8568 32.7876 19.8105 33.1845 20.5271 33.9011C22.01 35.384 22.01 37.7929 20.5271 39.2758L17.1865 42.6164C16.4699 43.333 15.5162 43.7299 14.5019 43.7299V43.7244ZM17.8425 34.717C17.3409 34.717 16.8723 34.9099 16.5195 35.2627L13.1789 38.6033C12.4513 39.3309 12.4513 40.5161 13.1789 41.2493C13.8845 41.9549 15.1193 41.9549 15.8249 41.2493L19.1655 37.9087C19.8932 37.1811 19.8932 35.9959 19.1655 35.2627C18.8127 34.9099 18.3441 34.717 17.8425 34.717Z" fill="#1E2124"/>
<path d="M18.5095 47.7319C17.4952 47.7319 16.5415 47.335 15.8249 46.6183C14.3421 45.1355 14.3476 42.7265 15.8249 41.2437L19.1655 37.9031C19.8821 37.1865 20.8358 36.7896 21.8501 36.7896C22.8644 36.7896 23.818 37.1865 24.5347 37.9031C25.2513 38.6197 25.6482 39.5734 25.6482 40.5877C25.6482 41.602 25.2513 42.5556 24.5347 43.2723L21.1941 46.6128C20.4775 47.3295 19.5238 47.7264 18.5095 47.7264V47.7319ZM21.8501 38.7244C21.3484 38.7244 20.8799 38.9174 20.5271 39.2702L17.1865 42.6107C16.4589 43.3384 16.4589 44.5236 17.1865 45.2568C17.8921 45.9624 19.1214 45.9624 19.8325 45.2568L23.1731 41.9162C23.5259 41.5634 23.7188 41.0948 23.7188 40.5932C23.7188 40.0915 23.5259 39.623 23.1731 39.2702C22.8203 38.9174 22.3517 38.7244 21.8501 38.7244Z" fill="#1E2124"/>
<path d="M22.5172 51.7397C21.5029 51.7397 20.5492 51.3428 19.8326 50.6261C18.3497 49.1433 18.3497 46.7343 19.8326 45.2515L23.1732 41.9109C23.8898 41.1943 24.8435 40.7974 25.8578 40.7974C26.8721 40.7974 27.8257 41.1943 28.5424 41.9109C30.0252 43.3937 30.0252 45.8027 28.5424 47.2856L25.2018 50.6261C24.4852 51.3428 23.5315 51.7397 22.5172 51.7397ZM25.8578 42.7322C25.3561 42.7322 24.8876 42.9252 24.5348 43.278L21.1942 46.6186C20.4665 47.3462 20.4665 48.5314 21.1942 49.2646C21.8998 49.9702 23.1291 49.9702 23.8347 49.2646L27.1753 45.924C27.9029 45.1963 27.9029 44.0112 27.1753 43.278C26.8225 42.9252 26.3539 42.7322 25.8523 42.7322H25.8578Z" fill="#1E2124"/>
<path d="M26.828 10.8041C26.7067 10.8041 26.5854 10.782 26.4641 10.7324C23.7906 9.64092 21.6517 9.75669 21.547 9.76771C21.2658 9.79527 20.9847 9.69054 20.7807 9.48657L16.4369 5.14272C16.062 4.76787 16.062 4.15599 16.4369 3.78114C16.8117 3.40629 17.4236 3.40629 17.7985 3.78114L21.8557 7.83834C23.0684 7.81077 25.1577 8.11947 27.1863 8.94635C27.6824 9.15031 27.9139 9.71259 27.7155 10.2032C27.5611 10.578 27.2028 10.8041 26.8224 10.8041H26.828Z" fill="#388EEB"/>
<path d="M18.515 25.4067C17.7873 25.4067 17.0652 25.1696 16.3651 24.5743C15.2185 23.5986 14.6176 22.4906 14.568 21.2778C14.4964 19.4256 15.8083 18.0916 15.8635 18.0309L21.3208 12.5736C25.6978 8.19665 30.5598 7.82731 32.0757 7.82731L36.1219 3.78114C36.4967 3.40629 37.1086 3.40629 37.4835 3.78114C37.8583 4.15599 37.8583 4.76787 37.4835 5.14272L33.1396 9.48657C32.9412 9.68502 32.6656 9.78976 32.3789 9.76771C32.3293 9.76771 27.1696 9.44248 22.6714 13.9407L17.214 19.398C17.214 19.398 16.4368 20.2139 16.4809 21.2172C16.5139 21.8621 16.8888 22.4961 17.5999 23.108C18.515 23.8907 19.4962 23.4056 21.6681 22.0275C23.5589 20.8313 25.9127 19.3374 28.7021 19.7729C33.542 20.5226 38.6191 18.946 40.4272 17.5183C40.8461 17.1875 41.4525 17.2592 41.7832 17.6781C42.114 18.0971 42.0423 18.7035 41.6234 19.0342C39.1813 20.9636 33.5696 22.485 28.4099 21.6802C26.3372 21.3605 24.4905 22.5291 22.7045 23.6592C21.376 24.4971 19.9372 25.4122 18.5039 25.4122L18.515 25.4067Z" fill="#1E2124"/>
</svg>
