<svg width="56" height="56" viewBox="0 0 56 56" fill="none" xmlns="http://www.w3.org/2000/svg">
<path d="M27.8596 31.4997C21.0666 31.4997 15.5405 24.5422 15.5405 15.9936C15.5405 15.445 15.9893 14.9961 16.538 14.9961C17.0866 14.9961 17.5355 15.445 17.5355 15.9936C17.5355 23.3202 22.2636 29.5047 27.8596 29.5047C33.4556 29.5047 38.1837 23.3152 38.1837 15.9936C38.1837 15.445 38.6326 14.9961 39.1812 14.9961C39.7298 14.9961 40.1787 15.445 40.1787 15.9936C40.1787 24.5472 34.6526 31.4997 27.8596 31.4997Z" fill="#1E2124"/>
<path d="M39.9943 16.3328H15.7251C15.1765 16.3328 14.7276 15.884 14.7276 15.3353V11.1508C14.7276 10.6022 15.1765 10.1533 15.7251 10.1533H39.9943C40.5429 10.1533 40.9918 10.6022 40.9918 11.1508V15.3353C40.9918 15.884 40.5429 16.3328 39.9943 16.3328ZM16.7276 14.3378H39.0018V12.1483H16.7276V14.3378Z" fill="#1E2124"/>
<path d="M39.5005 11.9238C39.4407 11.9238 39.3808 11.9188 39.321 11.9088C38.7823 11.8091 38.4232 11.2954 38.518 10.7517C38.528 10.6969 38.907 8.29789 37.4158 6.24304C36.2487 4.63706 34.2387 3.61462 31.4358 3.21063C23.1565 2.01363 21.2513 4.3378 21.2313 4.36274C21.0817 4.59216 20.8623 4.72184 20.5879 4.76673C20.169 4.84653 16.4583 5.68444 17.2713 10.652C17.361 11.1956 16.992 11.7093 16.4483 11.7991C15.9047 11.8889 15.391 11.5198 15.3012 10.9762C14.3187 4.98618 18.553 3.27546 19.8648 2.89641C20.7226 2.03358 23.6303 0.0685077 31.7151 1.23558C35.0866 1.72436 37.5504 3.0211 39.0417 5.0959C41.0317 7.86397 40.498 10.9712 40.4731 11.1009C40.3833 11.5846 39.9644 11.9188 39.4906 11.9188L39.5005 11.9238Z" fill="#1E2124"/>
<path d="M33.6053 13.1606C33.6053 9.9886 31.0317 7.41504 27.8597 7.41504C24.6876 7.41504 22.1141 9.9886 22.1141 13.1606C22.1141 16.3327 24.6876 18.9062 27.8597 18.9062C31.0317 18.9062 33.6053 16.3327 33.6053 13.1606Z" fill="#388EEB"/>
<path d="M27.8647 16.4425C26.0542 16.4425 24.5829 14.9712 24.5829 13.1607C24.5829 11.3502 26.0542 9.87891 27.8647 9.87891C29.6751 9.87891 31.1464 11.3502 31.1464 13.1607C31.1464 14.9712 29.6751 16.4425 27.8647 16.4425ZM27.8647 11.8689C27.1564 11.8689 26.5779 12.4475 26.5779 13.1557C26.5779 13.8639 27.1564 14.4425 27.8647 14.4425C28.5729 14.4425 29.1514 13.8639 29.1514 13.1557C29.1514 12.4475 28.5729 11.8689 27.8647 11.8689Z" fill="#1E2124"/>
<path d="M52.9766 55.1752H2.7475C2.19887 55.1752 1.75 54.7263 1.75 54.1777V38.9159C1.75 31.9135 7.44572 26.2178 14.4482 26.2178H15.9793C16.3434 26.2178 16.6826 26.4173 16.8571 26.7365L27.8596 46.9209L38.862 26.7365C39.0366 26.4173 39.3707 26.2178 39.7398 26.2178H41.271C48.2734 26.2178 53.9691 31.9135 53.9691 38.9159V54.1777C53.9691 54.7263 53.5202 55.1752 52.9716 55.1752H52.9766ZM3.745 53.1802H51.9791V38.9159C51.9791 33.0157 47.1762 28.2128 41.2759 28.2128H40.3383L28.7424 49.4845C28.5678 49.8037 28.2336 50.0032 27.8646 50.0032C27.4955 50.0032 27.1613 49.8037 26.9867 49.4845L15.3908 28.2128H14.4532C8.55295 28.2128 3.74999 33.0157 3.74999 38.9159V53.1802H3.745Z" fill="#1E2124"/>
<path d="M48.0589 42.4475H44.5128V38.9014H40.9667V42.4475H37.4206V45.9936H40.9667V49.5397H44.5128V45.9936H48.0589V42.4475Z" fill="#388EEB"/>
</svg>
