<svg width="56" height="56" viewBox="0 0 56 56" fill="none" xmlns="http://www.w3.org/2000/svg">
<path d="M22.3189 21.8408L9.58398 34.5757L22.2272 47.2189L34.9621 34.484L22.3189 21.8408Z" fill="#388EEB"/>
<path d="M22.2266 48.2156C21.9722 48.2156 21.7179 48.1158 21.5233 47.9213L8.88003 35.278C8.491 34.889 8.491 34.2555 8.88003 33.8665L30.8649 11.8816C31.254 11.4926 31.8874 11.4926 32.2764 11.8816C32.6654 12.2706 32.6654 12.9041 32.2764 13.2931L10.9947 34.5747L22.2266 45.8066L43.5083 24.5249C43.8973 24.1359 44.5307 24.1359 44.9197 24.5249C45.3087 24.914 45.3087 25.5474 44.9197 25.9364L22.9348 47.9213C22.7403 48.1158 22.4859 48.2156 22.2316 48.2156H22.2266Z" fill="#1E2124"/>
<path d="M17.1892 49.7766C16.9348 49.7766 16.6805 49.6768 16.4859 49.4823L7.31893 40.3153C7.1344 40.1258 7.02466 39.8764 7.02466 39.6121C7.02466 39.3477 7.12941 39.0933 7.31893 38.9088L10.6157 35.6121C11.0047 35.2231 11.6381 35.2231 12.0271 35.6121C12.4162 36.0011 12.4162 36.6345 12.0271 37.0235L9.43363 39.617L17.1892 47.3726L19.7827 44.7791C20.1717 44.3901 20.8051 44.3901 21.1941 44.7791C21.5832 45.1681 21.5832 45.8015 21.1941 46.1906L17.8974 49.4873C17.7029 49.6818 17.4485 49.7816 17.1942 49.7816L17.1892 49.7766Z" fill="#1E2124"/>
<path d="M48.4708 29.3627C47.4783 29.3627 46.5456 28.9787 45.8424 28.2754L28.5258 10.9588C27.0744 9.50748 27.0744 7.14839 28.5258 5.70202C29.229 4.99878 30.1617 4.61475 31.1542 4.61475C32.1467 4.61475 33.0794 4.99878 33.7826 5.70202L51.0992 23.0186C52.5506 24.47 52.5506 26.8291 51.0992 28.2754C50.396 28.9787 49.4633 29.3627 48.4708 29.3627ZM31.1592 6.60475C30.7003 6.60475 30.2664 6.78431 29.9422 7.1085C29.2689 7.78181 29.2689 8.87406 29.9422 9.54738L47.2588 26.864C47.9072 27.5124 49.0444 27.5124 49.6977 26.864C50.371 26.1907 50.371 25.0984 49.6977 24.4251L32.3811 7.1085C32.0569 6.78431 31.623 6.60475 31.1642 6.60475H31.1592Z" fill="#1E2124"/>
<path d="M46.3163 18.9935C46.0619 18.9935 45.8076 18.8937 45.6131 18.6992C45.224 18.3102 45.224 17.6768 45.6131 17.2878L50.3761 12.5247C50.7651 12.1357 51.3985 12.1357 51.7876 12.5247C52.1766 12.9137 52.1766 13.5471 51.7876 13.9362L47.0245 18.6992C46.83 18.8937 46.5756 18.9935 46.3213 18.9935H46.3163Z" fill="#1E2124"/>
<path d="M38.8051 11.4774C38.5507 11.4774 38.2963 11.3776 38.1018 11.1831C37.7128 10.7941 37.7128 10.1607 38.1018 9.77164L42.8649 5.00857C43.2539 4.61954 43.8873 4.61954 44.2763 5.00857C44.6654 5.39759 44.6654 6.03101 44.2763 6.42004L39.5133 11.1831C39.3188 11.3776 39.0644 11.4774 38.81 11.4774H38.8051Z" fill="#1E2124"/>
<path d="M42.381 15.4178C42.1266 15.4178 41.8723 15.318 41.6778 15.1235C41.2887 14.7345 41.2887 14.1011 41.6778 13.712L46.6254 8.76443C47.0144 8.3754 47.6478 8.3754 48.0368 8.76443C48.4258 9.15345 48.4258 9.78687 48.0368 10.1759L43.0892 15.1235C42.8947 15.318 42.6403 15.4178 42.386 15.4178H42.381Z" fill="#1E2124"/>
<path d="M54.5654 17.343C54.3111 17.343 54.0567 17.2432 53.8622 17.0487L39.7526 2.93906C39.3636 2.55004 39.3636 1.91663 39.7526 1.52761C40.1416 1.13858 40.775 1.13858 41.164 1.52761L55.2737 15.6372C55.6627 16.0263 55.6627 16.6597 55.2737 17.0487C55.0792 17.2432 54.8248 17.343 54.5704 17.343H54.5654Z" fill="#1E2124"/>
<path d="M2.25171 55.5468C1.99735 55.5468 1.743 55.4471 1.54848 55.2526C1.15946 54.8635 1.15946 54.2301 1.54848 53.8411L11.8078 43.5818C12.1968 43.1928 12.8302 43.1928 13.2192 43.5818C13.6083 43.9708 13.6083 44.6042 13.2192 44.9933L2.95995 55.2526C2.76543 55.4471 2.51107 55.5468 2.25671 55.5468H2.25171Z" fill="#1E2124"/>
<path d="M25.3838 44.2305C25.1294 44.2305 24.875 44.1307 24.6805 43.9362L23.5833 42.839C23.1942 42.4499 23.1942 41.8165 23.5833 41.4275C23.9723 41.0385 24.6057 41.0385 24.9947 41.4275L26.092 42.5248C26.481 42.9138 26.481 43.5472 26.092 43.9362C25.8975 44.1307 25.6431 44.2305 25.3887 44.2305H25.3838Z" fill="#1E2124"/>
<path d="M29.7827 39.8316C29.5283 39.8316 29.274 39.7318 29.0794 39.5373L27.9822 38.44C27.5932 38.051 27.5932 37.4176 27.9822 37.0286C28.3712 36.6396 29.0046 36.6396 29.3937 37.0286L30.4909 38.1258C30.8799 38.5149 30.8799 39.1483 30.4909 39.5373C30.2964 39.7318 30.042 39.8316 29.7877 39.8316H29.7827Z" fill="#1E2124"/>
<path d="M34.1767 35.4327C33.9224 35.4327 33.668 35.333 33.4735 35.1385L32.3762 34.0362C31.9872 33.6472 31.9872 33.0138 32.3762 32.6248C32.7653 32.2358 33.3987 32.2358 33.7877 32.6248L34.885 33.727C35.274 34.116 35.274 34.7494 34.885 35.1385C34.6904 35.333 34.4361 35.4327 34.1817 35.4327H34.1767Z" fill="#1E2124"/>
<path d="M38.5756 31.0387C38.3213 31.0387 38.0669 30.939 37.8724 30.7444L36.7752 29.6422C36.3861 29.2532 36.3861 28.6198 36.7752 28.2307C37.1642 27.8417 37.7976 27.8417 38.1866 28.2307L39.2839 29.333C39.6729 29.722 39.6729 30.3554 39.2839 30.7444C39.0894 30.939 38.835 31.0387 38.5806 31.0387H38.5756Z" fill="#1E2124"/>
</svg>
