<svg width="37" height="38" viewBox="0 0 37 38" fill="none" xmlns="http://www.w3.org/2000/svg">
<g clip-path="url(#clip0_2471_4677)">
<path d="M35.8572 9.47156H7.198V36.4147H35.8572V9.47156Z" fill="white"/>
<path d="M35.8573 37.2223H7.19805C6.75199 37.2223 6.38867 36.8598 6.38867 36.4147V9.4716C6.38867 9.02656 6.75199 8.66406 7.19805 8.66406H35.8573C36.3033 8.66406 36.6666 9.02656 36.6666 9.4716V36.4147C36.6666 36.8598 36.3033 37.2223 35.8573 37.2223ZM8.00743 35.6072H35.0479V10.2791H8.00743V35.6072Z" fill="#1E2124"/>
<path d="M33.5838 23.9894C33.5838 18.2361 28.9074 13.5703 23.141 13.5703C17.3747 13.5703 12.6982 18.2361 12.6982 23.9894C12.6982 29.7427 17.3747 34.4084 23.141 34.4084C28.9074 34.4084 33.5838 29.7427 33.5838 23.9894Z" fill="#E0E6F5"/>
<path d="M29.4685 0.807495H0.809326V27.7506H29.4685V0.807495Z" fill="white"/>
<path d="M29.4686 28.5582H0.809379C0.363321 28.5582 0 28.1957 0 27.7507V0.80754C0 0.362496 0.363321 0 0.809379 0H29.4686C29.9146 0 30.278 0.362496 30.278 0.80754V27.7507C30.278 28.1957 29.9146 28.5582 29.4686 28.5582ZM1.61876 26.9431H28.6592V1.61508H1.61876V26.9431Z" fill="#1E2124"/>
<path d="M0.809326 5.02106V0.807495H29.4685V5.02106" fill="#256EF4"/>
<path d="M29.4686 5.82865C29.0225 5.82865 28.6592 5.46615 28.6592 5.02111V1.61508H1.61876V5.02111C1.61876 5.46615 1.25544 5.82865 0.809379 5.82865C0.363321 5.82865 0 5.46615 0 5.02111V0.80754C0 0.362496 0.363321 0 0.809379 0H29.4686C29.9146 0 30.278 0.362496 30.278 0.80754V5.02111C30.278 5.46615 29.9146 5.82865 29.4686 5.82865Z" fill="#1E2124"/>
<path d="M25.3785 8.89014H4.89941V12.4756H25.3785V8.89014Z" fill="white"/>
<path d="M25.3786 13.2832H4.89947C4.45341 13.2832 4.09009 12.9207 4.09009 12.4757V8.89018C4.09009 8.44514 4.45341 8.08264 4.89947 8.08264H25.3786C25.8246 8.08264 26.1879 8.44514 26.1879 8.89018V12.4757C26.1879 12.9207 25.8246 13.2832 25.3786 13.2832ZM5.70885 11.6681H24.5692V9.69772H5.70885V11.6681Z" fill="#1E2124"/>
<path d="M10.8528 12.4756H4.89941V8.89014H10.8528" fill="#256EF4"/>
<path d="M10.8529 13.2832H4.89947C4.45341 13.2832 4.09009 12.9207 4.09009 12.4757V8.89018C4.09009 8.44514 4.45341 8.08264 4.89947 8.08264H10.8493C11.2954 8.08264 11.6587 8.44514 11.6587 8.89018C11.6587 9.33523 11.2954 9.69772 10.8493 9.69772H5.70885V11.6681H10.8493C11.2954 11.6681 11.6587 12.0306 11.6587 12.4757C11.6587 12.9207 11.2954 13.2832 10.8493 13.2832H10.8529Z" fill="#1E2124"/>
<path d="M25.3785 15.7848H4.89941V19.3703H25.3785V15.7848Z" fill="white"/>
<path d="M25.3786 20.1742H4.89947C4.45341 20.1742 4.09009 19.8117 4.09009 19.3667V15.7812C4.09009 15.3361 4.45341 14.9736 4.89947 14.9736H25.3786C25.8246 14.9736 26.1879 15.3361 26.1879 15.7812V19.3667C26.1879 19.8117 25.8246 20.1742 25.3786 20.1742ZM5.70885 18.5591H24.5692V16.5887H5.70885V18.5591Z" fill="#1E2124"/>
<path d="M20.3028 19.3667H4.89941V15.7848H20.3028" fill="#256EF4"/>
<path d="M20.3028 20.1742H4.89947C4.45341 20.1742 4.09009 19.8117 4.09009 19.3667V15.7812C4.09009 15.3361 4.45341 14.9736 4.89947 14.9736H20.3028C20.7489 14.9736 21.1122 15.3361 21.1122 15.7812C21.1122 16.2262 20.7489 16.5887 20.3028 16.5887H5.70885V18.5591H20.3028C20.7489 18.5591 21.1122 18.9216 21.1122 19.3667C21.1122 19.8117 20.7489 20.1742 20.3028 20.1742Z" fill="#1E2124"/>
<path d="M11.4104 23.6448C11.4104 23.0957 10.9643 22.6506 10.4139 22.6506C9.86354 22.6506 9.41748 23.0957 9.41748 23.6448C9.41748 24.1939 9.86354 24.639 10.4139 24.639C10.9643 24.639 11.4104 24.1939 11.4104 23.6448Z" fill="#1E2124"/>
<path d="M16.1335 23.6448C16.1335 23.0957 15.6874 22.6506 15.1371 22.6506C14.5867 22.6506 14.1406 23.0957 14.1406 23.6448C14.1406 24.1939 14.5867 24.639 15.1371 24.639C15.6874 24.639 16.1335 24.1939 16.1335 23.6448Z" fill="#1E2124"/>
<path d="M20.8603 23.6448C20.8603 23.0957 20.4142 22.6506 19.8639 22.6506C19.3135 22.6506 18.8674 23.0957 18.8674 23.6448C18.8674 24.1939 19.3135 24.639 19.8639 24.639C20.4142 24.639 20.8603 24.1939 20.8603 23.6448Z" fill="#1E2124"/>
<path d="M35.5658 14.7834H29.7886C29.3426 14.7834 28.9792 14.4209 28.9792 13.9759C28.9792 13.5308 29.3426 13.1683 29.7886 13.1683H35.5658C36.0119 13.1683 36.3752 13.5308 36.3752 13.9759C36.3752 14.4209 36.0119 14.7834 35.5658 14.7834Z" fill="#1E2124"/>
</g>
<defs>
<clipPath id="clip0_2471_4677">
<rect width="36.6667" height="37.2222" fill="white"/>
</clipPath>
</defs>
</svg>
