<svg width="20" height="20" viewBox="0 0 20 20" fill="none" xmlns="http://www.w3.org/2000/svg">
<path d="M15.1992 0C15.641 0 15.9989 0.358067 15.999 0.799805V5H18.2031C19.1972 5 20.0028 5.80578 20.0029 6.7998V16.2002C20.0029 16.642 19.645 17 19.2031 17H15.999V19.2002C15.999 19.642 15.641 20 15.1992 20H4.99902C4.55729 19.9999 4.19922 19.642 4.19922 19.2002V17H0.799805C0.58766 16.9999 0.384365 16.9157 0.234375 16.7656C0.0844035 16.6156 -1.18014e-07 16.4123 0 16.2002L0.00292969 6.7998C0.0032283 5.80593 0.808876 5.00005 1.80273 5H4V0.799805C4.00011 0.358132 4.35813 0.000105527 4.7998 0H15.1992ZM5.79883 18.4004H14.3994V12.7998H5.79883V18.4004ZM1.80273 6.59961C1.69239 6.59966 1.60264 6.68946 1.60254 6.7998L1.60059 15.4004H4.19922V12C4.19932 11.5583 4.55735 11.2003 4.99902 11.2002H15.1992C15.4113 11.2002 15.6146 11.2846 15.7646 11.4346C15.9146 11.5846 15.999 11.7879 15.999 12V15.4004H18.4033V6.7998C18.4032 6.68944 18.3135 6.59961 18.2031 6.59961H1.80273ZM5.59961 5H14.3994V1.59961H5.59961V5Z" fill="#33363D"/>
</svg>
