<svg width="267" height="48" viewBox="0 0 267 48" fill="none" xmlns="http://www.w3.org/2000/svg">
<path d="M48.2745 23.8054C48.2745 36.9543 37.4695 47.6108 24.1373 47.6108C10.805 47.6108 0 36.9543 0 23.8054C0 10.6564 10.805 0 24.1373 0C37.4695 0 48.2745 10.6564 48.2745 23.8054Z" fill="white"/>
<path d="M35.4871 22.1487C31.6433 19.5742 26.725 20.6264 24.1448 24.4919C21.996 27.7307 18.7423 28.1336 17.4863 28.1336C13.3701 28.1336 10.5705 25.283 9.73059 22.3353C9.73059 22.3353 9.71546 22.2756 9.70789 22.2532C9.70033 22.2233 9.69276 22.186 9.68519 22.1562C9.35983 20.9249 9.2766 20.3353 9.2766 19.0294C9.2766 11.9773 16.6161 4.12677 27.1715 4.12677C37.7268 4.12677 44.181 12.246 45.7776 16.7608C45.7473 16.6787 45.7171 16.5966 45.6944 16.522C42.6148 7.68639 34.1251 1.34326 24.1297 1.34326C11.5541 1.34326 1.35443 11.3953 1.35443 23.8054C1.35443 34.8947 9.46576 44.387 20.7172 44.387C29.6911 44.387 35.7217 39.4244 38.4834 32.5887C40.0043 28.85 38.9299 24.4546 35.4871 22.1487Z" fill="#003964"/>
<path d="M45.9062 17.1936C44.5745 12.7907 38.3397 4.11932 27.1563 4.11932C16.5935 4.11932 9.26147 11.9699 9.26147 19.0219C9.26147 20.3279 9.34471 20.9174 9.67007 22.1487C9.53387 21.6114 9.46577 21.0741 9.46577 20.5443C9.46577 13.2012 16.9188 8.11922 24.5762 8.11922C34.9499 8.11922 43.3563 16.4101 43.3563 26.6411C43.3563 34.6559 38.6802 41.6035 31.8854 44.9392C40.6475 41.8124 46.905 33.5365 46.905 23.8129C46.905 21.5144 46.5948 19.4846 45.9062 17.2011" fill="#ED1A3B"/>
<path d="M261.917 18.7054V16.9304H250.467V18.7054H261.917ZM261.917 14.6304V12.7554H264.592V21.0304H257.542V22.8054H266.192V25.1554H246.192V22.8054H254.817V21.0304H247.792V12.7554H250.467V14.6304H261.917ZM261.917 29.0804H250.467V31.7304H261.917V29.0804ZM247.792 26.7804H264.592V34.0554H247.792V26.7804Z" fill="#575756"/>
<path d="M224.989 19.8304V12.9304H241.789V15.1304H227.689V17.6554H241.839V19.8304H234.739V21.4054H243.389V23.6304H223.389V21.4054H232.014V19.8304H224.989ZM224.989 25.0054H241.789V30.5304H227.664V31.8554H242.089V34.0554H224.989V28.4054H239.114V27.1554H224.989V25.0054Z" fill="#575756"/>
<path d="M212.886 14.0304V16.2804H200.186V14.0304H205.161V12.2054H208.036V14.0304H212.886ZM211.586 21.4054C211.586 22.0387 211.453 22.6304 211.186 23.1804C210.919 23.7304 210.561 24.2137 210.111 24.6304C209.661 25.047 209.136 25.3804 208.536 25.6304C207.936 25.8637 207.294 25.9804 206.611 25.9804C205.928 25.9804 205.278 25.8637 204.661 25.6304C204.061 25.3804 203.536 25.047 203.086 24.6304C202.636 24.2137 202.278 23.7304 202.011 23.1804C201.744 22.6304 201.611 22.0387 201.611 21.4054C201.611 20.7721 201.744 20.1804 202.011 19.6304C202.278 19.0637 202.636 18.5721 203.086 18.1554C203.536 17.7387 204.061 17.4137 204.661 17.1804C205.278 16.9304 205.928 16.8054 206.611 16.8054C207.294 16.8054 207.936 16.9304 208.536 17.1804C209.136 17.4137 209.661 17.7387 210.111 18.1554C210.561 18.5721 210.919 19.0637 211.186 19.6304C211.453 20.1804 211.586 20.7721 211.586 21.4054ZM208.986 21.3804C208.986 20.7304 208.753 20.1721 208.286 19.7054C207.819 19.2387 207.261 19.0054 206.611 19.0054C205.961 19.0054 205.403 19.2387 204.936 19.7054C204.469 20.1721 204.236 20.7304 204.236 21.3804C204.236 22.0304 204.469 22.5887 204.936 23.0554C205.403 23.5054 205.961 23.7304 206.611 23.7304C207.261 23.7304 207.819 23.5054 208.286 23.0554C208.753 22.5887 208.986 22.0304 208.986 21.3804ZM218.236 25.2804H215.536V12.6554H218.236V17.5554H221.361V20.1804H218.236V25.2804ZM215.586 29.8054H204.086V31.8554H215.586V29.8054ZM201.436 26.1304H204.086V27.7554H215.586V26.1304H218.236V34.0054H201.436V26.1304Z" fill="#575756"/>
<path d="M179.383 21.7054V12.8804H196.158V15.0804H182.083V16.2304H196.058V18.3554H182.083V19.5554H196.233V21.7054H189.133V23.1054H197.783V25.3304H177.783V23.1054H186.408V21.7054H179.383ZM190.433 30.5804C190.433 29.8637 190.167 29.2554 189.633 28.7554C189.117 28.2387 188.5 27.9804 187.783 27.9804C187.067 27.9804 186.442 28.2387 185.908 28.7554C185.392 29.2554 185.133 29.8637 185.133 30.5804C185.133 31.297 185.392 31.9054 185.908 32.4054C186.442 32.922 187.067 33.1804 187.783 33.1804C188.5 33.1804 189.117 32.922 189.633 32.4054C190.167 31.9054 190.433 31.297 190.433 30.5804ZM193.108 30.6054C193.108 31.2554 192.975 31.8637 192.708 32.4304C192.442 33.0137 192.067 33.5304 191.583 33.9804C191.083 34.4137 190.508 34.7554 189.858 35.0054C189.225 35.272 188.533 35.4054 187.783 35.4054C187.05 35.4054 186.358 35.272 185.708 35.0054C185.058 34.7554 184.492 34.4137 184.008 33.9804C183.508 33.5304 183.125 33.0137 182.858 32.4304C182.592 31.8637 182.458 31.2554 182.458 30.6054C182.458 29.9387 182.592 29.322 182.858 28.7554C183.125 28.172 183.508 27.6554 184.008 27.2054C184.492 26.772 185.058 26.4304 185.708 26.1804C186.358 25.9137 187.05 25.7804 187.783 25.7804C188.533 25.7804 189.225 25.9137 189.858 26.1804C190.508 26.4304 191.083 26.772 191.583 27.2054C192.067 27.6554 192.442 28.172 192.708 28.7554C192.975 29.322 193.108 29.9387 193.108 30.6054Z" fill="#575756"/>
<path d="M151.76 15.7803H163.21V13.0303H165.885V23.5053H149.085V13.0303H151.76V15.7803ZM163.21 18.1303H151.76V21.1303H163.21V18.1303ZM147.485 26.4303H167.485V28.8303H158.835V34.4303H156.11V28.8303H147.485V26.4303Z" fill="#575756"/>
<path d="M124.408 16.3803V14.0053H137.508V16.3803H132.033L138.033 30.6303L135.658 31.6553L131.083 20.5303L126.533 31.8303L124.058 30.7803L130.083 16.3803H124.408ZM141.058 12.6553H143.758V34.4303H141.058V12.6553Z" fill="#575756"/>
<path d="M117.605 19.2554V17.1554H106.155V19.2554H117.605ZM117.605 14.8304V12.7554H120.28V21.6054H113.23V23.4554H121.88V25.8304H101.88V23.4554H110.505V21.6054H103.48V12.7554H106.155V14.8304H117.605ZM103.23 27.5804H120.28V34.4804H117.58V29.9304H103.23V27.5804Z" fill="#575756"/>
<path d="M90.0023 24.6303H87.3023V15.7053H79.4523V13.2803H90.0023V24.6303ZM95.4523 12.6553H98.1523V26.6053H95.4523V20.1553H91.8773V17.7803H95.4523V12.6553ZM80.5023 34.0053V26.0303H83.2023V31.6053H98.3523V34.0053H80.5023Z" fill="#575756"/>
<path d="M71.9995 23.6554V19.2804H60.5495V23.6554H71.9995ZM71.9995 16.9304V13.5804H74.6745V26.0304H67.6245V30.4304H76.2745V32.8304H56.2745V30.4304H64.8995V26.0304H57.8745V13.5804H60.5495V16.9304H71.9995Z" fill="#575756"/>
</svg>
