<svg width="174" height="48" viewBox="0 0 174 48" fill="none" xmlns="http://www.w3.org/2000/svg">
<g clip-path="url(#clip0_2361_12549)">
<path fill-rule="evenodd" clip-rule="evenodd" d="M47.9239 24.0068C47.9217 37.2589 37.1908 48.0023 23.9552 48C10.7264 47.9977 -0.00226021 37.2521 3.57166e-07 23.9977C0.00226092 10.7411 10.7354 -0.00226379 23.9642 3.57808e-07C37.1976 0.00226451 47.9262 10.7479 47.9239 24.0068Z" fill="white"/>
<path fill-rule="evenodd" clip-rule="evenodd" d="M35.231 22.329C31.4174 19.7342 26.5368 20.7916 23.9689 24.6905C21.8326 27.9486 18.6023 28.3561 17.3567 28.3561C13.2764 28.3561 10.4914 25.4829 9.66401 22.5124H9.66175C9.65045 22.4829 9.64593 22.4558 9.63689 22.4263C9.6301 22.3924 9.62106 22.3629 9.61202 22.3244C9.2865 21.0882 9.20738 20.4927 9.20738 19.175C9.20738 12.0701 16.4887 4.15915 26.9709 4.16142C37.7108 4.16142 43.8528 12.3486 45.4374 16.9018C45.408 16.8203 45.3786 16.741 45.356 16.6595C42.3111 7.75915 33.8882 1.36066 23.9643 1.3584C11.4838 1.3584 1.35871 11.4905 1.35645 23.9976C1.35645 35.1758 9.40405 44.7441 20.569 44.7463C29.4733 44.7463 35.4616 39.7493 38.2036 32.8573C39.7114 29.0875 38.6467 24.6565 35.231 22.329Z" fill="#003764"/>
<path fill-rule="evenodd" clip-rule="evenodd" d="M45.5752 17.3411C44.255 12.9011 38.0679 4.16144 26.9685 4.15918C16.4885 4.15918 9.20728 12.0679 9.20728 19.1728C9.20728 20.4905 9.2864 21.0837 9.61192 22.3222C9.47628 21.7811 9.40847 21.2399 9.40847 20.7101C9.40847 13.3086 16.8073 8.18258 24.4141 8.18484C34.7064 8.18484 43.0502 16.5463 43.0479 26.855C43.0479 34.9358 38.4024 41.9343 31.6569 45.292V45.2988C40.3578 42.1448 46.5676 33.8014 46.5699 24.0045C46.5699 21.6837 46.2579 19.6392 45.5775 17.3411H45.5752Z" fill="#E4032E"/>
<path d="M74.8857 17.1239V13.6416H77.6616V26.588H70.3419V31.1639H79.3209V33.659H58.5576V31.1639H67.5117V26.588H60.2191V13.6416H62.9951V17.1239H74.8811H74.8857ZM74.8857 24.1178V19.5691H62.9996V24.1178H74.8857Z" fill="#575757"/>
<path d="M93.5716 25.1298H90.7685V15.8491H82.6191V13.3268H93.5716V25.1276V25.1298ZM83.7087 34.8793V26.5879H86.5118V32.3842H102.239V34.8793H83.7087ZM99.2297 12.6793H102.033V27.1834H99.2297V20.477H95.5179V18.0068H99.2297V12.677V12.6793Z" fill="#575757"/>
<path d="M122.224 14.9412V12.7834H125.002V21.985H117.683V23.9095H126.661V26.3797H105.898V23.9095H114.852V21.985H107.56V12.7834H110.338V14.9412H122.224ZM107.3 28.1978H125V35.3729H122.197V30.6408H107.3V28.1978ZM122.224 19.5419V17.3593H110.338V19.5419H122.224Z" fill="#575757"/>
<path d="M129.281 16.5532V14.083H142.881V16.5532H137.198L143.426 31.3698L140.96 32.4362L136.21 20.8686L131.486 32.6173L128.915 31.526L135.17 16.5532H129.279H129.281ZM146.568 12.6792H149.371V35.3207H146.568V12.6792Z" fill="#575757"/>
<path d="M153.237 27.0022H174V29.4973H165.021V35.3207H162.193V29.4973H153.239V27.0022H153.237ZM157.674 15.9282H169.56V13.0686H172.336V23.9614H154.896V13.0686H157.672V15.9282H157.674ZM169.563 18.3712H157.677V21.4912H169.563V18.3712Z" fill="#575757"/>
</g>
<defs>
<clipPath id="clip0_2361_12549">
<rect width="174" height="48" fill="white"/>
</clipPath>
</defs>
</svg>
