<?xml version="1.0" encoding="utf-8"?>
<!-- Generator: Adobe Illustrator 27.4.1, SVG Export Plug-In . SVG Version: 6.00 Build 0)  -->
<svg version="1.1" id="Layer_1" xmlns="http://www.w3.org/2000/svg" xmlns:xlink="http://www.w3.org/1999/xlink" x="0px" y="0px"
	 viewBox="0 0 106.45 30" style="enable-background:new 0 0 106.45 30;" xml:space="preserve">
<style type="text/css">
	.st0{fill:#636569;}
	.st1{fill:#00A0DF;}
	.st2{fill:#FFFFFF;}
</style>
<g>
	<path class="st0" d="M70.87,7.08c-1.5-1.11-3.74-1.67-6.66-1.67c-6.13,0-8.98,2.27-8.98,7.16v12.16h5.73V12.7
		c0-2.19,1.18-3.44,3.25-3.44c2.03,0,3.25,1.29,3.25,3.44v12.02h5.79V12.57C73.24,10.06,72.47,8.27,70.87,7.08z"/>
	<path class="st0" d="M41.99,5.41c-2.86,0-5.03,0.28-7.02,0.91v3.17c1.96-0.52,3.67-0.76,5.37-0.76c0.47,0,1.4,0.05,2.3,0.36
		l0.05,0.02c2.35,0.84,2.37,2.79,2.37,2.87v7.05c0,2.07-1.77,3.01-3.42,3.01c-2.83,0-3.05-2.4-3.05-3.14c0-2.1,1.2-3.31,3.31-3.31
		c0.18,0,0.35,0,0.52,0.02v-1.97c-0.58-0.05-1.15-0.08-1.7-0.08c-2.82,0-5.05,0.72-6.28,2.01c-0.8,0.85-1.21,1.97-1.21,3.33
		c0,5.14,4.79,6.22,8.81,6.22c3.78,0,5.95-0.54,7.25-1.79c1.33-1.29,1.93-3.57,1.93-7.4C51.23,9.25,47.86,5.41,41.99,5.41z"/>
	<path class="st0" d="M9.65,5.38H9.59c-3.69,0.01-6.18,0.85-7.6,2.57c-1.15,1.39-1.66,3.37-1.66,6.43v15.27l5.7-4.04V12.16
		c0.02-0.5,0.18-1.73,1.33-2.54c0.1-0.07,0.2-0.12,0.29-0.18l0.36-0.21l0.05,0.04c0.35-0.12,0.73-0.19,1.13-0.19
		c1.59,0,2.82,1.01,3.22,2.63c0.15,0.57,0.34,1.82,0.34,3.43c0,1.74-0.2,2.57-0.48,3.71l-0.02,0.1c-0.32,1.28-1.62,2.63-3.39,2.63
		c-0.08,0-0.15,0-0.23-0.01v2.79c1.27,0.55,2.15,0.67,3.07,0.67c4.55,0,6.86-3.13,6.86-9.29c0-3.47-0.61-5.94-1.99-7.53
		C14.96,6.36,12.57,5.38,9.65,5.38z"/>
	<polygon class="st0" points="23.09,4.87 23.09,24.74 29.03,24.74 29.03,0.67 	"/>
	
		<ellipse transform="matrix(0.1602 -0.9871 0.9871 0.1602 61.8196 102.9183)" class="st1" cx="91.39" cy="15.13" rx="14.54" ry="14.54"/>
	<polygon class="st2" points="98.03,5.72 84.75,5.72 84.75,5.72 88.33,8.25 88.33,8.25 88.33,22.01 88.33,22.01 84.75,24.54 
		84.75,24.54 98.03,24.54 98.03,24.54 94.46,22.01 94.46,22.01 94.46,8.25 94.46,8.25 98.03,5.72 	"/>
</g>
</svg>
