<?xml version="1.0" encoding="utf-8"?>
<!-- Generator: Adobe Illustrator 16.0.0, SVG Export Plug-In . SVG Version: 6.00 Build 0)  -->
<!DOCTYPE svg PUBLIC "-//W3C//DTD SVG 1.1//EN" "http://www.w3.org/Graphics/SVG/1.1/DTD/svg11.dtd">
<svg version="1.1" id="레이어_1" xmlns="http://www.w3.org/2000/svg" xmlns:xlink="http://www.w3.org/1999/xlink" x="0px"
	 y="0px" width="174px" height="48px" viewBox="0 0 174 48" enable-background="new 0 0 174 48" xml:space="preserve">
<g>
	<defs>
		<rect id="SVGID_1_" y="0.04" width="174" height="48"/>
	</defs>
	<clipPath id="SVGID_2_">
		<use xlink:href="#SVGID_1_"  overflow="visible"/>
	</clipPath>
	<g id="_x5F_ë_xA1__x9C_ê_xB3__xA0__x5F_ë_xA0__x88_ì_x9D__xB4_ì_x96__xB4_" clip-path="url(#SVGID_2_)">
		<path id="Vector" fill-rule="evenodd" clip-rule="evenodd" fill="#FFFFFF" d="M47.924,24.05
			C47.922,37.3,37.191,48.04,23.955,48.04c-13.229,0-23.957-10.75-23.955-24c0.002-13.26,10.735-24,23.964-24
			C37.198,0.04,47.926,10.79,47.924,24.05z"/>
		<g id="Group">
			<path id="Vector_2" fill-rule="evenodd" clip-rule="evenodd" fill="#003764" d="M35.231,22.37
				c-3.814-2.601-8.694-1.54-11.262,2.36c-2.137,3.26-5.367,3.67-6.612,3.67c-4.081,0-6.866-2.881-7.693-5.851H9.662
				c-0.012-0.03-0.016-0.05-0.025-0.08C9.63,22.43,9.621,22.4,9.612,22.36c-0.326-1.23-0.405-1.83-0.405-3.141
				c0-7.109,7.282-15.02,17.764-15.02c10.74,0,16.882,8.189,18.466,12.739c-0.029-0.079-0.058-0.159-0.081-0.239
				C42.311,7.8,33.888,1.4,23.964,1.4c-12.48,0-22.605,10.13-22.608,22.64c0,11.18,8.048,20.74,19.213,20.75
				c8.904,0,14.892-5,17.634-11.89C39.711,29.13,38.647,24.7,35.231,22.37z"/>
			<path id="Vector_3" fill-rule="evenodd" clip-rule="evenodd" fill="#E4032E" d="M45.575,17.38
				c-1.32-4.44-7.507-13.18-18.607-13.18c-10.479,0-17.761,7.91-17.761,15.01c0,1.32,0.079,1.91,0.405,3.15
				c-0.136-0.54-0.204-1.08-0.204-1.61c0-7.4,7.399-12.53,15.006-12.53c10.292,0,18.636,8.37,18.634,18.681
				c0,8.08-4.646,15.069-11.391,18.43v0.01c8.701-3.16,14.911-11.5,14.913-21.3c0-2.32-0.312-4.36-0.993-6.66H45.575z"/>
		</g>
		<g id="Group_2">
			<path id="Vector_4" fill="#575757" d="M74.886,17.16v-3.48h2.776v12.95h-7.32v4.57h8.979v2.5H58.558v-2.5h8.954v-4.57h-7.293
				V13.68h2.776v3.48h11.886H74.886z M74.886,24.16v-4.55H63v4.55H74.886z"/>
			<path id="Vector_5" fill="#575757" d="M93.57,25.17h-2.803v-9.28h-8.148v-2.52H93.57V25.17L93.57,25.17z M83.709,34.92v-8.29
				h2.803v5.79h15.726v2.5H83.709z M99.23,12.72h2.803v14.5H99.23v-6.7h-3.713v-2.47h3.713V12.72L99.23,12.72z"/>
			<path id="Vector_6" fill="#575757" d="M122.225,14.98v-2.16h2.777v9.199h-7.318v1.931h8.979v2.47h-20.764v-2.47h8.953V22.02
				h-7.291V12.82h2.777v2.16H122.225z M107.3,28.24H125v7.17h-2.803v-4.73H107.3V28.24z M122.225,19.58V17.4h-11.887v2.18H122.225z"
				/>
			<path id="Vector_7" fill="#575757" d="M129.282,16.59v-2.47h13.599v2.47h-5.683l6.228,14.82l-2.466,1.07l-4.75-11.57
				l-4.724,11.75l-2.571-1.09l6.255-14.98h-5.891H129.282z M146.568,12.72h2.803V35.36h-2.803V12.72z"/>
			<path id="Vector_8" fill="#575757" d="M153.236,27.04H174v2.5h-8.979v5.82h-2.828v-5.82h-8.954v-2.5H153.236z M157.674,15.97
				h11.887V13.11h2.775V24h-17.439V13.11h2.775v2.859H157.674z M169.563,18.41h-11.886v3.12h11.886V18.41z"/>
		</g>
	</g>
</g>
</svg>
