<svg width="114" height="32" viewBox="0 0 114 32" fill="none" xmlns="http://www.w3.org/2000/svg">
<path d="M9.96992 5.4959C13.0809 5.49592 15.6368 6.55416 17.3556 8.54774C18.8253 10.2501 19.4786 12.9088 19.4786 16.6334C19.4785 23.2496 17.0124 26.6046 12.1502 26.6046C11.1704 26.6046 10.2356 26.4815 8.87218 25.8868V22.8972C8.94951 22.9094 9.03093 22.9086 9.11231 22.9086C11.0107 22.9086 12.3955 21.453 12.7384 20.083L12.7626 19.9801C13.0647 18.7578 13.2809 17.8711 13.2809 16.0007C13.2809 14.2618 13.0809 12.9248 12.9176 12.3136C12.4889 10.5703 11.1702 9.48672 9.47187 9.48667C9.04345 9.48667 8.6352 9.55249 8.25978 9.6836L7.83033 9.87291C7.72442 9.92613 7.62242 9.98731 7.51651 10.0609C6.28373 10.9264 6.10734 12.2475 6.09097 12.785V27.2209L0 31.5559V15.1609C0 11.8793 0.547065 9.74964 1.78003 8.2606C3.29873 6.42297 5.95645 5.51999 9.90004 5.50352H9.96992V5.4959ZM44.4079 5.53656C50.6785 5.53683 54.2749 9.65585 54.2749 16.8342C54.2748 20.9479 53.6425 23.3968 52.2179 24.7751C50.8217 26.1287 48.5064 26.7037 44.4689 26.7037C40.178 26.7037 35.058 25.5421 35.058 20.0207C35.058 18.5605 35.4913 17.3589 36.3527 16.4441C37.6673 15.0495 40.0472 14.2817 43.056 14.2817C43.6398 14.2817 44.2486 14.3107 44.8691 14.3681V16.4886C44.6855 16.4763 44.5056 16.4721 44.3139 16.4721C42.0686 16.4721 40.782 17.7687 40.7818 20.0245C40.7818 20.8162 41.0146 23.3963 44.0394 23.3965C45.7991 23.3965 47.6935 22.3873 47.6935 20.1681V12.5957C47.6934 12.4984 47.6606 10.4089 45.1588 9.51208L45.1016 9.49048C44.1422 9.15001 43.1494 9.10169 42.6431 9.10169C40.8307 9.10173 39.0019 9.35963 36.9079 9.91738V6.51742C39.0308 5.84474 41.3501 5.54037 44.4079 5.54037V5.53656ZM30.4358 26.2934H24.0958V4.95846L30.4358 0.446777V26.2934ZM68.491 5.53656C71.6059 5.53659 74.0028 6.14354 75.6073 7.3331C77.3176 8.60056 78.1457 10.5286 78.1458 13.2233V26.2768H71.9608V13.3669C71.9606 11.0578 70.6953 9.67608 68.491 9.67598C66.2865 9.67598 65.02 11.0208 65.0199 13.3669V26.273H58.8971V13.2195C58.8972 7.97722 61.9466 5.53656 68.491 5.53656Z" fill="white"/>
<path d="M98.4619 0.387695C107.044 0.387695 114.001 7.3775 114.001 16C114.001 24.6223 107.044 31.6123 98.4619 31.6123C89.8805 31.6121 82.924 24.6222 82.9238 16C82.9238 7.37765 89.8804 0.387941 98.4619 0.387695ZM91.3662 5.89648L95.1875 8.61621V23.3828L91.3662 26.1025H105.558L101.736 23.3828V8.61621L105.558 5.89648H91.3662Z" fill="white"/>
</svg>
