<svg width="56" height="56" viewBox="0 0 56 56" fill="none" xmlns="http://www.w3.org/2000/svg">
<path d="M16.2313 21.8561C15.9832 21.8561 15.7352 21.7624 15.5477 21.575C15.1729 21.2002 15.1729 20.5883 15.5477 20.2134L24.1197 11.6415C24.4835 11.2777 25.123 11.2777 25.4813 11.6415L29.8141 15.9743L38.9814 6.80702C39.3562 6.43217 39.9681 6.43217 40.343 6.80702C40.7178 7.18187 40.7178 7.79375 40.343 8.1686L30.4976 18.0139C30.1228 18.3888 29.5109 18.3888 29.1361 18.0139L24.8032 13.6811L16.9148 21.5695C16.7274 21.7569 16.4794 21.8506 16.2313 21.8506V21.8561Z" fill="#388EEB"/>
<path d="M39.665 12.2811C39.1303 12.2811 38.7003 11.8511 38.7003 11.3164V8.44988H35.8338C35.2991 8.44988 34.8691 8.01991 34.8691 7.4852C34.8691 6.95048 35.2991 6.52051 35.8338 6.52051H39.665C40.1997 6.52051 40.6297 6.95048 40.6297 7.4852V11.3164C40.6297 11.8511 40.1997 12.2811 39.665 12.2811Z" fill="#388EEB"/>
<path d="M11.5346 40.2131C11.303 40.2131 11.066 40.1304 10.8841 39.9595C10.4927 39.6012 10.4651 38.9893 10.8234 38.5979L12.9182 36.3102C18.1826 29.2597 25.2827 29.381 25.5859 29.3865H35.4257C37.3992 29.3865 39.0033 30.9907 39.0033 32.9641C39.0033 34.9376 37.3992 36.5418 35.4257 36.5418H27.2066C26.6719 36.5418 26.2419 36.1118 26.2419 35.5771C26.2419 35.0424 26.6719 34.6124 27.2066 34.6124H35.4257C36.3353 34.6124 37.074 33.8737 37.074 32.9641C37.074 32.0546 36.3353 31.3159 35.4257 31.3159H25.5584C25.2717 31.3049 19.0867 31.2442 14.4396 37.5009C14.4176 37.5285 14.4011 37.5505 14.3735 37.5781L12.2457 39.8989C12.0582 40.1083 11.7936 40.2131 11.5346 40.2131Z" fill="#1E2124"/>
<path d="M15.3216 55.2016C15.0736 55.2016 14.8255 55.1079 14.6381 54.9204L3.98243 44.2648C3.60758 43.8899 3.60758 43.278 3.98243 42.9032L9.57762 37.308C9.95247 36.9331 10.5644 36.9331 10.9392 37.308L21.5949 47.9692C21.9697 48.344 21.9697 48.9559 21.5949 49.3308L15.9997 54.9259C15.8123 55.1134 15.5642 55.2071 15.3161 55.2071L15.3216 55.2016ZM6.02757 43.5812L15.3216 52.8753L19.5497 48.6472L10.2557 39.3531L6.02757 43.5812Z" fill="#1E2124"/>
<path d="M20.2387 48.3331C19.9907 48.3331 19.7426 48.2394 19.5552 48.052C19.1803 47.6771 19.1803 47.0652 19.5552 46.6904L23.3809 42.8592C23.5628 42.6773 23.8053 42.5781 24.0644 42.5781H32.1788C37.5314 42.5395 42.399 37.0049 42.4431 36.9498C42.4596 36.9333 42.4706 36.9167 42.4872 36.9002L49.4219 29.9655C50.3645 29.0228 50.3645 27.4848 49.4219 26.5422C48.9644 26.0847 48.358 25.8311 47.7075 25.8311C47.057 25.8311 46.4507 26.0847 45.9986 26.5422L39.0639 33.4769C38.6891 33.8518 38.0772 33.8518 37.7023 33.4769C37.3275 33.1021 37.3275 32.4902 37.7023 32.1153L44.6371 25.1806C45.4584 24.3593 46.5499 23.9072 47.713 23.9072C48.8762 23.9072 49.9676 24.3593 50.789 25.1806C52.4869 26.8785 52.4869 29.6347 50.789 31.3326L43.8763 38.2452C43.4298 38.7524 38.2591 44.4689 32.1843 44.5074H24.4668L20.9223 48.052C20.7349 48.2394 20.4868 48.3331 20.2387 48.3331Z" fill="#1E2124"/>
<path d="M30.0344 27.8047C29.6926 27.8047 29.3784 27.6228 29.202 27.3306L26.3796 22.5237H15.8728C15.3381 22.5237 14.9081 22.0937 14.9081 21.559V2.67318C14.9081 2.13847 15.3381 1.7085 15.8728 1.7085H44.196C44.7307 1.7085 45.1607 2.13847 45.1607 2.67318V21.5535C45.1607 22.0882 44.7307 22.5182 44.196 22.5182H33.6892L30.8668 27.3251C30.6959 27.6228 30.3762 27.7992 30.0344 27.7992V27.8047ZM16.8375 20.5888H26.9308C27.2726 20.5888 27.5868 20.7707 27.7632 21.0629L30.0344 24.9327L32.3055 21.0629C32.4764 20.7652 32.7961 20.5888 33.1379 20.5888H43.2313V3.63787H16.8375V20.5888Z" fill="#1E2124"/>
</svg>
