<svg width="56" height="56" viewBox="0 0 56 56" fill="none" xmlns="http://www.w3.org/2000/svg">
<path d="M42.315 15.0098H18.65C18.1 15.0098 17.65 14.5598 17.65 14.0098C17.65 13.4598 18.1 13.0098 18.65 13.0098H42.315C42.865 13.0098 43.315 13.4598 43.315 14.0098C43.315 14.5598 42.865 15.0098 42.315 15.0098Z" fill="#1E2124"/>
<path d="M31.975 22.8452H18.645C18.095 22.8452 17.645 22.3952 17.645 21.8452C17.645 21.2952 18.095 20.8452 18.645 20.8452H31.975C32.525 20.8452 32.975 21.2952 32.975 21.8452C32.975 22.3952 32.525 22.8452 31.975 22.8452Z" fill="#1E2124"/>
<path d="M50.735 42.9648H10.23C9.68001 42.9648 9.23001 42.5148 9.23001 41.9648V6.88477C9.23001 6.33477 9.68001 5.88477 10.23 5.88477H50.735C51.285 5.88477 51.735 6.33477 51.735 6.88477V41.9648C51.735 42.5148 51.285 42.9648 50.735 42.9648ZM11.23 40.9648H49.735V7.88477H11.23V40.9648Z" fill="#1E2124"/>
<path d="M5.345 38.08C4.795 38.08 4.345 37.63 4.345 37.08V2C4.345 1.45 4.795 1 5.345 1H45.85C46.4 1 46.85 1.45 46.85 2V6.055C46.85 6.605 46.4 7.055 45.85 7.055C45.3 7.055 44.85 6.605 44.85 6.055V3H6.345V37.08C6.345 37.63 5.895 38.08 5.345 38.08Z" fill="#1E2124"/>
<path d="M30.935 19.5098L22.795 27.6498H2V54.4398H54.08V19.5098H30.935Z" fill="white"/>
<path d="M54.08 55.4399H2C1.45 55.4399 1 54.9899 1 54.4399V27.6449C1 27.0949 1.45 26.6449 2 26.6449H22.38L30.225 18.7999C30.415 18.6099 30.665 18.5049 30.93 18.5049H54.075C54.625 18.5049 55.075 18.9549 55.075 19.5049V54.4349C55.075 54.9849 54.625 55.4349 54.075 55.4349L54.08 55.4399ZM3 53.4399H53.08V20.5099H31.35L23.505 28.3549C23.32 28.5449 23.065 28.6499 22.8 28.6499H3V53.4449V53.4399Z" fill="#1E2124"/>
<path d="M41.685 50.2948H36.535C35.985 50.2948 35.535 49.8448 35.535 49.2948V43.0498H29.29C28.74 43.0498 28.29 42.5998 28.29 42.0498V36.8998C28.29 36.3498 28.74 35.8998 29.29 35.8998H35.535V29.6548C35.535 29.1048 35.985 28.6548 36.535 28.6548H41.685C42.235 28.6548 42.685 29.1048 42.685 29.6548V35.8998H48.93C49.48 35.8998 49.93 36.3498 49.93 36.8998V42.0498C49.93 42.5998 49.48 43.0498 48.93 43.0498H42.685V49.2948C42.685 49.8448 42.235 50.2948 41.685 50.2948Z" fill="#388EEB"/>
</svg>
