<svg width="39" height="38" viewBox="0 0 39 38" fill="none" xmlns="http://www.w3.org/2000/svg">
<g clip-path="url(#clip0_2471_4719)">
<path d="M3.28134 23.5237L15.1231 35.3757C15.8693 36.1225 17.0805 36.1225 17.8305 35.3757C18.5767 34.6288 18.5767 33.4166 17.8305 32.666L15.2356 30.0689L15.3481 29.9563L18.6179 33.2289C19.3641 33.9758 20.5753 33.9758 21.3252 33.2289C22.0714 32.4821 22.0714 31.2699 21.3252 30.5193L18.0554 27.2467L18.1679 27.1341L22.1164 31.086C22.8626 31.8328 24.0738 31.8328 24.8238 31.086C25.57 30.3391 25.57 29.1232 24.8238 28.3763L20.8753 24.4244L20.9878 24.3118L25.6112 28.9393C26.3574 29.6861 27.5686 29.6861 28.3186 28.9393C29.0648 28.1924 29.0648 26.9765 28.3186 26.2296L18.0554 15.9577C18.0554 15.9577 14.6994 12.5762 9.07474 13.2968L3.27759 23.5237H3.28134Z" fill="white"/>
<path d="M16.4766 36.7831C15.7417 36.7831 15.048 36.4941 14.5267 35.9724L2.68496 24.1205C2.41497 23.8503 2.35873 23.4374 2.54622 23.1072L8.34336 12.8802C8.47461 12.6476 8.70709 12.4937 8.96958 12.4599C9.52454 12.3886 10.0833 12.3511 10.6345 12.3511C15.6067 12.3511 18.5352 15.2409 18.6552 15.3647L28.9184 25.6367C29.9946 26.7138 29.9946 28.4627 28.9184 29.5398C28.3971 30.0615 27.7034 30.3504 26.9685 30.3504C26.6985 30.3504 26.436 30.3129 26.1848 30.2379C26.0835 30.782 25.8248 31.2849 25.4236 31.6865C24.9024 32.2082 24.2087 32.4934 23.4737 32.4934C23.2037 32.4934 22.9412 32.4559 22.69 32.3808C22.5887 32.925 22.3263 33.4279 21.925 33.8295C21.4038 34.3511 20.7139 34.6364 19.9752 34.6364C19.7052 34.6364 19.4427 34.5988 19.1915 34.5238C19.094 35.0567 18.839 35.5634 18.4303 35.9724C17.909 36.4941 17.2153 36.7831 16.4804 36.7831H16.4766ZM4.33111 23.3811L15.7192 34.779C16.1241 35.1843 16.8291 35.1843 17.2341 34.779C17.6503 34.3624 17.6503 33.6831 17.2341 33.2628L14.6392 30.6657C14.4817 30.5081 14.3917 30.2942 14.3917 30.069C14.3917 29.8438 14.4817 29.6299 14.6392 29.4722L14.7517 29.3597C15.0817 29.0294 15.6142 29.0294 15.9442 29.3597L19.214 32.6323C19.6189 33.0376 20.3239 33.0376 20.7251 32.6323C20.9276 32.4296 21.0401 32.1594 21.0401 31.8742C21.0401 31.5889 20.9276 31.3187 20.7251 31.1161L17.4553 27.8434C17.1253 27.5132 17.1253 26.9803 17.4553 26.65L17.5678 26.5374C17.8828 26.2221 18.4452 26.2221 18.7602 26.5374L22.7087 30.4893C23.1137 30.8946 23.8187 30.8946 24.2236 30.4893C24.4261 30.2866 24.5386 30.0202 24.5386 29.7312C24.5386 29.4422 24.4261 29.1758 24.2236 28.9731L20.2751 25.0212C20.1176 24.8636 20.0277 24.6496 20.0277 24.4245C20.0277 24.1993 20.1176 23.9854 20.2751 23.8277L20.3876 23.7151C20.7176 23.3849 21.2501 23.3849 21.5801 23.7151L26.2035 28.3426C26.6085 28.7479 27.3135 28.7479 27.7184 28.3426C28.1347 27.926 28.1347 27.2467 27.7184 26.8264L17.4553 16.5544C17.4291 16.5282 14.8755 14.0399 10.6307 14.0399C10.2895 14.0399 9.94452 14.0549 9.59579 14.0887L4.33111 23.3811Z" fill="#1E2124"/>
<path d="M20.9576 18.8062L16.4354 20.8253C15.4942 21.3245 14.328 20.9642 13.8293 20.0222C13.3306 19.0802 13.6906 17.913 14.6317 17.4138L18.6253 14.3777C18.6253 14.3777 23.0125 10.5459 28.2734 12.4636L31.3032 13.5933L35.6117 23.5275L28.3109 26.2259L20.9576 18.8062Z" fill="white"/>
<path d="M28.307 27.0703C28.0858 27.0703 27.8683 26.984 27.707 26.8226L20.7662 19.8195L16.8027 21.5872C16.4127 21.7899 15.974 21.8949 15.5353 21.8949C14.5041 21.8949 13.5666 21.3282 13.0829 20.42C12.7379 19.767 12.6667 19.0164 12.8842 18.3071C13.0942 17.624 13.5479 17.0573 14.1703 16.7083L18.0926 13.7247C18.4076 13.4582 21.3062 11.0863 25.2472 11.0863C26.3759 11.0863 27.4895 11.2852 28.5582 11.6718L31.5955 12.8052C31.8093 12.884 31.9818 13.0491 32.0755 13.2593L36.384 23.1935C36.4777 23.4074 36.4777 23.6476 36.384 23.8615C36.294 24.0754 36.1178 24.2406 35.9003 24.3231L28.5995 27.0215C28.5057 27.0553 28.4045 27.0741 28.307 27.0741V27.0703ZM20.9574 17.9618C21.1787 17.9618 21.3962 18.0481 21.5574 18.2095L28.5282 25.2426L34.4829 23.0396L30.6731 14.2538L27.977 13.248C27.0996 12.929 26.1771 12.7639 25.2472 12.7639C21.8086 12.7639 19.2025 14.9857 19.1763 15.0082C19.1613 15.0194 19.1463 15.0307 19.135 15.042L15.1415 18.0781C15.104 18.1044 15.0665 18.1307 15.0253 18.1532C14.7703 18.2883 14.5828 18.5172 14.4966 18.7912C14.4103 19.0689 14.4403 19.3617 14.5753 19.6169C14.8453 20.131 15.5203 20.3412 16.0415 20.0672C16.0602 20.0597 16.0752 20.0485 16.094 20.041L20.6162 18.0218C20.725 17.9731 20.8449 17.9468 20.9574 17.9468V17.9618Z" fill="#1E2124"/>
<path d="M23.9387 20.4126C22.0151 20.4126 20.6127 19.5869 20.5189 19.5306C20.1214 19.2904 19.9902 18.7687 20.2339 18.3709C20.4739 17.9731 20.9914 17.8455 21.3889 18.0819C21.5051 18.1495 24.1524 19.6695 26.871 17.7554C27.2535 17.4852 27.7785 17.579 28.0447 17.9581C28.3147 18.3409 28.2209 18.8663 27.8422 19.1328C26.4661 20.1011 25.1049 20.405 23.9387 20.405V20.4126Z" fill="#1E2124"/>
<path d="M0.84375 24.552V10.1855H7.06462C7.06462 10.1855 9.21699 10.6847 9.57697 12.8089L4.0723 24.552H0.84375Z" fill="white"/>
<path d="M4.07225 25.3965H0.843699C0.378727 25.3965 0 25.0175 0 24.5521V10.1856C0 9.72024 0.378727 9.34119 0.843699 9.34119H7.06457C7.12832 9.34119 7.19206 9.34869 7.25581 9.36371C7.36455 9.38998 9.96315 10.0205 10.4094 12.6701C10.4394 12.839 10.4131 13.0154 10.3419 13.1692L4.83721 24.9124C4.69846 25.2089 4.40223 25.3965 4.07225 25.3965ZM1.6874 23.7077H3.53604L8.68822 12.7076C8.36574 11.5442 7.25956 11.1239 6.94833 11.0263H1.6874V23.7039V23.7077Z" fill="#1E2124"/>
<path d="M38.045 24.552V10.1855H31.8241C31.8241 10.1855 29.6717 10.6847 29.3118 12.8089L34.8127 24.552H38.0412H38.045Z" fill="white"/>
<path d="M38.0451 25.3965H34.8165C34.4903 25.3965 34.1903 25.2089 34.0516 24.9124L28.5507 13.1692C28.4794 13.0154 28.4532 12.839 28.4832 12.6701C28.9294 10.0205 31.528 9.38998 31.6367 9.36371C31.7005 9.34869 31.7642 9.34119 31.828 9.34119H38.0488C38.5138 9.34119 38.8925 9.72024 38.8925 10.1856V24.5521C38.8925 25.0175 38.5138 25.3965 38.0488 25.3965H38.0451ZM35.3528 23.7077H37.2014V11.03H31.9405C31.6367 11.1239 30.523 11.5442 30.2006 12.7114L35.3528 23.7114V23.7077Z" fill="#1E2124"/>
<path d="M16.9003 10.5758C16.5478 10.5758 16.1954 10.4407 15.9254 10.1705L12.5468 6.78908C12.0069 6.24864 12.0069 5.3742 12.5468 4.83752C13.0868 4.29709 13.9605 4.29709 14.4967 4.83752L16.9003 7.24319L22.8887 1.2459C23.4287 0.705468 24.3024 0.705468 24.8423 1.2459C25.3823 1.78633 25.3823 2.66078 24.8423 3.19746L17.8752 10.1705C17.6053 10.4407 17.2528 10.5758 16.9003 10.5758Z" fill="#256EF4"/>
</g>
<defs>
<clipPath id="clip0_2471_4719">
<rect width="38.8889" height="37.2222" fill="white"/>
</clipPath>
</defs>
</svg>
